{
.appVersion = "3091";
DisplayStrings = (
"Vielleicht/space ist/space der/space Höhepunkt/space des/space luxuriösen/space Badens/space im/space Seifenbad/space erreicht,/space eine/space Anwendung/space von/space heißem/space Wasser/space und/space Seife/space auf/space den/space ganzen/space Körper,/space unmittelbar/space gefolgt/space von/space einem/space kalten/space Sprung/space oder/space einem/space Schwammbad./space Ein/space Bad/space ist/space sofort/space eine/space Notwendigkeit/space und/space ein/space Luxus,/space und/space um/space die/space größte/space Anzahl/space von/space Vorteilen/space einschließlich/space erhöhter/space Gesundheit,/space Appetit,/space Energie/space und/space guten/space Geistern/space zu/space erhalten,/space ist/space das/space Seifenbad/space das/space wirksamste/space und/space außerdem/space das/space angenehmste/space und/space am/space wenigsten/space probierende/space zu/space der/space schwachen/space oder/space überempfindlichen/space Verfassung.",

glyphs = (
{
glyphname = A;
lastChange = "2021-11-29 10:31:47 +0000";
layers = (
{
anchors = (
{
name = bottom;
position = "{316, 60}";
},
{
name = ogonek;
position = "{634, 0}";
},
{
name = top;
position = "{430, 780}";
}
);
hints = (
{
horizontal = 1;
place = "{0, 21}";
target = up;
type = BottomGhost;
},
{
horizontal = 1;
place = "{227, 94}";
type = Stem;
},
{
horizontal = 1;
place = "{780, 87}";
type = Stem;
},
{
place = "{-34, 668}";
type = Stem;
}
);
layerId = "53F1C36F-0CF6-4FBE-93F4-60C790418F6C";
paths = (
{
closed = 1;
nodes = (
"80 0 LINE",
"404 693 LINE",
"428 693 LINE",
"522 0 LINE",
"634 0 LINE",
"634 6 LINE",
"520 780 LINE",
"340 780 LINE",
"-34 6 LINE",
"-34 0 LINE"
);
},
{
closed = 1;
nodes = (
"509 227 LINE",
"494 321 LINE",
"206 321 LINE",
"159 227 LINE"
);
}
);
width = 700;
},
{
anchors = (
{
name = bottom;
position = "{325, 60}";
},
{
name = ogonek;
position = "{672, 0}";
},
{
name = top;
position = "{441, 780}";
}
);
layerId = "7BD6BBF9-E6B2-4B80-818C-1AB8B5401D18";
paths = (
{
closed = 1;
nodes = (
"126 0 LINE",
"411 650 LINE",
"435 650 LINE",
"510 0 LINE",
"672 0 LINE",
"672 6 LINE",
"571 780 LINE",
"309 780 LINE",
"-42 6 LINE",
"-42 0 LINE"
);
},
{
closed = 1;
nodes = (
"505 195 LINE",
"492 321 LINE",
"241 321 LINE",
"186 195 LINE"
);
}
);
width = 730;
}
);
leftKerningGroup = A;
rightKerningGroup = A;
unicode = 0041;
},
{
glyphname = AE;
lastChange = "2021-11-29 10:31:47 +0000";
layers = (
{
anchors = (
{
name = bottom;
position = "{480, 0}";
},
{
name = top;
position = "{480, 780}";
}
);
guideLines = (
{
angle = 98.3362;
position = "{926, 0}";
},
{
position = "{502, 274}";
}
);
hints = (
{
horizontal = 1;
place = "{0, 94}";
type = Stem;
},
{
horizontal = 1;
place = "{227, 94}";
type = Stem;
},
{
horizontal = 1;
place = "{375, 91}";
type = Stem;
},
{
horizontal = 1;
place = "{780, 94}";
type = Stem;
}
);
layerId = "53F1C36F-0CF6-4FBE-93F4-60C790418F6C";
paths = (
{
closed = 1;
nodes = (
"80 0 LINE",
"404 693 LINE",
"428 693 LINE",
"522 0 LINE",
"634 0 LINE",
"634 2 LINE",
"520 780 LINE",
"340 780 LINE",
"-34 6 LINE",
"-34 0 LINE"
);
},
{
closed = 1;
nodes = (
"509 227 LINE",
"494 321 LINE",
"206 321 LINE",
"159 227 LINE"
);
},
{
closed = 1;
nodes = (
"896 0 LINE",
"912 94 LINE",
"566 94 LINE",
"522 0 LINE"
);
},
{
closed = 1;
nodes = (
"841 375 LINE",
"856 465 LINE",
"508 465 LINE",
"493 375 LINE"
);
},
{
closed = 1;
nodes = (
"873 686 LINE",
"889 780 LINE",
"365 780 LINE",
"459 686 LINE"
);
}
);
width = 960;
},
{
anchors = (
{
name = bottom;
position = "{460, 0}";
},
{
name = top;
position = "{590, 780}";
}
);
background = {
paths = (
{
closed = 1;
nodes = (
"956 0 LINE",
"978 130 LINE",
"622 130 LINE",
"659 354 LINE",
"925 354 LINE",
"945 476 LINE",
"679 476 LINE",
"708 650 LINE",
"1058 650 LINE",
"1080 780 LINE",
"564 780 LINE",
"434 0 LINE"
);
}
);
};
layerId = "7BD6BBF9-E6B2-4B80-818C-1AB8B5401D18";
paths = (
{
closed = 1;
nodes = (
"126 0 LINE",
"411 650 LINE",
"435 650 LINE",
"510 0 LINE",
"672 0 LINE",
"672 6 LINE",
"571 780 LINE",
"309 780 LINE",
"-42 6 LINE",
"-42 0 LINE"
);
},
{
closed = 1;
nodes = (
"505 195 LINE",
"492 321 LINE",
"241 321 LINE",
"186 195 LINE"
);
},
{
closed = 1;
nodes = (
"956 0 LINE",
"978 130 LINE",
"583 130 LINE",
"522 0 LINE"
);
},
{
closed = 1;
nodes = (
"897 354 LINE",
"918 476 LINE",
"510 476 LINE",
"489 354 LINE"
);
},
{
closed = 1;
nodes = (
"927 650 LINE",
"949 780 LINE",
"365 780 LINE",
"453 650 LINE"
);
}
);
width = 1020;
}
);
leftKerningGroup = A;
rightKerningGroup = A;
unicode = 00C6;
},
{
glyphname = B;
lastChange = "2021-09-02 10:56:02 +0000";
layers = (
{
background = {
paths = (
{
closed = 1;
nodes = (
"324 0 LINE SMOOTH",
"519 0 OFFCURVE",
"625 92 OFFCURVE",
"648 228 CURVE SMOOTH",
"665 330 OFFCURVE",
"624 398 OFFCURVE",
"526 420 CURVE",
"528 434 LINE",
"610 458 OFFCURVE",
"658 519 OFFCURVE",
"670 591 CURVE SMOOTH",
"689 705 OFFCURVE",
"618 780 OFFCURVE",
"436 780 CURVE SMOOTH",
"170 780 LINE",
"40 0 LINE"
);
},
{
closed = 1;
nodes = (
"212 375 LINE",
"386 375 LINE SMOOTH",
"509 375 OFFCURVE",
"552 324 OFFCURVE",
"537 236 CURVE SMOOTH",
"522 145 OFFCURVE",
"462 94 OFFCURVE",
"339 94 CURVE SMOOTH",
"165 94 LINE"
);
},
{
closed = 1;
nodes = (
"263 686 LINE",
"422 686 LINE SMOOTH",
"526 686 OFFCURVE",
"570 651 OFFCURVE",
"558 574 CURVE SMOOTH",
"545 497 OFFCURVE",
"489 462 OFFCURVE",
"385 462 CURVE SMOOTH",
"226 462 LINE"
);
}
);
};
guideLines = (
{
angle = 260.5377;
position = "{90, 300}";
},
{
angle = 260.5377;
position = "{508, 421}";
},
{
angle = 260.5377;
position = "{641, 300}";
},
{
angle = 260.5377;
position = "{200, 300}";
}
);
hints = (
{
horizontal = 1;
origin = "{0, 15}";
target = "{1, 8}";
type = Stem;
},
{
horizontal = 1;
origin = "{1, 0}";
target = "{2, 8}";
type = Stem;
},
{
horizontal = 1;
origin = "{0, 14}";
target = "{2, 0}";
type = Stem;
},
{
origin = "{0, 15}";
target = "{1, 8}";
type = Stem;
},
{
origin = "{1, 4}";
target = "{0, 3}";
type = Stem;
}
);
layerId = "53F1C36F-0CF6-4FBE-93F4-60C790418F6C";
paths = (
{
closed = 1;
nodes = (
"317 0 LINE SMOOTH",
"517 0 OFFCURVE",
"629 104 OFFCURVE",
"629 248 CURVE SMOOTH",
"629 337 OFFCURVE",
"586 391 OFFCURVE",
"506 409 CURVE",
"510 433 LINE",
"597 459 OFFCURVE",
"645 520 OFFCURVE",
"645 605 CURVE SMOOTH",
"645 714 OFFCURVE",
"566 780 OFFCURVE",
"411 780 CURVE SMOOTH",
"170 780 LINE",
"40 0 LINE"
);
},
{
closed = 1;
nodes = (
"212 375 LINE",
"370 375 LINE SMOOTH",
"471 375 OFFCURVE",
"517 328 OFFCURVE",
"517 247 CURVE SMOOTH",
"517 147 OFFCURVE",
"447 90 OFFCURVE",
"326 90 CURVE SMOOTH",
"165 90 LINE"
);
},
{
closed = 1;
nodes = (
"265 690 LINE",
"391 690 LINE SMOOTH",
"468 690 OFFCURVE",
"533 669 OFFCURVE",
"533 587 CURVE SMOOTH",
"533 479 OFFCURVE",
"422 462 OFFCURVE",
"370 462 CURVE SMOOTH",
"227 462 LINE"
);
}
);
width = 680;
},
{
guideLines = (
{
angle = 260.5377;
position = "{76, 300}";
},
{
angle = 260.5377;
position = "{240, 300}";
}
);
layerId = "7BD6BBF9-E6B2-4B80-818C-1AB8B5401D18";
paths = (
{
closed = 1;
nodes = (
"355 0 LINE SMOOTH",
"570 0 OFFCURVE",
"675 102 OFFCURVE",
"675 245 CURVE SMOOTH",
"675 342 OFFCURVE",
"626 388 OFFCURVE",
"552 409 CURVE",
"556 433 LINE",
"644 454 OFFCURVE",
"697 518 OFFCURVE",
"697 601 CURVE SMOOTH",
"697 701 OFFCURVE",
"628 780 OFFCURVE",
"462 780 CURVE SMOOTH",
"156 780 LINE",
"26 0 LINE"
);
},
{
closed = 1;
nodes = (
"248 348 LINE",
"376 348 LINE SMOOTH",
"466 348 OFFCURVE",
"508 312 OFFCURVE",
"508 245 CURVE SMOOTH",
"508 169 OFFCURVE",
"448 120 OFFCURVE",
"353 120 CURVE SMOOTH",
"210 120 LINE"
);
},
{
closed = 1;
nodes = (
"300 660 LINE",
"427 660 LINE SMOOTH",
"497 660 OFFCURVE",
"530 629 OFFCURVE",
"530 575 CURVE SMOOTH",
"530 511 OFFCURVE",
"485 466 OFFCURVE",
"394 466 CURVE SMOOTH",
"268 466 LINE"
);
}
);
width = 710;
}
);
leftKerningGroup = B;
rightKerningGroup = B;
unicode = 0042;
},
{
glyphname = C;
lastChange = "2021-11-29 10:31:47 +0000";
layers = (
{
anchors = (
{
name = bottom;
position = "{342, 0}";
},
{
name = top;
position = "{418, 780}";
}
);
background = {
guideLines = (
{
angle = 267.4552;
position = "{416, 750}";
},
{
angle = 84.2894;
position = "{335, 30}";
}
);
paths = (
{
closed = 1;
nodes = (
"500 -15 OFFCURVE",
"599 95 OFFCURVE",
"651 228 CURVE",
"554 266 LINE",
"519 162 OFFCURVE",
"449 75 OFFCURVE",
"339 75 CURVE SMOOTH",
"230 75 OFFCURVE",
"166 166 OFFCURVE",
"166 321 CURVE SMOOTH",
"166 468 OFFCURVE",
"224 705 OFFCURVE",
"414 705 CURVE SMOOTH",
"512 705 OFFCURVE",
"569 634 OFFCURVE",
"582 506 CURVE",
"689 523 LINE",
"673 697 OFFCURVE",
"578 795 OFFCURVE",
"418 795 CURVE SMOOTH",
"149 795 OFFCURVE",
"52 519 OFFCURVE",
"52 313 CURVE SMOOTH",
"52 101 OFFCURVE",
"155 -15 OFFCURVE",
"330 -15 CURVE SMOOTH"
);
}
);
};
guideLines = (
{
angle = 189.211;
position = "{640, 515}";
},
{
angle = -22.2035;
position = "{602, 246}";
},
{
angle = 4.0142;
position = "{109, 317}";
},
{
angle = 267.4552;
position = "{418, 750}";
},
{
angle = 84.2894;
position = "{340, 30}";
},
{
angle = 260.8238;
position = "{30, 300}";
}
);
layerId = "7BD6BBF9-E6B2-4B80-818C-1AB8B5401D18";
paths = (
{
closed = 1;
nodes = (
"518 -15 OFFCURVE",
"611 95 OFFCURVE",
"663 221 CURVE",
"518 280 LINE",
"484 188 OFFCURVE",
"435 111 OFFCURVE",
"348 111 CURVE SMOOTH",
"257 111 OFFCURVE",
"214 192 OFFCURVE",
"214 324 CURVE",
"214 460 OFFCURVE",
"271 669 OFFCURVE",
"415 669 CURVE SMOOTH",
"494 669 OFFCURVE",
"533 607 OFFCURVE",
"540 499 CURVE",
"701 525 LINE",
"685 697 OFFCURVE",
"589 795 OFFCURVE",
"420 795 CURVE SMOOTH",
"137 795 OFFCURVE",
"40 520 OFFCURVE",
"40 312 CURVE",
"40 100 OFFCURVE",
"149 -15 OFFCURVE",
"336 -15 CURVE SMOOTH"
);
}
);
userData = {
RMXScaler = {
height = 130;
width = 130;
};
};
width = 700;
},
{
anchors = (
{
name = bottom;
position = "{342, 0}";
},
{
name = top;
position = "{443, 780}";
}
);
background = {
paths = (
{
closed = 1;
nodes = (
"629 -15 OFFCURVE",
"730 253 OFFCURVE",
"730 460 CURVE SMOOTH",
"730 677 OFFCURVE",
"618 795 OFFCURVE",
"433 795 CURVE SMOOTH",
"154 795 OFFCURVE",
"53 528 OFFCURVE",
"53 321 CURVE SMOOTH",
"53 105 OFFCURVE",
"164 -15 OFFCURVE",
"350 -15 CURVE SMOOTH"
);
},
{
closed = 1;
nodes = (
"240 75 OFFCURVE",
"167 153 OFFCURVE",
"167 330 CURVE SMOOTH",
"167 500 OFFCURVE",
"234 705 OFFCURVE",
"424 705 CURVE SMOOTH",
"542 705 OFFCURVE",
"616 627 OFFCURVE",
"616 450 CURVE SMOOTH",
"616 280 OFFCURVE",
"548 75 OFFCURVE",
"358 75 CURVE SMOOTH"
);
}
);
};
guideLines = (
{
angle = 260.8238;
position = "{42, 300}";
},
{
angle = 189.211;
position = "{640, 515}";
},
{
angle = -22.2035;
position = "{602, 246}";
},
{
angle = 4.0142;
position = "{109, 317}";
}
);
hints = (
{
horizontal = 1;
place = "{-15, 88}";
type = Stem;
},
{
horizontal = 1;
place = "{615, 88}";
type = Stem;
},
{
place = "{37, 111}";
type = Stem;
},
{
horizontal = 1;
place = "{390, 21}";
target = up;
type = BottomGhost;
},
{
horizontal = 1;
place = "{210, -20}";
target = down;
type = TopGhost;
},
{
place = "{444, 106}";
type = Stem;
}
);
layerId = "53F1C36F-0CF6-4FBE-93F4-60C790418F6C";
paths = (
{
closed = 1;
nodes = (
"500 -15 OFFCURVE",
"599 95 OFFCURVE",
"651 228 CURVE",
"554 266 LINE",
"519 162 OFFCURVE",
"449 75 OFFCURVE",
"339 75 CURVE SMOOTH",
"230 75 OFFCURVE",
"166 166 OFFCURVE",
"166 321 CURVE SMOOTH",
"166 468 OFFCURVE",
"224 705 OFFCURVE",
"414 705 CURVE SMOOTH",
"512 705 OFFCURVE",
"569 634 OFFCURVE",
"582 506 CURVE",
"689 523 LINE",
"673 697 OFFCURVE",
"578 795 OFFCURVE",
"418 795 CURVE SMOOTH",
"149 795 OFFCURVE",
"52 519 OFFCURVE",
"52 313 CURVE SMOOTH",
"52 101 OFFCURVE",
"155 -15 OFFCURVE",
"330 -15 CURVE SMOOTH"
);
}
);
userData = {
RMXScaler = {
height = 130;
width = 130;
};
};
visible = 1;
width = 690;
}
);
leftKerningGroup = C;
rightKerningGroup = C;
unicode = 0043;
},
{
glyphname = D;
lastChange = "2021-11-29 10:31:47 +0000";
layers = (
{
anchors = (
{
name = bottom;
position = "{304, 0}";
},
{
name = center;
position = "{212, 420}";
},
{
name = top;
position = "{373, 780}";
}
);
guideLines = (
{
position = "{600, 420}";
},
{
angle = 260.5377;
position = "{90, 300}";
},
{
angle = 260.5377;
position = "{202, 300}";
}
);
hints = (
{
horizontal = 1;
origin = "{0, 8}";
target = "{1, 8}";
type = Stem;
},
{
horizontal = 1;
origin = "{0, 7}";
target = "{1, 0}";
type = Stem;
},
{
origin = "{0, 8}";
target = "{1, 8}";
type = Stem;
},
{
origin = "{1, 4}";
target = "{0, 3}";
type = Stem;
}
);
layerId = "53F1C36F-0CF6-4FBE-93F4-60C790418F6C";
paths = (
{
closed = 1;
nodes = (
"283 0 LINE SMOOTH",
"569 0 OFFCURVE",
"728 205 OFFCURVE",
"728 446 CURVE SMOOTH",
"728 660 OFFCURVE",
"603 780 OFFCURVE",
"376 780 CURVE SMOOTH",
"170 780 LINE",
"40 0 LINE"
);
},
{
closed = 1;
nodes = (
"266 686 LINE",
"358 686 LINE SMOOTH",
"520 686 OFFCURVE",
"613 615 OFFCURVE",
"613 437 CURVE SMOOTH",
"613 239 OFFCURVE",
"497 94 OFFCURVE",
"289 94 CURVE SMOOTH",
"168 94 LINE"
);
}
);
width = 750;
},
{
anchors = (
{
name = bottom;
position = "{303, 0}";
},
{
name = center;
position = "{233, 420}";
},
{
name = top;
position = "{385, 780}";
}
);
background = {
paths = (
{
closed = 1;
nodes = (
"298 0 LINE SMOOTH",
"615 0 OFFCURVE",
"754 202 OFFCURVE",
"754 455 CURVE SMOOTH",
"754 641 OFFCURVE",
"655 780 OFFCURVE",
"400 780 CURVE SMOOTH",
"152 780 LINE",
"26 0 LINE"
);
},
{
closed = 1;
nodes = (
"298 650 LINE",
"370 650 LINE SMOOTH",
"424 650 OFFCURVE",
"579 650 OFFCURVE",
"579 438 CURVE SMOOTH",
"579 250 OFFCURVE",
"487 130 OFFCURVE",
"310 130 CURVE SMOOTH",
"216 130 LINE"
);
}
);
};
layerId = "7BD6BBF9-E6B2-4B80-818C-1AB8B5401D18";
paths = (
{
closed = 1;
nodes = (
"332 0 LINE SMOOTH",
"666 0 OFFCURVE",
"750 270 OFFCURVE",
"750 457 CURVE SMOOTH",
"750 675 OFFCURVE",
"633 780 OFFCURVE",
"410 780 CURVE SMOOTH",
"156 780 LINE",
"26 0 LINE"
);
},
{
closed = 1;
nodes = (
"302 650 LINE",
"398 650 LINE SMOOTH",
"528 650 OFFCURVE",
"578 586 OFFCURVE",
"578 470 CURVE SMOOTH",
"578 362 OFFCURVE",
"533 130 OFFCURVE",
"321 130 CURVE SMOOTH",
"216 130 LINE"
);
}
);
width = 760;
}
);
leftKerningGroup = B;
rightKerningGroup = D;
unicode = 0044;
},
{
glyphname = E;
lastChange = "2021-09-02 10:56:02 +0000";
layers = (
{
anchors = (
{
name = bottom;
position = "{283, 0}";
},
{
name = ogonek;
position = "{526, 0}";
},
{
name = top;
position = "{408, 780}";
},
{
name = topleft;
position = "{97, 780}";
}
);
guideLines = (
{
angle = 260.5377;
position = "{90, 300}";
},
{
angle = 260.5377;
position = "{200, 300}";
},
{
angle = 260.5377;
position = "{576, 300}";
}
);
hints = (
{
horizontal = 1;
origin = "{0, 11}";
target = "{0, 2}";
type = Stem;
},
{
horizontal = 1;
origin = "{0, 3}";
target = "{0, 6}";
type = Stem;
},
{
horizontal = 1;
origin = "{0, 10}";
target = "{0, 7}";
type = Stem;
},
{
origin = "{0, 11}";
target = "{0, 2}";
type = Stem;
}
);
layerId = "53F1C36F-0CF6-4FBE-93F4-60C790418F6C";
paths = (
{
closed = 1;
nodes = (
"526 0 LINE",
"542 94 LINE",
"166 94 LINE",
"213 375 LINE",
"501 375 LINE",
"516 465 LINE",
"228 465 LINE",
"264 686 LINE",
"630 686 LINE",
"646 780 LINE",
"170 780 LINE",
"40 0 LINE"
);
}
);
width = 630;
},
{
anchors = (
{
name = bottom;
position = "{288, 0}";
},
{
name = ogonek;
position = "{548, 0}";
},
{
name = top;
position = "{410, 780}";
},
{
name = topleft;
position = "{96, 780}";
}
);
guideLines = (
{
angle = 260.5377;
position = "{76, 300}";
},
{
angle = 260.5377;
position = "{244, 300}";
},
{
angle = 260.5377;
position = "{598, 300}";
},
{
angle = 260.5377;
position = "{508, 300}";
}
);
layerId = "7BD6BBF9-E6B2-4B80-818C-1AB8B5401D18";
paths = (
{
closed = 1;
nodes = (
"548 0 LINE",
"570 132 LINE",
"214 132 LINE",
"251 354 LINE",
"517 354 LINE",
"537 476 LINE",
"271 476 LINE",
"300 648 LINE",
"650 648 LINE",
"672 780 LINE",
"156 780 LINE",
"26 0 LINE"
);
}
);
width = 640;
}
);
leftKerningGroup = B;
rightKerningGroup = E;
unicode = 0045;
},
{
glyphname = F;
lastChange = "2021-09-02 10:56:02 +0000";
layers = (
{
guideLines = (
{
angle = 260.5377;
position = "{90, 300}";
},
{
angle = 260.5377;
position = "{202, 300}";
},
{
angle = 260.5377;
position = "{570, 300}";
}
);
hints = (
{
horizontal = 1;
origin = "{0, 9}";
target = up;
type = BottomGhost;
},
{
horizontal = 1;
origin = "{0, 1}";
target = "{0, 4}";
type = Stem;
},
{
horizontal = 1;
origin = "{0, 8}";
target = "{0, 5}";
type = Stem;
},
{
origin = "{0, 9}";
target = "{0, 0}";
type = Stem;
}
);
layerId = "53F1C36F-0CF6-4FBE-93F4-60C790418F6C";
paths = (
{
closed = 1;
nodes = (
"152 0 LINE",
"214 371 LINE",
"510 371 LINE",
"525 461 LINE",
"229 461 LINE",
"266 686 LINE",
"634 686 LINE",
"650 780 LINE",
"170 780 LINE",
"40 0 LINE"
);
}
);
width = 600;
},
{
guideLines = (
{
angle = 260.5377;
position = "{76, 300}";
},
{
angle = 260.5377;
position = "{570, 300}";
},
{
angle = 260.5377;
position = "{244, 300}";
},
{
angle = 260.5377;
position = "{486, 300}";
}
);
layerId = "7BD6BBF9-E6B2-4B80-818C-1AB8B5401D18";
paths = (
{
closed = 1;
nodes = (
"194 0 LINE",
"252 349 LINE",
"494 349 LINE",
"515 471 LINE",
"272 471 LINE",
"302 648 LINE",
"628 648 LINE",
"650 780 LINE",
"156 780 LINE",
"26 0 LINE"
);
}
);
width = 600;
}
);
leftKerningGroup = B;
rightKerningGroup = F;
unicode = 0046;
},
{
glyphname = G;
lastChange = "2021-11-29 10:31:48 +0000";
layers = (
{
anchors = (
{
name = bottom;
position = "{335, 0}";
},
{
name = top;
position = "{464, 780}";
}
);
background = {
paths = (
{
closed = 1;
nodes = (
"654 -15 OFFCURVE",
"750 265 OFFCURVE",
"750 460 CURVE SMOOTH",
"750 686 OFFCURVE",
"621 795 OFFCURVE",
"434 795 CURVE SMOOTH",
"134 795 OFFCURVE",
"40 513 OFFCURVE",
"40 320 CURVE SMOOTH",
"40 94 OFFCURVE",
"170 -15 OFFCURVE",
"356 -15 CURVE SMOOTH"
);
},
{
closed = 1;
nodes = (
"263 111 OFFCURVE",
"212 183 OFFCURVE",
"212 305 CURVE SMOOTH",
"212 422 OFFCURVE",
"259 669 OFFCURVE",
"434 669 CURVE SMOOTH",
"528 669 OFFCURVE",
"578 597 OFFCURVE",
"578 475 CURVE SMOOTH",
"578 360 OFFCURVE",
"533 111 OFFCURVE",
"357 111 CURVE SMOOTH"
);
}
);
};
guideLines = (
{
angle = 80.8238;
position = "{702, 300}";
},
{
angle = 80.8238;
position = "{202, 325}";
},
{
angle = 80.8238;
position = "{30, 300}";
},
{
angle = 80.8238;
position = "{552, 300}";
},
{
angle = 180;
position = "{544, 90}";
},
{
angle = 194.1622;
position = "{667, 536}";
},
{
position = "{538, 407}";
},
{
position = "{443, 286}";
},
{
angle = 80.8238;
position = "{569, 300}";
}
);
layerId = "7BD6BBF9-E6B2-4B80-818C-1AB8B5401D18";
paths = (
{
closed = 1;
nodes = (
"420 -15 OFFCURVE",
"476 24 OFFCURVE",
"508 72 CURVE",
"532 72 LINE",
"520 0 LINE",
"653 0 LINE",
"719 407 LINE",
"356 407 LINE",
"335 286 LINE",
"550 286 LINE",
"534 181 OFFCURVE",
"468 111 OFFCURVE",
"373 111 CURVE SMOOTH",
"273 111 OFFCURVE",
"212 189 OFFCURVE",
"212 322 CURVE SMOOTH",
"212 431 OFFCURVE",
"253 669 OFFCURVE",
"437 669 CURVE SMOOTH",
"528 669 OFFCURVE",
"579 607 OFFCURVE",
"581 514 CURVE",
"740 554 LINE",
"729 688 OFFCURVE",
"646 795 OFFCURVE",
"453 795 CURVE SMOOTH",
"133 795 OFFCURVE",
"40 513 OFFCURVE",
"40 321 CURVE SMOOTH",
"40 94 OFFCURVE",
"170 -15 OFFCURVE",
"328 -15 CURVE SMOOTH"
);
}
);
width = 770;
},
{
anchors = (
{
name = bottom;
position = "{333, 0}";
},
{
name = top;
position = "{459, 780}";
}
);
background = {
paths = (
{
closed = 1;
nodes = (
"605 -15 OFFCURVE",
"728 213 OFFCURVE",
"728 478 CURVE",
"728 675 OFFCURVE",
"618 795 OFFCURVE",
"432 795 CURVE SMOOTH",
"175 795 OFFCURVE",
"52 566 OFFCURVE",
"52 303 CURVE",
"52 106 OFFCURVE",
"162 -15 OFFCURVE",
"349 -15 CURVE SMOOTH"
);
},
{
closed = 1;
nodes = (
"232 75 OFFCURVE",
"164 160 OFFCURVE",
"164 301 CURVE",
"164 500 OFFCURVE",
"242 705 OFFCURVE",
"428 705 CURVE SMOOTH",
"547 705 OFFCURVE",
"616 621 OFFCURVE",
"616 479 CURVE",
"616 282 OFFCURVE",
"539 75 OFFCURVE",
"351 75 CURVE SMOOTH"
);
}
);
};
guideLines = (
{
angle = 260.5377;
position = "{26, 300}";
},
{
angle = 260.5377;
position = "{140, 300}";
},
{
angle = 260.5377;
position = "{690, 300}";
},
{
angle = 260.5377;
position = "{588, 300}";
},
{
angle = 194.1622;
position = "{668, 536}";
},
{
angle = 260.5377;
position = "{600, 300}";
},
{
position = "{526, 382}";
},
{
angle = 180;
position = "{552, 84}";
}
);
hints = (
{
horizontal = 1;
place = "{-14, 88}";
type = Stem;
},
{
horizontal = 1;
place = "{294, 89}";
type = Stem;
},
{
horizontal = 1;
place = "{794, 90}";
type = Stem;
},
{
horizontal = 1;
place = "{0, 21}";
target = up;
type = BottomGhost;
},
{
place = "{48, 114}";
type = Stem;
},
{
place = "{585, 58}";
type = Stem;
}
);
layerId = "53F1C36F-0CF6-4FBE-93F4-60C790418F6C";
paths = (
{
closed = 1;
nodes = (
"432 -15 OFFCURVE",
"499 27 OFFCURVE",
"541 90 CURVE",
"565 90 LINE",
"550 0 LINE",
"640 0 LINE",
"704 382 LINE",
"344 382 LINE",
"329 292 LINE",
"587 292 LINE",
"563 156 OFFCURVE",
"474 73 OFFCURVE",
"360 73 CURVE SMOOTH",
"246 73 OFFCURVE",
"166 155 OFFCURVE",
"166 326 CURVE SMOOTH",
"166 486 OFFCURVE",
"236 705 OFFCURVE",
"432 705 CURVE SMOOTH",
"542 705 OFFCURVE",
"607 638 OFFCURVE",
"616 523 CURVE",
"724 550 LINE",
"713 700 OFFCURVE",
"605 795 OFFCURVE",
"440 795 CURVE SMOOTH",
"181 795 OFFCURVE",
"52 562 OFFCURVE",
"52 325 CURVE SMOOTH",
"52 112 OFFCURVE",
"158 -15 OFFCURVE",
"332 -15 CURVE SMOOTH"
);
}
);
width = 770;
}
);
leftKerningGroup = C;
rightKerningGroup = G;
unicode = 0047;
},
{
glyphname = H;
lastChange = "2021-09-02 10:56:02 +0000";
layers = (
{
anchors = (
{
name = bottom;
position = "{340, 0}";
},
{
name = center;
position = "{440, 600}";
},
{
name = top;
position = "{470, 780}";
},
{
name = topleft;
position = "{80, 780}";
}
);
guideLines = (
{
position = "{390, 300}";
},
{
angle = 260.5377;
position = "{690, 300}";
},
{
angle = 260.5377;
position = "{90, 300}";
}
);
hints = (
{
horizontal = 1;
origin = "{0, 11}";
target = up;
type = BottomGhost;
},
{
horizontal = 1;
place = "{467, 313}";
type = Stem;
},
{
horizontal = 1;
origin = "{0, 10}";
target = down;
type = TopGhost;
},
{
origin = "{0, 11}";
target = "{0, 0}";
type = Stem;
},
{
place = "{642, 16}";
type = Stem;
}
);
layerId = "53F1C36F-0CF6-4FBE-93F4-60C790418F6C";
paths = (
{
closed = 1;
nodes = (
"152 0 LINE",
"214 373 LINE",
"590 373 LINE",
"528 0 LINE",
"640 0 LINE",
"770 780 LINE",
"658 780 LINE",
"606 467 LINE",
"230 467 LINE",
"282 780 LINE",
"170 780 LINE",
"40 0 LINE"
);
}
);
width = 780;
},
{
anchors = (
{
name = bottom;
position = "{352, 0}";
},
{
name = center;
position = "{415, 390}";
},
{
name = top;
position = "{478, 780}";
},
{
name = topleft;
position = "{96, 780}";
}
);
background = {
paths = (
{
closed = 1;
nodes = (
"194 0 LINE",
"250 347 LINE",
"566 347 LINE",
"510 0 LINE",
"678 0 LINE",
"804 780 LINE",
"636 780 LINE",
"588 483 LINE",
"272 483 LINE",
"320 780 LINE",
"152 780 LINE",
"26 0 LINE"
);
}
);
};
guideLines = (
{
angle = 260.5377;
position = "{76, 300}";
},
{
angle = 260.5377;
position = "{724, 300}";
},
{
position = "{400, 300}";
}
);
layerId = "7BD6BBF9-E6B2-4B80-818C-1AB8B5401D18";
paths = (
{
closed = 1;
nodes = (
"194 0 LINE",
"252 347 LINE",
"564 347 LINE",
"506 0 LINE",
"674 0 LINE",
"804 780 LINE",
"636 780 LINE",
"587 483 LINE",
"275 483 LINE",
"324 780 LINE",
"156 780 LINE",
"26 0 LINE"
);
}
);
width = 800;
}
);
leftKerningGroup = B;
rightKerningGroup = H;
unicode = 0048;
},
{
glyphname = I;
lastChange = "2021-09-02 10:56:02 +0000";
layers = (
{
anchors = (
{
name = bottom;
position = "{100, 0}";
},
{
name = ogonek;
position = "{152, 0}";
},
{
name = top;
position = "{230, 780}";
},
{
name = topleft;
position = "{80, 780}";
}
);
guideLines = (
{
position = "{150, 300}";
},
{
angle = 260.5377;
position = "{94, 300}";
},
{
angle = 260.5377;
position = "{206, 300}";
}
);
hints = (
{
horizontal = 1;
origin = "{0, 3}";
target = up;
type = BottomGhost;
},
{
horizontal = 1;
origin = "{0, 2}";
target = down;
type = TopGhost;
},
{
origin = "{0, 3}";
target = "{0, 0}";
type = Stem;
}
);
layerId = "53F1C36F-0CF6-4FBE-93F4-60C790418F6C";
paths = (
{
closed = 1;
nodes = (
"156 0 LINE",
"286 780 LINE",
"174 780 LINE",
"44 0 LINE"
);
}
);
width = 300;
},
{
anchors = (
{
name = bottom;
position = "{110, 0}";
},
{
name = ogonek;
position = "{194, 0}";
},
{
name = top;
position = "{240, 780}";
},
{
name = topleft;
position = "{80, 780}";
}
);
guideLines = (
{
angle = 260.5377;
position = "{76, 300}";
},
{
angle = 260.5377;
position = "{244, 300}";
}
);
layerId = "7BD6BBF9-E6B2-4B80-818C-1AB8B5401D18";
paths = (
{
closed = 1;
nodes = (
"194 0 LINE",
"324 780 LINE",
"156 780 LINE",
"26 0 LINE"
);
}
);
width = 320;
}
);
leftKerningGroup = B;
rightKerningGroup = H;
unicode = 0049;
},
{
glyphname = J;
lastChange = "2021-09-02 10:56:02 +0000";
layers = (
{
anchors = (
{
name = bottom;
position = "{100, 0}";
},
{
name = top;
position = "{230, 780}";
}
);
guideLines = (
{
position = "{222, 780}";
},
{
angle = 260.5377;
position = "{94, 300}";
},
{
angle = 260.5377;
position = "{206, 300}";
}
);
hints = (
{
horizontal = 1;
origin = "{0, 5}";
target = down;
type = TopGhost;
},
{
origin = "{0, 6}";
target = "{0, 3}";
type = Stem;
},
{
horizontal = 1;
origin = "{0, 0}";
target = up;
type = BottomGhost;
}
);
layerId = "53F1C36F-0CF6-4FBE-93F4-60C790418F6C";
paths = (
{
closed = 1;
nodes = (
"59 -150 LINE",
"125 -66 OFFCURVE",
"154 -12 OFFCURVE",
"180 144 CURVE SMOOTH",
"286 780 LINE",
"174 780 LINE",
"70 156 LINE SMOOTH",
"43 -6 OFFCURVE",
"-1 -73 OFFCURVE",
"-65 -144 CURVE",
"-65 -150 LINE"
);
}
);
width = 300;
},
{
anchors = (
{
name = bottom;
position = "{110, 0}";
},
{
name = top;
position = "{240, 780}";
}
);
guideLines = (
{
angle = 260.5377;
position = "{76, 300}";
},
{
angle = 260.5377;
position = "{244, 300}";
},
{
angle = -6.8144;
position = "{46, 126}";
}
);
layerId = "7BD6BBF9-E6B2-4B80-818C-1AB8B5401D18";
paths = (
{
closed = 1;
nodes = (
"110 -150 LINE",
"158 -84 OFFCURVE",
"190 -24 OFFCURVE",
"212 106 CURVE SMOOTH",
"324 780 LINE",
"156 780 LINE",
"46 126 LINE SMOOTH",
"22 -14 OFFCURVE",
"-15 -73 OFFCURVE",
"-70 -144 CURVE",
"-70 -150 LINE"
);
}
);
width = 320;
}
);
leftKerningGroup = B;
rightKerningGroup = H;
unicode = 004A;
},
{
glyphname = K;
lastChange = "2021-09-02 10:56:02 +0000";
layers = (
{
anchors = (
{
name = bottom;
position = "{323, 60}";
},
{
name = top;
position = "{418, 780}";
}
);
guideLines = (
{
angle = 180;
position = "{229, 362}";
},
{
position = "{244, 462}";
},
{
angle = 260.5377;
position = "{90, 300}";
},
{
angle = 260.5377;
position = "{198, 300}";
}
);
hints = (
{
horizontal = 1;
origin = "{0, 14}";
target = up;
type = BottomGhost;
},
{
horizontal = 1;
origin = "{0, 1}";
target = "{0, 11}";
type = Stem;
},
{
horizontal = 1;
origin = "{0, 13}";
target = down;
type = TopGhost;
},
{
origin = "{0, 14}";
target = "{0, 0}";
type = Stem;
}
);
layerId = "53F1C36F-0CF6-4FBE-93F4-60C790418F6C";
paths = (
{
closed = 1;
nodes = (
"150 0 LINE",
"210 362 LINE",
"270 362 LINE",
"476 0 LINE",
"602 0 LINE",
"602 6 LINE",
"363 405 LINE",
"698 774 LINE",
"698 780 LINE",
"572 780 LINE",
"287 462 LINE",
"227 462 LINE",
"280 780 LINE",
"170 780 LINE",
"40 0 LINE"
);
}
);
width = 670;
},
{
anchors = (
{
name = bottom;
position = "{347, 60}";
},
{
name = top;
position = "{440, 780}";
}
);
guideLines = (
{
angle = 260.5377;
position = "{76, 300}";
},
{
angle = 260.5377;
position = "{646, 0}";
},
{
angle = 260.5377;
position = "{244, 300}";
},
{
angle = -63.1721;
position = "{398, 174}";
},
{
angle = -63.1721;
position = "{672, 6}";
},
{
angle = 232.0458;
position = "{754, 774}";
},
{
angle = 232.0458;
position = "{445, 630}";
}
);
layerId = "7BD6BBF9-E6B2-4B80-818C-1AB8B5401D18";
paths = (
{
closed = 1;
nodes = (
"190 0 LINE",
"248 348 LINE",
"308 348 LINE",
"476 0 LINE",
"662 0 LINE",
"662 6 LINE",
"456 409 LINE",
"744 774 LINE",
"744 780 LINE",
"552 780 LINE",
"326 480 LINE",
"270 480 LINE",
"320 780 LINE",
"156 780 LINE",
"26 0 LINE"
);
}
);
width = 730;
}
);
leftKerningGroup = B;
rightKerningGroup = K;
unicode = 004B;
},
{
glyphname = L;
lastChange = "2021-11-08 12:21:42 +0000";
layers = (
{
anchors = (
{
name = bottom;
position = "{270, 0}";
},
{
name = center;
position = "{365, 390}";
},
{
name = slash;
position = "{163, 390}";
},
{
name = top;
position = "{221, 780}";
},
{
name = topright;
position = "{277, 780}";
}
);
guideLines = (
{
angle = 260.5377;
position = "{90, 300}";
},
{
angle = 260.5377;
position = "{148, 300}";
},
{
position = "{365, 390}";
}
);
hints = (
{
horizontal = 1;
origin = "{0, 5}";
target = "{0, 2}";
type = Stem;
},
{
horizontal = 1;
origin = "{0, 4}";
target = down;
type = TopGhost;
},
{
origin = "{0, 5}";
target = "{0, 2}";
type = Stem;
}
);
layerId = "53F1C36F-0CF6-4FBE-93F4-60C790418F6C";
paths = (
{
closed = 1;
nodes = (
"500 0 LINE",
"515 92 LINE",
"167 92 LINE",
"282 780 LINE",
"170 780 LINE",
"40 0 LINE"
);
}
);
width = 580;
},
{
anchors = (
{
name = bottom;
position = "{267, 0}";
},
{
name = center;
position = "{434, 390}";
},
{
name = slash;
position = "{175, 390}";
},
{
name = top;
position = "{240, 780}";
},
{
name = topright;
position = "{324, 780}";
}
);
guideLines = (
{
angle = 260.5377;
position = "{76, 300}";
},
{
angle = 260.5377;
position = "{244, 300}";
},
{
position = "{153, 282}";
},
{
angle = 260.5377;
position = "{160, 300}";
}
);
layerId = "7BD6BBF9-E6B2-4B80-818C-1AB8B5401D18";
paths = (
{
closed = 1;
nodes = (
"500 0 LINE",
"522 132 LINE",
"216 132 LINE",
"324 780 LINE",
"156 780 LINE",
"26 0 LINE"
);
}
);
width = 580;
}
);
leftKerningGroup = B;
rightKerningGroup = L;
unicode = 004C;
},
{
glyphname = M;
lastChange = "2021-09-02 10:56:02 +0000";
layers = (
{
guideLines = (
{
position = "{565, 684}";
},
{
angle = 260.5377;
position = "{90, 300}";
},
{
angle = 260.5377;
position = "{920, 300}";
},
{
angle = 260.5377;
position = "{192, 300}";
},
{
angle = 260.5377;
position = "{808, 300}";
},
{
angle = 180;
position = "{454, 0}";
}
);
hints = (
{
horizontal = 1;
origin = "{0, 15}";
target = "{0, 12}";
type = Stem;
},
{
horizontal = 1;
origin = "{0, 14}";
target = "{0, 1}";
type = Stem;
},
{
origin = "{0, 15}";
target = "{0, 0}";
type = Stem;
},
{
origin = "{0, 7}";
target = "{0, 8}";
type = Stem;
}
);
layerId = "53F1C36F-0CF6-4FBE-93F4-60C790418F6C";
paths = (
{
closed = 1;
nodes = (
"142 0 LINE",
"256 684 LINE",
"280 684 LINE",
"360 0 LINE",
"540 0 LINE",
"848 684 LINE",
"872 684 LINE",
"758 0 LINE",
"870 0 LINE",
"1000 780 LINE",
"796 780 LINE",
"482 90 LINE",
"458 90 LINE",
"374 780 LINE",
"170 780 LINE",
"40 0 LINE"
);
}
);
width = 1010;
},
{
guideLines = (
{
angle = 260.5377;
position = "{974, 300}";
},
{
angle = 260.5377;
position = "{76, 300}";
},
{
angle = 260.5377;
position = "{228, 300}";
},
{
angle = 260.5377;
position = "{810, 300}";
}
);
layerId = "7BD6BBF9-E6B2-4B80-818C-1AB8B5401D18";
paths = (
{
closed = 1;
nodes = (
"178 0 LINE",
"285 642 LINE",
"309 642 LINE",
"332 0 LINE",
"606 0 LINE",
"843 642 LINE",
"867 642 LINE",
"760 0 LINE",
"924 0 LINE",
"1054 780 LINE",
"742 780 LINE",
"505 132 LINE",
"481 132 LINE",
"457 780 LINE",
"156 780 LINE",
"26 0 LINE"
);
}
);
width = 1050;
}
);
leftKerningGroup = B;
rightKerningGroup = H;
unicode = 004D;
},
{
glyphname = N;
lastChange = "2021-09-02 10:56:02 +0000";
layers = (
{
anchors = (
{
name = bottom;
position = "{352, 60}";
},
{
name = top;
position = "{478, 750}";
}
);
guideLines = (
{
position = "{390, 300}";
},
{
angle = 260.5377;
position = "{90, 300}";
},
{
angle = 260.5377;
position = "{710, 300}";
},
{
angle = 260.5377;
position = "{192, 300}";
},
{
angle = 260.5377;
position = "{608, 300}";
},
{
angle = -75.7883;
position = "{281, 691}";
},
{
angle = 104.2117;
position = "{374, 780}";
}
);
hints = (
{
horizontal = 1;
origin = "{0, 11}";
target = "{0, 8}";
type = Stem;
},
{
horizontal = 1;
origin = "{0, 10}";
target = "{0, 1}";
type = Stem;
},
{
origin = "{0, 11}";
target = "{0, 0}";
type = Stem;
},
{
origin = "{0, 7}";
target = "{0, 4}";
type = Stem;
}
);
layerId = "53F1C36F-0CF6-4FBE-93F4-60C790418F6C";
paths = (
{
closed = 1;
nodes = (
"142 0 LINE",
"257 691 LINE",
"281 691 LINE",
"456 0 LINE",
"660 0 LINE",
"790 780 LINE",
"688 780 LINE",
"573 89 LINE",
"549 89 LINE",
"374 780 LINE",
"170 780 LINE",
"40 0 LINE"
);
}
);
width = 800;
},
{
anchors = (
{
name = bottom;
position = "{372, 30}";
},
{
name = top;
position = "{500, 750}";
}
);
guideLines = (
{
angle = 260.5377;
position = "{76, 300}";
},
{
angle = 260.5377;
position = "{764, 300}";
},
{
angle = 260.5377;
position = "{228, 300}";
},
{
angle = 260.5377;
position = "{612, 300}";
},
{
position = "{572, 132}";
}
);
layerId = "7BD6BBF9-E6B2-4B80-818C-1AB8B5401D18";
paths = (
{
closed = 1;
nodes = (
"178 0 LINE",
"286 648 LINE",
"310 648 LINE",
"430 0 LINE",
"714 0 LINE",
"844 780 LINE",
"692 780 LINE",
"584 132 LINE",
"560 132 LINE",
"438 780 LINE",
"156 780 LINE",
"26 0 LINE"
);
}
);
width = 840;
}
);
leftKerningGroup = B;
rightKerningGroup = H;
unicode = 004E;
},
{
glyphname = Eng;
lastChange = "2021-11-29 10:31:48 +0000";
layers = (
{
anchors = (
{
name = bottom;
position = "{352, 0}";
},
{
name = top;
position = "{478, 780}";
}
);
background = {
paths = (
{
closed = 1;
nodes = (
"142 0 LINE",
"257 691 LINE",
"281 691 LINE",
"456 0 LINE",
"660 0 LINE",
"790 780 LINE",
"688 780 LINE",
"573 89 LINE",
"549 89 LINE",
"374 780 LINE",
"170 780 LINE",
"40 0 LINE"
);
}
);
};
guideLines = (
{
angle = 260.5377;
position = "{710, 300}";
},
{
position = "{565, 310}";
},
{
angle = 260.5511;
position = "{631, 435}";
}
);
hints = (
{
horizontal = 1;
place = "{0, 144}";
type = Stem;
},
{
horizontal = 1;
place = "{780, 89}";
type = Stem;
},
{
place = "{40, 102}";
type = Stem;
},
{
place = "{574, 186}";
type = Stem;
},
{
horizontal = 1;
origin = "{0, 10}";
target = "{0, 7}";
type = Stem;
},
{
horizontal = 1;
origin = "{0, 9}";
target = "{0, 12}";
type = Stem;
},
{
origin = "{0, 10}";
target = "{0, 11}";
type = Stem;
},
{
origin = "{0, 6}";
target = "{0, 15}";
type = Stem;
}
);
layerId = "53F1C36F-0CF6-4FBE-93F4-60C790418F6C";
paths = (
{
closed = 1;
nodes = (
"563 -150 LINE",
"629 -66 OFFCURVE",
"658 -12 OFFCURVE",
"684 144 CURVE SMOOTH",
"790 780 LINE",
"688 780 LINE",
"573 89 LINE",
"549 89 LINE",
"374 780 LINE",
"170 780 LINE",
"40 0 LINE",
"142 0 LINE",
"257 691 LINE",
"281 691 LINE",
"456 0 LINE",
"585 0 LINE",
"561 49 LINE",
"534 -39 OFFCURVE",
"498 -88 OFFCURVE",
"450 -141 CURVE",
"450 -150 LINE"
);
}
);
width = 800;
},
{
anchors = (
{
name = bottom;
position = "{372, 0}";
},
{
name = top;
position = "{498, 780}";
}
);
guideLines = (
{
angle = 260.5377;
position = "{638, 456}";
}
);
layerId = "7BD6BBF9-E6B2-4B80-818C-1AB8B5401D18";
paths = (
{
closed = 1;
nodes = (
"629 -150 LINE",
"677 -84 OFFCURVE",
"709 -24 OFFCURVE",
"731 106 CURVE SMOOTH",
"844 780 LINE",
"692 780 LINE",
"584 132 LINE",
"560 132 LINE",
"438 780 LINE",
"156 780 LINE",
"26 0 LINE",
"178 0 LINE",
"286 648 LINE",
"310 648 LINE",
"430 0 LINE",
"646 0 LINE",
"583 126 LINE",
"559 -14 OFFCURVE",
"522 -73 OFFCURVE",
"467 -144 CURVE",
"467 -150 LINE"
);
}
);
width = 840;
}
);
leftKerningGroup = B;
rightKerningGroup = H;
unicode = 014A;
},
{
glyphname = O;
lastChange = "2021-11-29 10:31:48 +0000";
layers = (
{
anchors = (
{
name = bottom;
position = "{325, 0}";
},
{
name = center;
position = "{390, 390}";
},
{
name = ogonek;
position = "{440, 0}";
},
{
name = top;
position = "{455, 780}";
},
{
name = topleft;
position = "{20, 780}";
},
{
name = topright;
position = "{742, 780}";
}
);
background = {
paths = (
{
closed = 1;
nodes = (
"588 -14 OFFCURVE",
"733 221 OFFCURVE",
"733 504 CURVE SMOOTH",
"733 684 OFFCURVE",
"645 794 OFFCURVE",
"457 794 CURVE SMOOTH",
"192 794 OFFCURVE",
"47 559 OFFCURVE",
"47 276 CURVE SMOOTH",
"47 96 OFFCURVE",
"135 -14 OFFCURVE",
"323 -14 CURVE SMOOTH"
);
},
{
closed = 1;
nodes = (
"217 76 OFFCURVE",
"161 151 OFFCURVE",
"161 283 CURVE SMOOTH",
"161 496 OFFCURVE",
"250 704 OFFCURVE",
"442 704 CURVE SMOOTH",
"562 704 OFFCURVE",
"619 629 OFFCURVE",
"619 496 CURVE SMOOTH",
"619 285 OFFCURVE",
"530 76 OFFCURVE",
"338 76 CURVE SMOOTH"
);
}
);
};
guideLines = (
{
angle = 260.5377;
position = "{42, 300}";
},
{
angle = 260.5377;
position = "{594, 300}";
},
{
angle = 260.5377;
position = "{156, 300}";
},
{
angle = 260.5377;
position = "{708, 300}";
},
{
angle = 178.977;
position = "{108, 302}";
},
{
angle = -0.5116;
position = "{672, 479}";
}
);
layerId = "53F1C36F-0CF6-4FBE-93F4-60C790418F6C";
paths = (
{
closed = 1;
nodes = (
"605 -15 OFFCURVE",
"728 213 OFFCURVE",
"728 478 CURVE",
"728 675 OFFCURVE",
"618 795 OFFCURVE",
"432 795 CURVE SMOOTH",
"175 795 OFFCURVE",
"52 566 OFFCURVE",
"52 303 CURVE",
"52 106 OFFCURVE",
"162 -15 OFFCURVE",
"349 -15 CURVE SMOOTH"
);
},
{
closed = 1;
nodes = (
"232 75 OFFCURVE",
"164 160 OFFCURVE",
"164 301 CURVE",
"164 500 OFFCURVE",
"242 705 OFFCURVE",
"428 705 CURVE SMOOTH",
"547 705 OFFCURVE",
"616 621 OFFCURVE",
"616 479 CURVE",
"616 282 OFFCURVE",
"539 75 OFFCURVE",
"351 75 CURVE SMOOTH"
);
}
);
width = 750;
},
{
anchors = (
{
name = bottom;
position = "{340, 0}";
},
{
name = center;
position = "{395, 390}";
},
{
name = ogonek;
position = "{450, 0}";
},
{
name = top;
position = "{450, 780}";
},
{
name = topleft;
position = "{110, 780}";
},
{
name = topright;
position = "{810, 780}";
}
);
background = {
paths = (
{
closed = 1;
nodes = (
"628 -14 OFFCURVE",
"755 252 OFFCURVE",
"755 500 CURVE SMOOTH",
"755 683 OFFCURVE",
"662 794 OFFCURVE",
"462 794 CURVE SMOOTH",
"163 794 OFFCURVE",
"35 528 OFFCURVE",
"35 281 CURVE SMOOTH",
"35 98 OFFCURVE",
"129 -14 OFFCURVE",
"328 -14 CURVE SMOOTH"
);
},
{
closed = 1;
nodes = (
"253 112 OFFCURVE",
"209 174 OFFCURVE",
"209 286 CURVE SMOOTH",
"209 413 OFFCURVE",
"256 668 OFFCURVE",
"441 668 CURVE SMOOTH",
"537 668 OFFCURVE",
"581 606 OFFCURVE",
"581 494 CURVE SMOOTH",
"581 367 OFFCURVE",
"534 112 OFFCURVE",
"349 112 CURVE SMOOTH"
);
}
);
};
guideLines = (
{
angle = 87.4831;
position = "{430, 750}";
},
{
angle = 268.7546;
position = "{350, 31}";
},
{
angle = 260.5377;
position = "{30, 300}";
},
{
angle = 260.5377;
position = "{730, 300}";
}
);
layerId = "7BD6BBF9-E6B2-4B80-818C-1AB8B5401D18";
paths = (
{
closed = 1;
nodes = (
"654 -15 OFFCURVE",
"750 265 OFFCURVE",
"750 460 CURVE SMOOTH",
"750 686 OFFCURVE",
"621 795 OFFCURVE",
"434 795 CURVE SMOOTH",
"134 795 OFFCURVE",
"40 513 OFFCURVE",
"40 320 CURVE SMOOTH",
"40 94 OFFCURVE",
"170 -15 OFFCURVE",
"356 -15 CURVE SMOOTH"
);
},
{
closed = 1;
nodes = (
"263 111 OFFCURVE",
"212 183 OFFCURVE",
"212 305 CURVE SMOOTH",
"212 422 OFFCURVE",
"259 669 OFFCURVE",
"434 669 CURVE SMOOTH",
"528 669 OFFCURVE",
"578 597 OFFCURVE",
"578 475 CURVE SMOOTH",
"578 360 OFFCURVE",
"533 111 OFFCURVE",
"357 111 CURVE SMOOTH"
);
}
);
width = 760;
}
);
leftKerningGroup = C;
rightKerningGroup = D;
unicode = 004F;
},
{
glyphname = Ohorn;
lastChange = "2021-09-02 10:56:02 +0000";
layers = (
{
anchors = (
{
name = bottom;
position = "{375, 0}";
},
{
name = center;
position = "{390, 390}";
},
{
name = ogonek;
position = "{675, 10}";
},
{
name = top;
position = "{455, 780}";
},
{
name = topleft;
position = "{20, 780}";
}
);
layerId = "53F1C36F-0CF6-4FBE-93F4-60C790418F6C";
paths = (
{
closed = 1;
nodes = (
"605 -15 OFFCURVE",
"728 213 OFFCURVE",
"728 478 CURVE SMOOTH",
"728 538.12 OFFCURVE",
"717.755 591.069 OFFCURVE",
"698.232 635.625 CURVE",
"794 656 OFFCURVE",
"841.501 740.09 OFFCURVE",
"858 840 CURVE",
"774 840 LINE",
"763 771 OFFCURVE",
"721 714 OFFCURVE",
"682 690 CURVE",
"658 690 LINE",
"602 760 OFFCURVE",
"527 795 OFFCURVE",
"432 795 CURVE SMOOTH",
"175 795 OFFCURVE",
"52 566 OFFCURVE",
"52 303 CURVE SMOOTH",
"52 106 OFFCURVE",
"162 -15 OFFCURVE",
"349 -15 CURVE SMOOTH"
);
},
{
closed = 1;
nodes = (
"232 75 OFFCURVE",
"164 160 OFFCURVE",
"164 301 CURVE SMOOTH",
"164 500 OFFCURVE",
"242 705 OFFCURVE",
"428 705 CURVE SMOOTH",
"547 705 OFFCURVE",
"616 621 OFFCURVE",
"616 479 CURVE SMOOTH",
"616 282 OFFCURVE",
"539 75 OFFCURVE",
"351 75 CURVE SMOOTH"
);
}
);
width = 750;
},
{
anchors = (
{
name = bottom;
position = "{340, 0}";
},
{
name = center;
position = "{395, 390}";
},
{
name = ogonek;
position = "{426, 0}";
},
{
name = top;
position = "{450, 780}";
},
{
name = topleft;
position = "{110, 780}";
}
);
layerId = "7BD6BBF9-E6B2-4B80-818C-1AB8B5401D18";
paths = (
{
closed = 1;
nodes = (
"654 -15 OFFCURVE",
"750 265 OFFCURVE",
"750 460 CURVE SMOOTH",
"750 528.196 OFFCURVE",
"738.534 584.926 OFFCURVE",
"716.938 632.194 CURVE",
"812 662 OFFCURVE",
"862 733 OFFCURVE",
"872 840 CURVE",
"751 840 LINE",
"741 786 OFFCURVE",
"712 745 OFFCURVE",
"676 720 CURVE",
"652 720 LINE",
"597 771 OFFCURVE",
"522 795 OFFCURVE",
"434 795 CURVE SMOOTH",
"134 795 OFFCURVE",
"40 513 OFFCURVE",
"40 320 CURVE SMOOTH",
"40 94 OFFCURVE",
"170 -15 OFFCURVE",
"356 -15 CURVE SMOOTH"
);
},
{
closed = 1;
nodes = (
"263 111 OFFCURVE",
"212 183 OFFCURVE",
"212 305 CURVE SMOOTH",
"212 422 OFFCURVE",
"259 669 OFFCURVE",
"434 669 CURVE SMOOTH",
"528 669 OFFCURVE",
"578 597 OFFCURVE",
"578 475 CURVE SMOOTH",
"578 360 OFFCURVE",
"533 111 OFFCURVE",
"357 111 CURVE SMOOTH"
);
}
);
width = 760;
}
);
leftKerningGroup = C;
rightKerningGroup = D;
unicode = 01A0;
},
{
glyphname = Oslash;
lastChange = "2021-09-02 10:56:02 +0000";
layers = (
{
anchors = (
{
name = _center;
position = "{390, 390}";
},
{
name = bottom;
position = "{325, 0}";
},
{
name = center;
position = "{390, 390}";
},
{
name = ogonek;
position = "{440, 0}";
},
{
name = top;
position = "{455, 780}";
},
{
name = topleft;
position = "{20, 780}";
},
{
name = topright;
position = "{742, 780}";
}
);
hints = (
{
horizontal = 1;
origin = "{0, 18}";
target = "{0, 18}";
type = Stem;
},
{
horizontal = 1;
origin = "{0, 6}";
target = "{0, 6}";
type = Stem;
},
{
origin = "{0, 18}";
target = "{0, 19}";
type = Stem;
},
{
origin = "{0, 7}";
target = "{0, 6}";
type = Stem;
}
);
layerId = "53F1C36F-0CF6-4FBE-93F4-60C790418F6C";
paths = (
{
closed = 1;
nodes = (
"605 -15 OFFCURVE",
"728 213 OFFCURVE",
"728 478 CURVE SMOOTH",
"728 542.968 OFFCURVE",
"716.037 599.561 OFFCURVE",
"693.329 646.238 CURVE",
"777 732 LINE",
"723 786 LINE",
"649.491 710.653 LINE",
"598.748 765.102 OFFCURVE",
"524.842 795 OFFCURVE",
"432 795 CURVE SMOOTH",
"175 795 OFFCURVE",
"52 566 OFFCURVE",
"52 303 CURVE SMOOTH",
"52 237.814 OFFCURVE",
"64.044 180.948 OFFCURVE",
"86.937 134.035 CURVE",
"3 48 LINE",
"57 -6 LINE",
"130.811 69.656 LINE",
"181.674 15.078 OFFCURVE",
"255.767 -15 OFFCURVE",
"349 -15 CURVE SMOOTH"
);
},
{
closed = 1;
nodes = (
"286 75 OFFCURVE",
"236 100 OFFCURVE",
"204 146 CURVE",
"530 480 LINE",
"556 506 OFFCURVE",
"577 532 OFFCURVE",
"595 558 CURVE",
"619 558 LINE",
"622 538 OFFCURVE",
"624 515 OFFCURVE",
"624 490 CURVE SMOOTH",
"624 325 OFFCURVE",
"553 75 OFFCURVE",
"351 75 CURVE SMOOTH"
);
},
{
closed = 1;
nodes = (
"157 242 OFFCURVE",
"155 265 OFFCURVE",
"155 290 CURVE SMOOTH",
"155 455 OFFCURVE",
"226 705 OFFCURVE",
"428 705 CURVE SMOOTH",
"492.889 705 OFFCURVE",
"542.912 680.024 OFFCURVE",
"574.986 634.286 CURVE",
"249 300 LINE",
"223 274 OFFCURVE",
"202 248 OFFCURVE",
"184 222 CURVE",
"160 222 LINE"
);
}
);
width = 750;
},
{
anchors = (
{
name = _center;
position = "{395, 390}";
},
{
name = bottom;
position = "{340, 0}";
},
{
name = center;
position = "{395, 390}";
},
{
name = ogonek;
position = "{450, 0}";
},
{
name = top;
position = "{450, 780}";
},
{
name = topleft;
position = "{110, 780}";
},
{
name = topright;
position = "{810, 780}";
}
);
guideLines = (
{
position = "{514, 442}";
},
{
position = "{277, 338}";
}
);
layerId = "7BD6BBF9-E6B2-4B80-818C-1AB8B5401D18";
paths = (
{
closed = 1;
nodes = (
"654 -15 OFFCURVE",
"750 265 OFFCURVE",
"750 460 CURVE SMOOTH",
"750 534 OFFCURVE",
"736 596 OFFCURVE",
"711 645 CURVE",
"789 725 LINE",
"721 793 LINE",
"652 722 LINE",
"597 771 OFFCURVE",
"522 795 OFFCURVE",
"434 795 CURVE SMOOTH",
"134 795 OFFCURVE",
"40 513 OFFCURVE",
"40 320 CURVE SMOOTH",
"40 246 OFFCURVE",
"54 184 OFFCURVE",
"79 135 CURVE",
"1 55 LINE",
"69 -13 LINE",
"138 58 LINE",
"193 9 OFFCURVE",
"269 -15 OFFCURVE",
"356 -15 CURVE SMOOTH"
);
},
{
closed = 1;
nodes = (
"308 111 OFFCURVE",
"270 131 OFFCURVE",
"246 168 CURVE",
"514 442 LINE SMOOTH",
"535 463 OFFCURVE",
"553 483 OFFCURVE",
"566 507 CURVE",
"590 507 LINE",
"590 499 OFFCURVE",
"590 490 OFFCURVE",
"590 480 CURVE SMOOTH",
"590 347 OFFCURVE",
"524 111 OFFCURVE",
"357 111 CURVE SMOOTH"
);
},
{
closed = 1;
nodes = (
"201 281 OFFCURVE",
"201 290 OFFCURVE",
"201 300 CURVE SMOOTH",
"201 432 OFFCURVE",
"267 669 OFFCURVE",
"434 669 CURVE SMOOTH",
"483 669 OFFCURVE",
"521 649 OFFCURVE",
"545 612 CURVE",
"277 338 LINE SMOOTH",
"256 317 OFFCURVE",
"238 297 OFFCURVE",
"225 273 CURVE",
"201 273 LINE"
);
}
);
width = 760;
}
);
leftKerningGroup = C;
rightKerningGroup = D;
unicode = 00D8;
},
{
glyphname = OE;
lastChange = "2021-11-29 10:31:48 +0000";
layers = (
{
anchors = (
{
name = bottom;
position = "{510, 0}";
},
{
name = top;
position = "{510, 780}";
}
);
guideLines = (
{
angle = 260.5377;
position = "{536, 300}";
}
);
hints = (
{
horizontal = 1;
place = "{0, 94}";
type = Stem;
},
{
horizontal = 1;
place = "{376, 91}";
type = Stem;
},
{
horizontal = 1;
place = "{780, 94}";
type = Stem;
},
{
place = "{47, 117}";
type = Stem;
},
{
place = "{473, 113}";
type = Stem;
},
{
horizontal = 1;
origin = "{0, 10}";
target = "{1, 6}";
type = Stem;
},
{
horizontal = 1;
origin = "{0, 16}";
target = "{1, 7}";
type = Stem;
},
{
origin = "{0, 7}";
target = "{1, 6}";
type = Stem;
},
{
origin = "{1, 2}";
target = "{0, 13}";
type = Stem;
},
{
horizontal = 1;
origin = "{0, 16}";
target = "{0, 2}";
type = Stem;
},
{
horizontal = 1;
origin = "{0, 3}";
target = "{0, 6}";
type = Stem;
},
{
horizontal = 1;
origin = "{0, 10}";
target = "{0, 7}";
type = Stem;
},
{
origin = "{1, 7}";
target = "{0, 2}";
type = Stem;
}
);
layerId = "53F1C36F-0CF6-4FBE-93F4-60C790418F6C";
paths = (
{
closed = 1;
nodes = (
"916 0 LINE",
"932 94 LINE",
"582 94 LINE",
"629 375 LINE",
"891 375 LINE",
"906 465 LINE",
"644 465 LINE",
"680 686 LINE",
"1020 686 LINE",
"1036 780 LINE",
"485 780 LINE SMOOTH",
"199 780 OFFCURVE",
"40 575 OFFCURVE",
"40 334 CURVE SMOOTH",
"40 120 OFFCURVE",
"165 0 OFFCURVE",
"392 0 CURVE SMOOTH"
);
},
{
closed = 1;
nodes = (
"248 94 OFFCURVE",
"155 165 OFFCURVE",
"155 343 CURVE SMOOTH",
"155 541 OFFCURVE",
"271 686 OFFCURVE",
"479 686 CURVE SMOOTH",
"570 686 LINE",
"472 94 LINE",
"410 94 LINE SMOOTH"
);
}
);
width = 1020;
},
{
anchors = (
{
name = bottom;
position = "{650, 0}";
},
{
name = top;
position = "{700, 780}";
}
);
layerId = "7BD6BBF9-E6B2-4B80-818C-1AB8B5401D18";
paths = (
{
closed = 1;
nodes = (
"958 0 LINE",
"980 130 LINE",
"652 130 LINE",
"689 354 LINE",
"927 354 LINE",
"947 476 LINE",
"709 476 LINE",
"738 650 LINE",
"1060 650 LINE",
"1082 780 LINE",
"464 780 LINE SMOOTH",
"130 780 OFFCURVE",
"40 510 OFFCURVE",
"40 323 CURVE SMOOTH",
"40 105 OFFCURVE",
"157 0 OFFCURVE",
"380 0 CURVE SMOOTH"
);
},
{
closed = 1;
nodes = (
"262 130 OFFCURVE",
"212 194 OFFCURVE",
"212 310 CURVE SMOOTH",
"212 418 OFFCURVE",
"257 650 OFFCURVE",
"469 650 CURVE SMOOTH",
"574 650 LINE",
"488 130 LINE",
"392 130 LINE SMOOTH"
);
}
);
width = 1050;
}
);
leftKerningGroup = C;
rightKerningGroup = E;
unicode = 0152;
},
{
glyphname = P;
lastChange = "2021-11-29 10:31:48 +0000";
layers = (
{
guideLines = (
{
angle = 260.5377;
position = "{624, 300}";
},
{
angle = 260.5377;
position = "{202, 300}";
},
{
angle = 260.5377;
position = "{90, 300}";
}
);
layerId = "53F1C36F-0CF6-4FBE-93F4-60C790418F6C";
paths = (
{
closed = 1;
nodes = (
"152 0 LINE",
"207 328 LINE",
"363 328 LINE SMOOTH",
"548 328 OFFCURVE",
"667 415 OFFCURVE",
"667 574 CURVE SMOOTH",
"667 703 OFFCURVE",
"588 780 OFFCURVE",
"414 780 CURVE SMOOTH",
"170 780 LINE",
"40 0 LINE"
);
},
{
closed = 1;
nodes = (
"267 690 LINE",
"399 690 LINE SMOOTH",
"510 690 OFFCURVE",
"551 647 OFFCURVE",
"551 570 CURVE SMOOTH",
"551 472 OFFCURVE",
"484 418 OFFCURVE",
"367 418 CURVE SMOOTH",
"222 418 LINE"
);
}
);
width = 660;
},
{
background = {
paths = (
{
closed = 1;
nodes = (
"192 0 LINE",
"244 311 LINE",
"374 311 LINE SMOOTH",
"574 311 OFFCURVE",
"705 416 OFFCURVE",
"705 595 CURVE SMOOTH",
"705 709 OFFCURVE",
"628 780 OFFCURVE",
"452 780 CURVE SMOOTH",
"156 780 LINE",
"26 0 LINE"
);
},
{
closed = 1;
nodes = (
"301 653 LINE",
"406 653 LINE SMOOTH",
"487 653 OFFCURVE",
"535 631 OFFCURVE",
"535 569 CURVE SMOOTH",
"535 478 OFFCURVE",
"473 436 OFFCURVE",
"370 436 CURVE SMOOTH",
"265 436 LINE"
);
}
);
};
guideLines = (
{
angle = 260.5377;
position = "{76, 300}";
}
);
layerId = "7BD6BBF9-E6B2-4B80-818C-1AB8B5401D18";
paths = (
{
closed = 1;
nodes = (
"194 0 LINE",
"246 311 LINE",
"415 311 LINE SMOOTH",
"594 311 OFFCURVE",
"700 415 OFFCURVE",
"700 560 CURVE SMOOTH",
"700 697 OFFCURVE",
"606 780 OFFCURVE",
"439 780 CURVE SMOOTH",
"156 780 LINE",
"26 0 LINE"
);
},
{
closed = 1;
nodes = (
"303 654 LINE",
"406 654 LINE SMOOTH",
"486 654 OFFCURVE",
"534 625 OFFCURVE",
"534 556 CURVE SMOOTH",
"534 489 OFFCURVE",
"489 437 OFFCURVE",
"395 437 CURVE SMOOTH",
"267 437 LINE"
);
}
);
width = 690;
}
);
leftKerningGroup = B;
rightKerningGroup = P;
unicode = 0050;
},
{
glyphname = Thorn;
lastChange = "2021-11-29 10:31:48 +0000";
layers = (
{
background = {
paths = (
{
closed = 1;
nodes = (
"152 0 LINE",
"178 161 LINE",
"343 161 LINE SMOOTH",
"539 161 OFFCURVE",
"660 268 OFFCURVE",
"660 445 CURVE SMOOTH",
"660 558 OFFCURVE",
"585 629 OFFCURVE",
"418 629 CURVE SMOOTH",
"253 629 LINE",
"277 780 LINE",
"165 780 LINE",
"40 0 LINE"
);
},
{
closed = 1;
nodes = (
"237 535 LINE",
"396 535 LINE SMOOTH",
"470 535 OFFCURVE",
"544 518 OFFCURVE",
"544 429 CURVE SMOOTH",
"544 312 OFFCURVE",
"477 253 OFFCURVE",
"351 253 CURVE SMOOTH",
"193 253 LINE"
);
}
);
};
guideLines = (
{
angle = 260.5377;
position = "{624, 300}";
},
{
angle = 260.5377;
position = "{202, 300}";
},
{
angle = 260.5377;
position = "{90, 300}";
},
{
position = "{320, 630}";
}
);
hints = (
{
horizontal = 1;
origin = "{0, 12}";
target = up;
type = BottomGhost;
},
{
horizontal = 1;
place = "{161, 17}";
type = Stem;
},
{
horizontal = 1;
origin = "{1, 4}";
target = "{0, 5}";
type = Stem;
},
{
horizontal = 1;
origin = "{0, 11}";
target = down;
type = TopGhost;
},
{
origin = "{0, 12}";
target = "{0, 0}";
type = Stem;
},
{
origin = "{1, 4}";
target = "{0, 5}";
type = Stem;
}
);
layerId = "53F1C36F-0CF6-4FBE-93F4-60C790418F6C";
paths = (
{
closed = 1;
nodes = (
"152 0 LINE",
"182 178 LINE",
"338 178 LINE SMOOTH",
"523 178 OFFCURVE",
"642 265 OFFCURVE",
"642 424 CURVE SMOOTH",
"642 553 OFFCURVE",
"563 630 OFFCURVE",
"389 630 CURVE SMOOTH",
"257 630 LINE",
"282 780 LINE",
"170 780 LINE",
"40 0 LINE"
);
},
{
closed = 1;
nodes = (
"242 540 LINE",
"374 540 LINE SMOOTH",
"485 540 OFFCURVE",
"526 497 OFFCURVE",
"526 420 CURVE SMOOTH",
"526 322 OFFCURVE",
"459 268 OFFCURVE",
"342 268 CURVE SMOOTH",
"197 268 LINE"
);
}
);
width = 660;
},
{
guideLines = (
{
angle = 260.5377;
position = "{76, 300}";
},
{
angle = 260.5377;
position = "{244, 300}";
}
);
layerId = "7BD6BBF9-E6B2-4B80-818C-1AB8B5401D18";
paths = (
{
closed = 1;
nodes = (
"194 0 LINE",
"221 161 LINE",
"390 161 LINE SMOOTH",
"569 161 OFFCURVE",
"675 265 OFFCURVE",
"675 410 CURVE SMOOTH",
"675 547 OFFCURVE",
"581 630 OFFCURVE",
"414 630 CURVE SMOOTH",
"299 630 LINE",
"324 780 LINE",
"156 780 LINE",
"26 0 LINE"
);
},
{
closed = 1;
nodes = (
"278 504 LINE",
"381 504 LINE SMOOTH",
"461 504 OFFCURVE",
"509 475 OFFCURVE",
"509 406 CURVE SMOOTH",
"509 339 OFFCURVE",
"464 287 OFFCURVE",
"370 287 CURVE SMOOTH",
"242 287 LINE"
);
}
);
width = 700;
}
);
leftKerningGroup = B;
leftMetricsKey = H;
rightKerningGroup = Thorn;
unicode = 00DE;
},
{
glyphname = Q;
lastChange = "2021-11-29 10:31:48 +0000";
layers = (
{
hints = (
{
horizontal = 1;
origin = "{0, 11}";
target = "{1, 11}";
type = Stem;
},
{
horizontal = 1;
origin = "{0, 5}";
target = "{1, 5}";
type = Stem;
},
{
origin = "{0, 8}";
target = "{1, 2}";
type = Stem;
},
{
origin = "{1, 8}";
target = "{0, 2}";
type = Stem;
},
{
horizontal = 1;
place = "{-200, 21}";
target = up;
type = BottomGhost;
}
);
layerId = "53F1C36F-0CF6-4FBE-93F4-60C790418F6C";
paths = (
{
closed = 1;
nodes = (
"605 -15 OFFCURVE",
"728 213 OFFCURVE",
"728 478 CURVE",
"728 675 OFFCURVE",
"618 795 OFFCURVE",
"432 795 CURVE SMOOTH",
"175 795 OFFCURVE",
"52 566 OFFCURVE",
"52 303 CURVE",
"52 106 OFFCURVE",
"162 -15 OFFCURVE",
"349 -15 CURVE SMOOTH"
);
},
{
closed = 1;
nodes = (
"232 77 OFFCURVE",
"164 160 OFFCURVE",
"164 301 CURVE",
"164 500 OFFCURVE",
"242 704 OFFCURVE",
"428 704 CURVE SMOOTH",
"547 704 OFFCURVE",
"616 621 OFFCURVE",
"616 479 CURVE",
"616 282 OFFCURVE",
"539 77 OFFCURVE",
"351 77 CURVE SMOOTH"
);
},
{
closed = 1;
nodes = (
"601 -150 LINE",
"601 -148 LINE",
"478 60 LINE",
"376 12 LINE",
"474 -150 LINE"
);
}
);
width = 770;
},
{
layerId = "7BD6BBF9-E6B2-4B80-818C-1AB8B5401D18";
paths = (
{
closed = 1;
nodes = (
"654 -15 OFFCURVE",
"750 265 OFFCURVE",
"750 460 CURVE",
"750 686 OFFCURVE",
"621 795 OFFCURVE",
"434 795 CURVE SMOOTH",
"134 795 OFFCURVE",
"40 513 OFFCURVE",
"40 320 CURVE",
"40 94 OFFCURVE",
"170 -15 OFFCURVE",
"356 -15 CURVE SMOOTH"
);
},
{
closed = 1;
nodes = (
"263 111 OFFCURVE",
"212 183 OFFCURVE",
"212 305 CURVE",
"212 422 OFFCURVE",
"259 669 OFFCURVE",
"434 669 CURVE SMOOTH",
"528 669 OFFCURVE",
"578 597 OFFCURVE",
"578 475 CURVE",
"578 360 OFFCURVE",
"533 111 OFFCURVE",
"357 111 CURVE SMOOTH"
);
},
{
closed = 1;
nodes = (
"614 -150 LINE",
"615 -148 LINE",
"498 49 LINE",
"303 49 LINE",
"426 -150 LINE"
);
}
);
width = 760;
}
);
leftKerningGroup = C;
rightKerningGroup = D;
unicode = 0051;
},
{
glyphname = R;
lastChange = "2021-11-29 10:31:48 +0000";
layers = (
{
anchors = (
{
name = bottom;
position = "{334, 60}";
},
{
name = top;
position = "{398, 780}";
}
);
guideLines = (
{
angle = 260.5377;
position = "{90, 300}";
},
{
angle = 260.5377;
position = "{630, 300}";
},
{
angle = 260.5377;
position = "{202, 300}";
}
);
hints = (
{
horizontal = 1;
origin = "{0, 14}";
target = up;
type = BottomGhost;
},
{
horizontal = 1;
origin = "{0, 1}";
target = "{1, 8}";
type = Stem;
},
{
horizontal = 1;
origin = "{0, 13}";
target = "{1, 0}";
type = Stem;
},
{
origin = "{0, 14}";
target = "{0, 0}";
type = Stem;
},
{
origin = "{1, 4}";
target = "{0, 9}";
type = Stem;
}
);
layerId = "53F1C36F-0CF6-4FBE-93F4-60C790418F6C";
paths = (
{
closed = 1;
nodes = (
"152 0 LINE",
"211 357 LINE",
"375 357 LINE",
"491 0 LINE",
"606 0 LINE",
"606 6 LINE",
"483 372 LINE",
"604 400 OFFCURVE",
"680 481 OFFCURVE",
"680 590 CURVE SMOOTH",
"680 693 OFFCURVE",
"613 780 OFFCURVE",
"446 780 CURVE SMOOTH",
"170 780 LINE",
"40 0 LINE"
);
},
{
closed = 1;
nodes = (
"267 690 LINE",
"422 690 LINE SMOOTH",
"508 690 OFFCURVE",
"564 660 OFFCURVE",
"564 577 CURVE SMOOTH",
"564 491 OFFCURVE",
"503 443 OFFCURVE",
"385 443 CURVE SMOOTH",
"226 443 LINE"
);
}
);
width = 680;
},
{
anchors = (
{
name = bottom;
position = "{352, 60}";
},
{
name = top;
position = "{409, 780}";
}
);
background = {
paths = (
{
closed = 1;
nodes = (
"192 0 LINE",
"245 330 LINE",
"380 330 LINE",
"479 0 LINE",
"655 0 LINE",
"655 2 LINE",
"542 354 LINE",
"651 388 OFFCURVE",
"718 465 OFFCURVE",
"718 577 CURVE SMOOTH",
"718 702 OFFCURVE",
"634 780 OFFCURVE",
"477 780 CURVE SMOOTH",
"151 780 LINE",
"26 0 LINE"
);
},
{
closed = 1;
nodes = (
"297 655 LINE",
"431 655 LINE SMOOTH",
"491 655 OFFCURVE",
"547 636 OFFCURVE",
"547 561 CURVE SMOOTH",
"547 451 OFFCURVE",
"429 451 OFFCURVE",
"399 451 CURVE SMOOTH",
"264 451 LINE"
);
}
);
};
guideLines = (
{
angle = 260.5377;
position = "{660, 300}";
},
{
angle = 260.5377;
position = "{494, 300}";
},
{
angle = 260.5377;
position = "{76, 300}";
},
{
angle = 260.5377;
position = "{244, 300}";
}
);
layerId = "7BD6BBF9-E6B2-4B80-818C-1AB8B5401D18";
paths = (
{
closed = 1;
nodes = (
"194 0 LINE",
"249 332 LINE",
"379.123 332 LINE",
"479 0 LINE",
"655 0 LINE",
"655 6 LINE",
"543.528 350.467 LINE",
"643.978 385.299 OFFCURVE",
"701 466.577 OFFCURVE",
"701 570 CURVE SMOOTH",
"701 701 OFFCURVE",
"610 780 OFFCURVE",
"448 780 CURVE SMOOTH",
"156 780 LINE",
"26 0 LINE"
);
},
{
closed = 1;
nodes = (
"301 654 LINE",
"415 654 LINE SMOOTH",
"490 654 OFFCURVE",
"535 627 OFFCURVE",
"535 563 CURVE SMOOTH",
"535 500 OFFCURVE",
"493 452 OFFCURVE",
"405 452 CURVE SMOOTH",
"267 452 LINE"
);
}
);
width = 710;
}
);
leftKerningGroup = B;
rightKerningGroup = R;
unicode = 0052;
},
{
glyphname = S;
lastChange = "2021-11-29 10:31:48 +0000";
layers = (
{
anchors = (
{
name = bottom;
position = "{310, 0}";
},
{
name = top;
position = "{405, 780}";
}
);
background = {
paths = (
{
closed = 1;
nodes = (
"477 -15 OFFCURVE",
"584 89 OFFCURVE",
"584 223 CURVE SMOOTH",
"584 466 OFFCURVE",
"230 419 OFFCURVE",
"230 590 CURVE SMOOTH",
"230 652 OFFCURVE",
"276 705 OFFCURVE",
"361 705 CURVE SMOOTH",
"452 705 OFFCURVE",
"504 643 OFFCURVE",
"504 556 CURVE",
"606 586 LINE",
"602 711 OFFCURVE",
"511 795 OFFCURVE",
"370 795 CURVE SMOOTH",
"219 795 OFFCURVE",
"124 698 OFFCURVE",
"124 575 CURVE SMOOTH",
"124 339 OFFCURVE",
"476 380 OFFCURVE",
"476 204 CURVE SMOOTH",
"476 131 OFFCURVE",
"415 75 OFFCURVE",
"319 75 CURVE SMOOTH",
"205 75 OFFCURVE",
"130 153 OFFCURVE",
"130 260 CURVE",
"28 234 LINE",
"28 82 OFFCURVE",
"146 -15 OFFCURVE",
"309 -15 CURVE SMOOTH"
);
}
);
};
guideLines = (
{
angle = 196.2602;
position = "{566, 574}";
},
{
angle = 13.4957;
position = "{86, 248}";
},
{
angle = 156.1112;
position = "{407, 434}";
},
{
angle = 66.1112;
position = "{354, 401}";
},
{
angle = 156.1112;
position = "{300, 367}";
},
{
angle = 32.296;
position = "{354, 401}";
},
{
angle = 66.1112;
position = "{304, 401}";
},
{
angle = 66.1112;
position = "{364, 401}";
},
{
angle = 260.5377;
position = "{558, 300}";
}
);
layerId = "53F1C36F-0CF6-4FBE-93F4-60C790418F6C";
paths = (
{
closed = 1;
nodes = (
"477 -15 OFFCURVE",
"584 89 OFFCURVE",
"584 223 CURVE SMOOTH",
"584 357 OFFCURVE",
"475 402 OFFCURVE",
"383 444 CURVE SMOOTH",
"333 467 LINE SMOOTH",
"276 493 OFFCURVE",
"230 529 OFFCURVE",
"230 590 CURVE SMOOTH",
"230 652 OFFCURVE",
"276 705 OFFCURVE",
"361 705 CURVE SMOOTH",
"452 705 OFFCURVE",
"504 643 OFFCURVE",
"504 556 CURVE",
"606 586 LINE",
"602 711 OFFCURVE",
"511 795 OFFCURVE",
"370 795 CURVE SMOOTH",
"219 795 OFFCURVE",
"124 698 OFFCURVE",
"124 575 CURVE SMOOTH",
"124 461 OFFCURVE",
"206 410 OFFCURVE",
"291 371 CURVE SMOOTH",
"341 348 LINE SMOOTH",
"409 317 OFFCURVE",
"476 280 OFFCURVE",
"476 204 CURVE SMOOTH",
"476 131 OFFCURVE",
"415 75 OFFCURVE",
"319 75 CURVE SMOOTH",
"205 75 OFFCURVE",
"130 153 OFFCURVE",
"130 260 CURVE",
"28 234 LINE",
"28 82 OFFCURVE",
"146 -15 OFFCURVE",
"309 -15 CURVE SMOOTH"
);
}
);
width = 640;
},
{
anchors = (
{
name = bottom;
position = "{304, 0}";
},
{
name = top;
position = "{394, 780}";
}
);
background = {
paths = (
{
closed = 1;
nodes = (
"490 -15 OFFCURVE",
"608 94 OFFCURVE",
"608 235 CURVE SMOOTH",
"608 375 OFFCURVE",
"492 422 OFFCURVE",
"390 469 CURVE SMOOTH",
"336 494 LINE SMOOTH",
"294 513 OFFCURVE",
"259 540 OFFCURVE",
"259 586 CURVE SMOOTH",
"259 634 OFFCURVE",
"294 671 OFFCURVE",
"357 671 CURVE SMOOTH",
"426 671 OFFCURVE",
"465 627 OFFCURVE",
"465 545 CURVE",
"606 586 LINE",
"601 712 OFFCURVE",
"513 795 OFFCURVE",
"367 795 CURVE SMOOTH",
"206 795 OFFCURVE",
"100 693 OFFCURVE",
"100 563 CURVE SMOOTH",
"100 434 OFFCURVE",
"203 383 OFFCURVE",
"283 346 CURVE SMOOTH",
"343 318 LINE SMOOTH",
"388 297 OFFCURVE",
"446 271 OFFCURVE",
"446 210 CURVE SMOOTH",
"446 154 OFFCURVE",
"397 111 OFFCURVE",
"321 111 CURVE SMOOTH",
"229 111 OFFCURVE",
"169 172 OFFCURVE",
"169 270 CURVE",
"28 234 LINE",
"28 82 OFFCURVE",
"145 -15 OFFCURVE",
"312 -15 CURVE SMOOTH"
);
}
);
};
guideLines = (
{
angle = 14.3003;
position = "{79, 247}";
},
{
angle = 196.3895;
position = "{555, 571}";
},
{
angle = 155.2976;
position = "{306, 335}";
},
{
angle = -24.7024;
position = "{369, 479}";
},
{
angle = 90;
position = "{446, 199}";
},
{
angle = 90;
position = "{608, 228}";
},
{
angle = 90;
position = "{259, 598}";
},
{
angle = 90;
position = "{100, 575}";
},
{
angle = 90;
position = "{16, 146}";
},
{
angle = 270;
position = "{169, 219}";
},
{
angle = 90;
position = "{465, 541}";
},
{
angle = 90;
position = "{618, 586}";
},
{
position = "{361, 669}";
},
{
position = "{319, 111}";
},
{
angle = 260.5377;
position = "{616, 300}";
}
);
layerId = "7BD6BBF9-E6B2-4B80-818C-1AB8B5401D18";
paths = (
{
closed = 1;
nodes = (
"484 -15 OFFCURVE",
"602 94 OFFCURVE",
"602 236 CURVE SMOOTH",
"602 374 OFFCURVE",
"492 422 OFFCURVE",
"390 469 CURVE SMOOTH",
"336 494 LINE SMOOTH",
"294 513 OFFCURVE",
"262 541 OFFCURVE",
"262 585 CURVE SMOOTH",
"262 634 OFFCURVE",
"300 671 OFFCURVE",
"363 671 CURVE SMOOTH",
"431 671 OFFCURVE",
"471 628 OFFCURVE",
"471 547 CURVE",
"612 588 LINE",
"607 712 OFFCURVE",
"519 795 OFFCURVE",
"373 795 CURVE SMOOTH",
"212 795 OFFCURVE",
"106 693 OFFCURVE",
"106 561 CURVE SMOOTH",
"106 435 OFFCURVE",
"203 383 OFFCURVE",
"283 346 CURVE SMOOTH",
"343 318 LINE SMOOTH",
"388 297 OFFCURVE",
"440 271 OFFCURVE",
"440 210 CURVE SMOOTH",
"440 154 OFFCURVE",
"391 111 OFFCURVE",
"315 111 CURVE SMOOTH",
"223 111 OFFCURVE",
"166 172 OFFCURVE",
"166 268 CURVE",
"22 232 LINE",
"22 82 OFFCURVE",
"139 -15 OFFCURVE",
"306 -15 CURVE SMOOTH"
);
}
);
width = 660;
}
);
leftKerningGroup = S;
rightKerningGroup = S;
unicode = 0053;
},
{
glyphname = Germandbls;
lastChange = "2021-09-02 10:56:02 +0000";
layers = (
{
background = {
paths = (
{
closed = 1;
nodes = (
"632 -15 OFFCURVE",
"663 224 OFFCURVE",
"679 318 CURVE SMOOTH",
"756 780 LINE",
"646 780 LINE",
"570 321 LINE SMOOTH",
"556 238 OFFCURVE",
"535 75 OFFCURVE",
"357 75 CURVE SMOOTH",
"239 75 OFFCURVE",
"172 144 OFFCURVE",
"200 312 CURVE SMOOTH",
"278 780 LINE",
"164 780 LINE",
"88 325 LINE SMOOTH",
"51 105 OFFCURVE",
"147 -15 OFFCURVE",
"349 -15 CURVE SMOOTH"
);
},
{
closed = 1;
nodes = (
"714 -13 OFFCURVE",
"821 91 OFFCURVE",
"821 225 CURVE SMOOTH",
"821 359 OFFCURVE",
"712 405 OFFCURVE",
"620 446 CURVE SMOOTH",
"570 469 LINE",
"513 495 OFFCURVE",
"467 531 OFFCURVE",
"467 592 CURVE SMOOTH",
"467 654 OFFCURVE",
"513 707 OFFCURVE",
"598 707 CURVE SMOOTH",
"689 707 OFFCURVE",
"741 645 OFFCURVE",
"741 558 CURVE",
"843 588 LINE",
"839 713 OFFCURVE",
"748 797 OFFCURVE",
"607 797 CURVE SMOOTH",
"456 797 OFFCURVE",
"361 700 OFFCURVE",
"361 577 CURVE SMOOTH",
"361 463 OFFCURVE",
"443 412 OFFCURVE",
"528 373 CURVE SMOOTH",
"578 350 LINE SMOOTH",
"646 320 OFFCURVE",
"713 282 OFFCURVE",
"713 206 CURVE SMOOTH",
"713 133 OFFCURVE",
"652 77 OFFCURVE",
"556 77 CURVE SMOOTH",
"442 77 OFFCURVE",
"367 155 OFFCURVE",
"367 262 CURVE",
"265 236 LINE",
"265 84 OFFCURVE",
"383 -13 OFFCURVE",
"546 -13 CURVE SMOOTH"
);
}
);
};
guideLines = (
{
angle = 260.5377;
position = "{84, 300}";
},
{
angle = 220.6013;
position = "{710, 645}";
},
{
angle = 260.5377;
position = "{497, 462}";
},
{
angle = 40.8949;
position = "{831, 636}";
},
{
angle = 260.5377;
position = "{812, 630}";
},
{
angle = -2.7263;
position = "{824, 630}";
},
{
angle = -2.7263;
position = "{553, 453}";
}
);
layerId = "53F1C36F-0CF6-4FBE-93F4-60C790418F6C";
paths = (
{
closed = 1;
nodes = (
"712 -13 OFFCURVE",
"821 97 OFFCURVE",
"821 225 CURVE SMOOTH",
"821 332 OFFCURVE",
"746 409 OFFCURVE",
"613 426 CURVE",
"616 450 LINE",
"810 618 LINE",
"824 704 LINE",
"739 765 OFFCURVE",
"641 794 OFFCURVE",
"525 794 CURVE SMOOTH",
"212 794 OFFCURVE",
"134 595 OFFCURVE",
"108 441 CURVE SMOOTH",
"34 0 LINE",
"146 0 LINE",
"219 438 LINE SMOOTH",
"243 582 OFFCURVE",
"323 708 OFFCURVE",
"520 708 CURVE SMOOTH",
"601 708 OFFCURVE",
"661 687 OFFCURVE",
"702 659 CURVE",
"698 636 LINE",
"490 456 LINE",
"477 378 LINE",
"505 376 LINE SMOOTH",
"636 367 OFFCURVE",
"713 303 OFFCURVE",
"713 220 CURVE SMOOTH",
"713 144 OFFCURVE",
"653 77 OFFCURVE",
"551 77 CURVE SMOOTH",
"447 77 OFFCURVE",
"381 146 OFFCURVE",
"371 240 CURVE",
"269 214 LINE",
"277 79 OFFCURVE",
"387 -13 OFFCURVE",
"542 -13 CURVE SMOOTH"
);
}
);
width = 880;
},
{
guideLines = (
{
angle = 178.4518;
position = "{164, 440}";
},
{
angle = 260.5377;
position = "{72, 300}";
},
{
angle = 260.7539;
position = "{847, 661}";
}
);
layerId = "7BD6BBF9-E6B2-4B80-818C-1AB8B5401D18";
paths = (
{
closed = 1;
nodes = (
"733 -15 OFFCURVE",
"851 95 OFFCURVE",
"851 234 CURVE SMOOTH",
"851 354 OFFCURVE",
"763 417 OFFCURVE",
"661 438 CURVE",
"664 462 LINE",
"837 600 LINE",
"855 710 LINE",
"768 762 OFFCURVE",
"663 794 OFFCURVE",
"532 794 CURVE SMOOTH",
"282 794 OFFCURVE",
"136 679 OFFCURVE",
"94 432 CURVE SMOOTH",
"20 0 LINE",
"186 0 LINE",
"257 427 LINE SMOOTH",
"283 586 OFFCURVE",
"378 668 OFFCURVE",
"526 668 CURVE SMOOTH",
"577 668 OFFCURVE",
"620 659 OFFCURVE",
"659 644 CURVE",
"655 621 LINE",
"481 472 LINE",
"464 368 LINE",
"496 366 LINE SMOOTH",
"623 358 OFFCURVE",
"689 305 OFFCURVE",
"689 224 CURVE SMOOTH",
"689 155 OFFCURVE",
"640 111 OFFCURVE",
"564 111 CURVE SMOOTH",
"472 111 OFFCURVE",
"415 172 OFFCURVE",
"415 268 CURVE",
"271 232 LINE",
"271 82 OFFCURVE",
"388 -15 OFFCURVE",
"555 -15 CURVE SMOOTH"
);
}
);
width = 910;
}
);
leftKerningGroup = Germandbls;
rightKerningGroup = Germandbls;
unicode = 1E9E;
},
{
glyphname = Schwa;
lastChange = "2021-09-03 09:32:03 +0000";
layers = (
{
anchors = (
{
name = bottom;
position = "{287, 0}";
},
{
name = top;
position = "{388, 780}";
}
);
background = {
paths = (
{
closed = 1;
nodes = (
"230 795 OFFCURVE",
"131 685 OFFCURVE",
"79 552 CURVE",
"176 514 LINE",
"211 618 OFFCURVE",
"281 705 OFFCURVE",
"391 705 CURVE SMOOTH",
"500 705 OFFCURVE",
"564 614 OFFCURVE",
"564 459 CURVE SMOOTH",
"564 312 OFFCURVE",
"506 75 OFFCURVE",
"316 75 CURVE SMOOTH",
"218 75 OFFCURVE",
"161 146 OFFCURVE",
"148 274 CURVE",
"41 257 LINE",
"57 83 OFFCURVE",
"152 -15 OFFCURVE",
"312 -15 CURVE SMOOTH",
"581 -15 OFFCURVE",
"678 261 OFFCURVE",
"678 467 CURVE SMOOTH",
"678 679 OFFCURVE",
"575 795 OFFCURVE",
"400 795 CURVE SMOOTH"
);
},
{
closed = 1;
nodes = (
"606 382 LINE",
"54 382 LINE",
"39 292 LINE",
"579 292 LINE"
);
}
);
};
guideLines = (
{
position = "{566, 412}";
},
{
angle = 260.5377;
position = "{40, 300}";
},
{
angle = 260.5377;
position = "{152, 300}";
},
{
angle = 162.5042;
position = "{163, 550}";
}
);
hints = (
{
horizontal = 1;
place = "{795, -88}";
type = Stem;
},
{
horizontal = 1;
place = "{165, -88}";
type = Stem;
},
{
place = "{653, -111}";
type = Stem;
},
{
horizontal = 1;
place = "{390, 21}";
target = up;
type = BottomGhost;
},
{
horizontal = 1;
place = "{570, 21}";
target = up;
type = BottomGhost;
},
{
place = "{246, -106}";
type = Stem;
}
);
layerId = "53F1C36F-0CF6-4FBE-93F4-60C790418F6C";
paths = (
{
closed = 1;
nodes = (
"581 -15 OFFCURVE",
"678 261 OFFCURVE",
"678 467 CURVE SMOOTH",
"678 679 OFFCURVE",
"575 795 OFFCURVE",
"400 795 CURVE SMOOTH",
"239 795 OFFCURVE",
"142 697 OFFCURVE",
"88 574 CURVE",
"187 543 LINE",
"224 633 OFFCURVE",
"291 705 OFFCURVE",
"391 705 CURVE SMOOTH",
"500 705 OFFCURVE",
"564 614 OFFCURVE",
"564 459 CURVE SMOOTH",
"564 447 LINE SMOOTH",
"564 300 OFFCURVE",
"506 75 OFFCURVE",
"316 75 CURVE SMOOTH",
"223 75 OFFCURVE",
"135 139 OFFCURVE",
"162 355 CURVE",
"107 326 LINE",
"588 326 LINE",
"615 412 LINE",
"60 412 LINE",
"49 361 OFFCURVE",
"44 313 OFFCURVE",
"44 272 CURVE SMOOTH",
"44 58 OFFCURVE",
"174 -15 OFFCURVE",
"312 -15 CURVE SMOOTH"
);
}
);
width = 700;
},
{
anchors = (
{
name = bottom;
position = "{342, 0}";
},
{
name = top;
position = "{419, 780}";
}
);
background = {
paths = (
{
closed = 1;
nodes = (
"624 -15 OFFCURVE",
"720 265 OFFCURVE",
"720 460 CURVE SMOOTH",
"720 686 OFFCURVE",
"591 795 OFFCURVE",
"404 795 CURVE SMOOTH",
"104 795 OFFCURVE",
"10 513 OFFCURVE",
"10 320 CURVE SMOOTH",
"10 94 OFFCURVE",
"140 -15 OFFCURVE",
"326 -15 CURVE SMOOTH"
);
},
{
closed = 1;
nodes = (
"233 111 OFFCURVE",
"182 183 OFFCURVE",
"182 305 CURVE SMOOTH",
"182 422 OFFCURVE",
"229 669 OFFCURVE",
"404 669 CURVE SMOOTH",
"498 669 OFFCURVE",
"548 597 OFFCURVE",
"548 475 CURVE SMOOTH",
"548 360 OFFCURVE",
"503 111 OFFCURVE",
"327 111 CURVE SMOOTH"
);
}
);
};
guideLines = (
{
position = "{568, 407}";
},
{
position = "{473, 286}";
},
{
angle = 162.5042;
position = "{239, 525}";
}
);
layerId = "7BD6BBF9-E6B2-4B80-818C-1AB8B5401D18";
paths = (
{
closed = 1;
nodes = (
"618 -15 OFFCURVE",
"720 244 OFFCURVE",
"720 451 CURVE SMOOTH",
"720 664 OFFCURVE",
"608 795 OFFCURVE",
"416 795 CURVE SMOOTH",
"236 795 OFFCURVE",
"140 693 OFFCURVE",
"86 573 CURVE",
"236 526 LINE",
"271 606 OFFCURVE",
"322 669 OFFCURVE",
"409 669 CURVE SMOOTH",
"504 669 OFFCURVE",
"556 590 OFFCURVE",
"556 445 CURVE SMOOTH",
"556 433 LINE SMOOTH",
"556 272 OFFCURVE",
"488 111 OFFCURVE",
"349 111 CURVE SMOOTH",
"262 111 OFFCURVE",
"161 176 OFFCURVE",
"211 375 CURVE",
"122 320 LINE",
"588 320 LINE",
"615 437 LINE",
"60 437 LINE",
"49 382 OFFCURVE",
"44 333 OFFCURVE",
"44 292 CURVE SMOOTH",
"44 63 OFFCURVE",
"186 -15 OFFCURVE",
"336 -15 CURVE SMOOTH"
);
}
);
width = 730;
}
);
leftKerningGroup = C;
rightKerningGroup = D;
unicode = 018F;
},
{
glyphname = T;
lastChange = "2021-09-03 09:42:55 +0000";
layers = (
{
anchors = (
{
name = bottom;
position = "{285, 0}";
},
{
name = center;
position = "{355, 420}";
},
{
name = top;
position = "{415, 780}";
}
);
hints = (
{
horizontal = 1;
place = "{0, 21}";
target = up;
type = BottomGhost;
},
{
horizontal = 1;
origin = "{0, 4}";
target = "{0, 7}";
type = Stem;
},
{
place = "{233, 112}";
type = Stem;
}
);
layerId = "53F1C36F-0CF6-4FBE-93F4-60C790418F6C";
paths = (
{
closed = 1;
nodes = (
"341 0 LINE",
"455 686 LINE",
"705 686 LINE",
"720 780 LINE",
"110 780 LINE",
"95 686 LINE",
"343 686 LINE",
"229 0 LINE"
);
}
);
width = 670;
},
{
anchors = (
{
name = bottom;
position = "{289, 0}";
},
{
name = center;
position = "{352, 390}";
},
{
name = top;
position = "{415, 780}";
}
);
guideLines = (
{
angle = 260.5377;
position = "{30, 300}";
},
{
angle = 260.5377;
position = "{640, 300}";
}
);
layerId = "7BD6BBF9-E6B2-4B80-818C-1AB8B5401D18";
paths = (
{
closed = 1;
nodes = (
"369 0 LINE",
"477 648 LINE",
"710 648 LINE",
"732 780 LINE",
"98 780 LINE",
"76 648 LINE",
"309 648 LINE",
"201 0 LINE"
);
}
);
width = 670;
}
);
leftKerningGroup = T;
rightKerningGroup = T;
unicode = 0054;
},
{
glyphname = U;
lastChange = "2021-11-29 10:31:48 +0000";
layers = (
{
anchors = (
{
name = bottom;
position = "{333, 0}";
},
{
name = ogonek;
position = "{440, 10}";
},
{
name = top;
position = "{459, 720}";
},
{
name = topright;
position = "{812, 780}";
}
);
guideLines = (
{
angle = 260.5377;
position = "{84, 300}";
},
{
angle = 260.5377;
position = "{196, 300}";
},
{
angle = 260.5377;
position = "{564, 300}";
},
{
angle = 260.5377;
position = "{676, 300}";
}
);
layerId = "53F1C36F-0CF6-4FBE-93F4-60C790418F6C";
paths = (
{
closed = 1;
nodes = (
"633 -15 OFFCURVE",
"663 224 OFFCURVE",
"679 318 CURVE SMOOTH",
"756 780 LINE",
"646 780 LINE",
"570 321 LINE SMOOTH",
"556 238 OFFCURVE",
"536 75 OFFCURVE",
"356 75 CURVE SMOOTH",
"239 75 OFFCURVE",
"172 144 OFFCURVE",
"200 312 CURVE SMOOTH",
"278 780 LINE",
"164 780 LINE",
"88 325 LINE SMOOTH",
"51 105 OFFCURVE",
"147 -15 OFFCURVE",
"349 -15 CURVE SMOOTH"
);
}
);
width = 760;
},
{
anchors = (
{
name = bottom;
position = "{335, 0}";
},
{
name = ogonek;
position = "{464, 0}";
},
{
name = top;
position = "{465, 780}";
},
{
name = topright;
position = "{780, 780}";
}
);
background = {
paths = (
{
closed = 1;
nodes = (
"567 -14 OFFCURVE",
"693 105 OFFCURVE",
"729 323 CURVE SMOOTH",
"805 780 LINE",
"637 780 LINE",
"562 328 LINE SMOOTH",
"540 198 OFFCURVE",
"488 120 OFFCURVE",
"367 120 CURVE SMOOTH",
"272 120 OFFCURVE",
"235 169 OFFCURVE",
"235 255 CURVE SMOOTH",
"235 277 OFFCURVE",
"237 301 OFFCURVE",
"242 328 CURVE SMOOTH",
"317 780 LINE",
"145 780 LINE",
"69 323 LINE SMOOTH",
"64 292 OFFCURVE",
"61 262 OFFCURVE",
"61 235 CURVE SMOOTH",
"61 73 OFFCURVE",
"153 -14 OFFCURVE",
"343 -14 CURVE SMOOTH"
);
}
);
};
guideLines = (
{
angle = 260.5377;
position = "{67, 300}";
},
{
angle = 260.5377;
position = "{714, 300}";
},
{
angle = -6.6208;
position = "{149, 319}";
},
{
angle = -1.5766;
position = "{630, 320}";
}
);
layerId = "7BD6BBF9-E6B2-4B80-818C-1AB8B5401D18";
paths = (
{
closed = 1;
nodes = (
"567 -14 OFFCURVE",
"679 98 OFFCURVE",
"716 318 CURVE SMOOTH",
"794 780 LINE",
"628 780 LINE",
"552 323 LINE SMOOTH",
"531 194 OFFCURVE",
"473 124 OFFCURVE",
"376 124 CURVE SMOOTH",
"250 124 OFFCURVE",
"227 237 OFFCURVE",
"240 318 CURVE SMOOTH",
"317 780 LINE",
"147 780 LINE",
"73 338 LINE SMOOTH",
"37 125 OFFCURVE",
"154 -14 OFFCURVE",
"372 -14 CURVE SMOOTH"
);
}
);
width = 780;
}
);
leftKerningGroup = U;
rightKerningGroup = U;
unicode = 0055;
},
{
glyphname = Uhorn;
lastChange = "2021-09-02 10:56:02 +0000";
layers = (
{
anchors = (
{
name = bottom;
position = "{353, 0}";
},
{
name = top;
position = "{462, 780}";
}
);
background = {
anchors = (
{
name = _topright;
position = "{812, 780}";
},
{
name = bottom;
position = "{333, 0}";
},
{
name = ogonek;
position = "{440, 10}";
},
{
name = top;
position = "{459, 780}";
},
{
name = topright;
position = "{812, 780}";
}
);
paths = (
{
closed = 1;
nodes = (
"632 -15 OFFCURVE",
"663 224 OFFCURVE",
"679 318 CURVE SMOOTH",
"756 780 LINE",
"646 780 LINE",
"570 321 LINE SMOOTH",
"556 238 OFFCURVE",
"535 75 OFFCURVE",
"357 75 CURVE SMOOTH",
"239 75 OFFCURVE",
"172 144 OFFCURVE",
"200 312 CURVE SMOOTH",
"278 780 LINE",
"164 780 LINE",
"88 325 LINE SMOOTH",
"51 105 OFFCURVE",
"147 -15 OFFCURVE",
"349 -15 CURVE SMOOTH"
);
},
{
closed = 1;
nodes = (
"678 631 LINE",
"742 633 LINE SMOOTH",
"851 636 OFFCURVE",
"910 731 OFFCURVE",
"928 840 CURVE",
"844 840 LINE",
"833 771 OFFCURVE",
"800 711 OFFCURVE",
"736 699 CURVE SMOOTH",
"687 690 LINE"
);
}
);
};
guideLines = (
{
angle = 80.7701;
position = "{741, 740}";
},
{
position = "{734, 690}";
}
);
layerId = "53F1C36F-0CF6-4FBE-93F4-60C790418F6C";
paths = (
{
closed = 1;
nodes = (
"632 -15 OFFCURVE",
"663 224 OFFCURVE",
"679 318 CURVE SMOOTH",
"731.445 632.67 LINE",
"742 633 LINE SMOOTH",
"851 636 OFFCURVE",
"910 731 OFFCURVE",
"928 840 CURVE",
"844 840 LINE",
"833.393 773.466 OFFCURVE",
"804 708 OFFCURVE",
"757 690 CURVE",
"733 690 LINE",
"747 780 LINE",
"646 780 LINE",
"570 321 LINE SMOOTH",
"556 238 OFFCURVE",
"535 75 OFFCURVE",
"357 75 CURVE SMOOTH",
"239 75 OFFCURVE",
"172 144 OFFCURVE",
"200 312 CURVE SMOOTH",
"278 780 LINE",
"164 780 LINE",
"88 325 LINE SMOOTH",
"51 105 OFFCURVE",
"147 -15 OFFCURVE",
"349 -15 CURVE SMOOTH"
);
}
);
width = 820;
},
{
anchors = (
{
name = bottom;
position = "{368, 0}";
},
{
name = top;
position = "{495, 780}";
}
);
guideLines = (
{
angle = 260.5377;
position = "{892, 300}";
}
);
layerId = "7BD6BBF9-E6B2-4B80-818C-1AB8B5401D18";
paths = (
{
closed = 1;
nodes = (
"561 -14 OFFCURVE",
"665 98 OFFCURVE",
"702 318 CURVE SMOOTH",
"754 624 LINE",
"760 624 LINE SMOOTH",
"871 624 OFFCURVE",
"941 710 OFFCURVE",
"952 840 CURVE",
"831 840 LINE",
"824 786 OFFCURVE",
"807 736 OFFCURVE",
"775 724 CURVE",
"751 724 LINE",
"760 780 LINE",
"610 780 LINE",
"534 323 LINE SMOOTH",
"513 194 OFFCURVE",
"465 124 OFFCURVE",
"368 124 CURVE SMOOTH",
"242 124 OFFCURVE",
"229 237 OFFCURVE",
"242 318 CURVE SMOOTH",
"319 780 LINE",
"149 780 LINE",
"75 338 LINE SMOOTH",
"39 125 OFFCURVE",
"148 -14 OFFCURVE",
"366 -14 CURVE SMOOTH"
);
}
);
width = 840;
}
);
leftKerningGroup = U;
rightKerningGroup = U;
unicode = 01AF;
},
{
glyphname = V;
lastChange = "2021-09-02 10:56:02 +0000";
layers = (
{
background = {
paths = (
{
closed = 1;
nodes = (
"398 0 LINE",
"764 779 LINE",
"764 780 LINE",
"650 780 LINE",
"334 96 LINE",
"309 96 LINE",
"206 780 LINE",
"96 780 LINE",
"96 779 LINE",
"213 0 LINE"
);
}
);
};
hints = (
{
horizontal = 1;
place = "{0, 96}";
type = Stem;
},
{
horizontal = 1;
place = "{780, -20}";
target = down;
type = TopGhost;
}
);
layerId = "53F1C36F-0CF6-4FBE-93F4-60C790418F6C";
paths = (
{
closed = 1;
nodes = (
"394 0 LINE",
"764 774 LINE",
"764 780 LINE",
"650 780 LINE",
"329 96 LINE",
"305 96 LINE",
"210 780 LINE",
"96 780 LINE",
"96 774 LINE",
"206 0 LINE"
);
}
);
width = 700;
},
{
layerId = "7BD6BBF9-E6B2-4B80-818C-1AB8B5401D18";
paths = (
{
closed = 1;
nodes = (
"454 0 LINE",
"802 774 LINE",
"802 780 LINE",
"634 780 LINE",
"356 144 LINE",
"332 144 LINE",
"248 780 LINE",
"88 780 LINE",
"88 775 LINE",
"190 0 LINE"
);
}
);
width = 730;
}
);
leftKerningGroup = V;
rightKerningGroup = V;
unicode = 0056;
},
{
glyphname = W;
lastChange = "2021-09-02 10:56:02 +0000";
layers = (
{
anchors = (
{
name = bottom;
position = "{484, 0}";
},
{
name = top;
position = "{609, 780}";
}
);
hints = (
{
horizontal = 1;
origin = "{0, 17}";
target = "{0, 13}";
type = Stem;
},
{
horizontal = 1;
origin = "{0, 15}";
target = "{0, 1}";
type = Stem;
}
);
layerId = "53F1C36F-0CF6-4FBE-93F4-60C790418F6C";
paths = (
{
closed = 1;
nodes = (
"327 0 LINE",
"584 696 LINE",
"608 696 LINE",
"636 0 LINE",
"837 0 LINE",
"1107 774 LINE",
"1107 780 LINE",
"999 780 LINE",
"759 84 LINE",
"735 84 LINE",
"703 780 LINE",
"515 780 LINE",
"257 84 LINE",
"233 84 LINE",
"219 780 LINE",
"113 780 LINE",
"113 774 LINE",
"130 0 LINE"
);
}
);
width = 1060;
},
{
anchors = (
{
name = bottom;
position = "{499, 0}";
},
{
name = top;
position = "{627, 780}";
}
);
layerId = "7BD6BBF9-E6B2-4B80-818C-1AB8B5401D18";
paths = (
{
closed = 1;
nodes = (
"381 0 LINE",
"592 648 LINE",
"616 648 LINE",
"617 0 LINE",
"907 0 LINE",
"1142 778 LINE",
"1142 780 LINE",
"984 780 LINE",
"792 131 LINE",
"767 131 LINE",
"766 780 LINE",
"488 780 LINE",
"278 131 LINE",
"251 131 LINE",
"270 780 LINE",
"110 780 LINE",
"110 778 LINE",
"91 0 LINE"
);
}
);
width = 1090;
}
);
leftKerningGroup = W;
rightKerningGroup = W;
unicode = 0057;
},
{
glyphname = X;
lastChange = "2021-11-29 10:31:48 +0000";
layers = (
{
hints = (
{
horizontal = 1;
origin = "{0, 17}";
target = up;
type = BottomGhost;
},
{
horizontal = 1;
origin = "{0, 13}";
target = down;
type = TopGhost;
}
);
layerId = "53F1C36F-0CF6-4FBE-93F4-60C790418F6C";
paths = (
{
closed = 1;
nodes = (
"96 0 LINE",
"341 344 LINE",
"365 344 LINE",
"503 0 LINE",
"624 0 LINE",
"624 6 LINE",
"449 417 LINE",
"714 774 LINE",
"714 780 LINE",
"594 780 LINE",
"386 492 LINE",
"362 492 LINE",
"245 780 LINE",
"131 780 LINE",
"131 774 LINE",
"278 417 LINE",
"-32 6 LINE",
"-32 0 LINE"
);
}
);
width = 690;
},
{
layerId = "7BD6BBF9-E6B2-4B80-818C-1AB8B5401D18";
paths = (
{
closed = 1;
nodes = (
"137 0 LINE",
"357 309 LINE",
"377 309 LINE",
"491 0 LINE",
"669 0 LINE",
"669 6 LINE",
"510 414 LINE",
"767 774 LINE",
"767 780 LINE",
"587 780 LINE",
"404 519 LINE",
"384 519 LINE",
"285 780 LINE",
"114 780 LINE",
"114 774 LINE",
"250 414 LINE",
"-49 6 LINE",
"-49 0 LINE"
);
}
);
width = 730;
}
);
leftKerningGroup = X;
rightKerningGroup = X;
unicode = 0058;
},
{
glyphname = Y;
lastChange = "2021-09-02 10:56:02 +0000";
layers = (
{
anchors = (
{
name = bottom;
position = "{260, 0}";
},
{
name = top;
position = "{390, 750}";
},
{
name = topleft;
position = "{95, 780}";
}
);
guideLines = (
{
angle = 110.9892;
position = "{272, 621}";
},
{
angle = 235.4456;
position = "{460, 621}";
},
{
position = "{342, 552}";
},
{
angle = -10.3973;
position = "{315, 335}";
}
);
hints = (
{
horizontal = 1;
place = "{0, 21}";
target = up;
type = BottomGhost;
},
{
horizontal = 1;
origin = "{0, 14}";
target = down;
type = TopGhost;
},
{
origin = "{0, 13}";
target = "{0, 9}";
type = Stem;
}
);
layerId = "53F1C36F-0CF6-4FBE-93F4-60C790418F6C";
paths = (
{
closed = 1;
nodes = (
"316 0 LINE",
"369 325 LINE",
"688 774 LINE",
"688 780 LINE",
"569 780 LINE",
"412 552 LINE SMOOTH",
"391 522 OFFCURVE",
"371 492 OFFCURVE",
"352 450 CURVE",
"328 450 LINE",
"321 492 OFFCURVE",
"310 522 OFFCURVE",
"298 552 CURVE SMOOTH",
"211 780 LINE",
"92 780 LINE",
"92 774 LINE",
"260 345 LINE",
"204 0 LINE"
);
}
);
width = 620;
},
{
anchors = (
{
name = bottom;
position = "{280, 0}";
},
{
name = top;
position = "{403, 780}";
},
{
name = topleft;
position = "{99, 780}";
}
);
guideLines = (
{
angle = -10.3973;
position = "{335, 330}";
},
{
angle = 260.5377;
position = "{246, 300}";
},
{
angle = 260.5377;
position = "{414, 300}";
}
);
layerId = "7BD6BBF9-E6B2-4B80-818C-1AB8B5401D18";
paths = (
{
closed = 1;
nodes = (
"364 0 LINE",
"416 314 LINE",
"733 774 LINE",
"733 780 LINE",
"557 780 LINE",
"437 600 LINE SMOOTH",
"414 565 OFFCURVE",
"394 535 OFFCURVE",
"375 488 CURVE",
"351 488 LINE",
"344 535 OFFCURVE",
"333 565 OFFCURVE",
"320 600 CURVE SMOOTH",
"255 780 LINE",
"87 780 LINE",
"87 774 LINE",
"253 345 LINE",
"196 0 LINE"
);
}
);
width = 660;
}
);
leftKerningGroup = Y;
rightKerningGroup = Y;
unicode = 0059;
},
{
glyphname = Z;
lastChange = "2021-11-29 10:31:48 +0000";
layers = (
{
anchors = (
{
name = bottom;
position = "{295, 0}";
},
{
name = top;
position = "{436, 780}";
}
);
guideLines = (
{
angle = 260.5377;
position = "{48, 300}";
},
{
angle = 260.5377;
position = "{642, 300}";
},
{
position = "{266, 224}";
},
{
position = "{439, 556}";
}
);
hints = (
{
horizontal = 1;
origin = "{0, 0}";
target = "{0, 1}";
type = Stem;
},
{
horizontal = 1;
origin = "{0, 9}";
target = "{0, 10}";
type = Stem;
},
{
origin = "{0, 17}";
target = "{0, 1}";
type = Stem;
},
{
origin = "{0, 11}";
target = "{0, 8}";
type = Stem;
}
);
layerId = "53F1C36F-0CF6-4FBE-93F4-60C790418F6C";
paths = (
{
closed = 1;
nodes = (
"592 0 LINE",
"608 94 LINE",
"147 94 LINE",
"151 118 LINE",
"186 141 OFFCURVE",
"213 168 OFFCURVE",
"266 224 CURVE SMOOTH",
"691 676 LINE",
"708 780 LINE",
"164 780 LINE",
"149 686 LINE",
"558 686 LINE",
"554 662 LINE",
"519 639 OFFCURVE",
"492 612 OFFCURVE",
"439 556 CURVE SMOOTH",
"15 104 LINE",
"-2 0 LINE"
);
}
);
width = 690;
},
{
anchors = (
{
name = bottom;
position = "{296, 0}";
},
{
name = top;
position = "{434, 780}";
}
);
guideLines = (
{
position = "{328, 260}";
},
{
position = "{380, 520}";
}
);
layerId = "7BD6BBF9-E6B2-4B80-818C-1AB8B5401D18";
paths = (
{
closed = 1;
nodes = (
"608 0 LINE",
"630 132 LINE",
"209 132 LINE",
"213 156 LINE",
"248 179 OFFCURVE",
"274 207 OFFCURVE",
"328 262 CURVE SMOOTH",
"701 636 LINE",
"725 780 LINE",
"142 780 LINE",
"120 648 LINE",
"499 648 LINE",
"495 624 LINE",
"460 601 OFFCURVE",
"434 573 OFFCURVE",
"380 518 CURVE SMOOTH",
"8 144 LINE",
"-16 0 LINE"
);
}
);
width = 690;
}
);
leftKerningGroup = Z;
rightKerningGroup = Z;
unicode = 005A;
},
{
export = 0;
glyphname = Hbar.H;
lastChange = "2021-09-02 10:56:02 +0000";
layers = (
{
anchors = (
{
name = bottom;
position = "{340, 0}";
},
{
name = center;
position = "{440, 600}";
},
{
name = top;
position = "{470, 780}";
},
{
name = topleft;
position = "{80, 780}";
}
);
guideLines = (
{
position = "{390, 300}";
},
{
angle = 260.5377;
position = "{90, 300}";
},
{
angle = 260.5377;
position = "{690, 300}";
},
{
angle = 260.5377;
position = "{146, 300}";
}
);
hints = (
{
horizontal = 1;
origin = "{0, 11}";
target = up;
type = BottomGhost;
},
{
horizontal = 1;
place = "{467, 313}";
type = Stem;
},
{
horizontal = 1;
origin = "{0, 10}";
target = down;
type = TopGhost;
},
{
origin = "{0, 11}";
target = "{0, 0}";
type = Stem;
},
{
place = "{642, 16}";
type = Stem;
}
);
layerId = "53F1C36F-0CF6-4FBE-93F4-60C790418F6C";
paths = (
{
closed = 1;
nodes = (
"152 0 LINE",
"209 343 LINE",
"585 343 LINE",
"528 0 LINE",
"640 0 LINE",
"770 780 LINE",
"658 780 LINE",
"601 437 LINE",
"225 437 LINE",
"282 780 LINE",
"170 780 LINE",
"40 0 LINE"
);
}
);
width = 780;
},
{
anchors = (
{
name = bottom;
position = "{352, 0}";
},
{
name = center;
position = "{450, 600}";
},
{
name = top;
position = "{478, 780}";
},
{
name = topleft;
position = "{96, 780}";
}
);
background = {
paths = (
{
closed = 1;
nodes = (
"194 0 LINE",
"250 347 LINE",
"566 347 LINE",
"510 0 LINE",
"678 0 LINE",
"804 780 LINE",
"636 780 LINE",
"588 483 LINE",
"272 483 LINE",
"320 780 LINE",
"152 780 LINE",
"26 0 LINE"
);
}
);
};
guideLines = (
{
angle = 260.5377;
position = "{76, 300}";
},
{
angle = 260.5377;
position = "{724, 300}";
},
{
position = "{400, 300}";
},
{
angle = 260.5377;
position = "{150, 300}";
}
);
layerId = "7BD6BBF9-E6B2-4B80-818C-1AB8B5401D18";
paths = (
{
closed = 1;
nodes = (
"194 0 LINE",
"247 317 LINE",
"559 317 LINE",
"506 0 LINE",
"674 0 LINE",
"804 780 LINE",
"636 780 LINE",
"582 453 LINE",
"270 453 LINE",
"324 780 LINE",
"156 780 LINE",
"26 0 LINE"
);
}
);
width = 800;
}
);
leftKerningGroup = B;
rightKerningGroup = H;
},
{
glyphname = a;
lastChange = "2021-11-23 07:38:18 +0000";
layers = (
{
anchors = (
{
name = bottom;
position = "{275, 0}";
},
{
name = ogonek;
position = "{510, 0}";
},
{
name = top;
position = "{375, 600}";
}
);
background = {
paths = (
{
closed = 1;
nodes = (
"315 -12 OFFCURVE",
"368 40 OFFCURVE",
"398 100 CURVE",
"423 100 LINE",
"417 65 OFFCURVE",
"414 26 OFFCURVE",
"414 0 CURVE",
"510 0 LINE",
"510 31 OFFCURVE",
"513 113 OFFCURVE",
"521 161 CURVE SMOOTH",
"594 600 LINE",
"498 600 LINE",
"489 540 LINE",
"465 540 LINE",
"448 579 OFFCURVE",
"404 612 OFFCURVE",
"330 612 CURVE SMOOTH",
"159 612 OFFCURVE",
"40 432 OFFCURVE",
"40 228 CURVE SMOOTH",
"40 74 OFFCURVE",
"106 -12 OFFCURVE",
"224 -12 CURVE SMOOTH"
);
},
{
closed = 1;
nodes = (
"190 74 OFFCURVE",
"150 118 OFFCURVE",
"150 232 CURVE SMOOTH",
"150 393 OFFCURVE",
"229 526 OFFCURVE",
"344 526 CURVE SMOOTH",
"391 526 OFFCURVE",
"436 504 OFFCURVE",
"465 474 CURVE",
"448 371 LINE SMOOTH",
"422 216 OFFCURVE",
"370 74 OFFCURVE",
"254 74 CURVE SMOOTH"
);
}
);
};
guideLines = (
{
angle = 260.5377;
position = "{436, 300}";
},
{
angle = 260.5377;
position = "{544, 300}";
},
{
angle = 182.0826;
position = "{95, 230}";
}
);
hints = (
{
horizontal = 1;
place = "{-64, 36}";
type = Stem;
},
{
horizontal = 1;
place = "{562, 32}";
type = Stem;
},
{
horizontal = 1;
place = "{-50, 21}";
target = up;
type = BottomGhost;
},
{
horizontal = 1;
place = "{550, -20}";
target = down;
type = TopGhost;
},
{
place = "{40, 62}";
type = Stem;
},
{
place = "{409, 51}";
type = Stem;
}
);
layerId = "53F1C36F-0CF6-4FBE-93F4-60C790418F6C";
paths = (
{
closed = 1;
nodes = (
"315 -12 OFFCURVE",
"368 40 OFFCURVE",
"398 100 CURVE",
"423 100 LINE",
"417 65 OFFCURVE",
"414 26 OFFCURVE",
"414 0 CURVE",
"510 0 LINE",
"510 31 OFFCURVE",
"513 113 OFFCURVE",
"521 161 CURVE SMOOTH",
"594 600 LINE",
"498 600 LINE",
"489 540 LINE",
"465 540 LINE",
"448 579 OFFCURVE",
"404 612 OFFCURVE",
"330 612 CURVE SMOOTH",
"159 612 OFFCURVE",
"40 432 OFFCURVE",
"40 228 CURVE SMOOTH",
"40 74 OFFCURVE",
"106 -12 OFFCURVE",
"224 -12 CURVE SMOOTH"
);
},
{
closed = 1;
nodes = (
"190 74 OFFCURVE",
"150 118 OFFCURVE",
"150 232 CURVE SMOOTH",
"150 393 OFFCURVE",
"229 526 OFFCURVE",
"344 526 CURVE SMOOTH",
"391 526 OFFCURVE",
"436 504 OFFCURVE",
"465 474 CURVE",
"448 371 LINE SMOOTH",
"422 216 OFFCURVE",
"370 74 OFFCURVE",
"254 74 CURVE SMOOTH"
);
}
);
width = 630;
},
{
anchors = (
{
name = bottom;
position = "{281, 0}";
},
{
name = ogonek;
position = "{548, 0}";
},
{
name = top;
position = "{374, 600}";
}
);
guideLines = (
{
angle = 260.5377;
position = "{34, 300}";
},
{
angle = 182.0826;
position = "{110, 230}";
},
{
angle = 260.5377;
position = "{586, 300}";
},
{
angle = 260.5377;
position = "{424, 300}";
},
{
angle = 260.5377;
position = "{442, 300}";
}
);
layerId = "7BD6BBF9-E6B2-4B80-818C-1AB8B5401D18";
paths = (
{
closed = 1;
nodes = (
"307 -12 OFFCURVE",
"355 42 OFFCURVE",
"381 90 CURVE",
"405 90 LINE",
"399 63 OFFCURVE",
"394 27 OFFCURVE",
"392 0 CURVE",
"548 0 LINE",
"548 53 OFFCURVE",
"553 102 OFFCURVE",
"562 156 CURVE SMOOTH",
"636 600 LINE",
"492 600 LINE",
"482 540 LINE",
"458 540 LINE",
"438 578 OFFCURVE",
"399 612 OFFCURVE",
"319 612 CURVE SMOOTH",
"128 612 OFFCURVE",
"28 405 OFFCURVE",
"28 227 CURVE SMOOTH",
"28 74 OFFCURVE",
"104 -12 OFFCURVE",
"217 -12 CURVE SMOOTH"
);
},
{
closed = 1;
nodes = (
"227 108 OFFCURVE",
"190 146 OFFCURVE",
"190 233 CURVE SMOOTH",
"190 375 OFFCURVE",
"256 498 OFFCURVE",
"360 498 CURVE SMOOTH",
"398 498 OFFCURVE",
"428 485 OFFCURVE",
"452 468 CURVE",
"433 354 LINE SMOOTH",
"413 234 OFFCURVE",
"358 108 OFFCURVE",
"275 108 CURVE SMOOTH"
);
}
);
width = 660;
}
);
leftKerningGroup = a;
rightKerningGroup = a;
unicode = 0061;
},
{
glyphname = ae;
lastChange = "2021-11-29 10:31:48 +0000";
layers = (
{
anchors = (
{
name = bottom;
position = "{418, 0}";
},
{
name = top;
position = "{505, 600}";
}
);
background = {
paths = (
{
closed = 1;
nodes = (
"158 410 LINE",
"181 472 OFFCURVE",
"232 526 OFFCURVE",
"304 526 CURVE SMOOTH",
"394 526 OFFCURVE",
"443 460 OFFCURVE",
"427 373 CURVE SMOOTH",
"425 362 LINE",
"282 362 LINE SMOOTH",
"133 362 OFFCURVE",
"12 292 OFFCURVE",
"12 155 CURVE SMOOTH",
"12 50 OFFCURVE",
"101 -14 OFFCURVE",
"209 -14 CURVE SMOOTH",
"317 -14 OFFCURVE",
"400 43 OFFCURVE",
"448 106 CURVE",
"508 501 LINE",
"474 576 OFFCURVE",
"393 613 OFFCURVE",
"309 613 CURVE SMOOTH",
"197 613 OFFCURVE",
"113 549 OFFCURVE",
"69 455 CURVE"
);
},
{
closed = 1;
nodes = (
"163 73 OFFCURVE",
"122 108 OFFCURVE",
"122 162 CURVE SMOOTH",
"122 231 OFFCURVE",
"171 282 OFFCURVE",
"274 282 CURVE SMOOTH",
"412 282 LINE",
"404 235 LINE SMOOTH",
"389 149 OFFCURVE",
"316 73 OFFCURVE",
"227 73 CURVE SMOOTH"
);
},
{
closed = 1;
nodes = (
"757 -14 OFFCURVE",
"829 67 OFFCURVE",
"870 143 CURVE",
"783 198 LINE",
"757 141 OFFCURVE",
"712 74 OFFCURVE",
"636 74 CURVE SMOOTH",
"567 74 OFFCURVE",
"514 129 OFFCURVE",
"514 240 CURVE SMOOTH",
"514 388 OFFCURVE",
"572 529 OFFCURVE",
"691 529 CURVE SMOOTH",
"781 529 OFFCURVE",
"812 459 OFFCURVE",
"797 362 CURVE",
"508 362 LINE",
"496 284 LINE",
"889 284 LINE",
"894 314 LINE SMOOTH",
"927 509 OFFCURVE",
"849 615 OFFCURVE",
"700 615 CURVE SMOOTH",
"511 615 OFFCURVE",
"410 435 OFFCURVE",
"410 229 CURVE SMOOTH",
"410 74 OFFCURVE",
"494 -14 OFFCURVE",
"626 -14 CURVE SMOOTH"
);
}
);
};
guideLines = (
{
position = "{483, 520}";
},
{
angle = 261.0041;
position = "{423, 351}";
},
{
angle = 260.5377;
position = "{34, 300}";
},
{
angle = 260.5377;
position = "{774, 300}";
},
{
angle = 180;
position = "{653, 362}";
},
{
position = "{693, 284}";
}
);
hints = (
{
horizontal = 1;
place = "{-64, 36}";
type = Stem;
},
{
horizontal = 1;
place = "{562, 32}";
type = Stem;
},
{
horizontal = 1;
place = "{-50, 21}";
target = up;
type = BottomGhost;
},
{
horizontal = 1;
place = "{550, -20}";
target = down;
type = TopGhost;
},
{
place = "{40, 62}";
type = Stem;
},
{
place = "{409, 51}";
type = Stem;
},
{
horizontal = 1;
place = "{-12, 98}";
type = Stem;
},
{
horizontal = 1;
place = "{272, 78}";
type = Stem;
},
{
horizontal = 1;
place = "{612, 86}";
type = Stem;
},
{
place = "{445, 104}";
type = Stem;
},
{
place = "{807, 94}";
type = Stem;
}
);
layerId = "53F1C36F-0CF6-4FBE-93F4-60C790418F6C";
paths = (
{
closed = 1;
nodes = (
"310.02 -14 OFFCURVE",
"383 36 OFFCURVE",
"421 99 CURVE",
"445 99 LINE",
"467 24 OFFCURVE",
"539.328 -14 OFFCURVE",
"626 -14 CURVE SMOOTH",
"757 -14 OFFCURVE",
"829 67 OFFCURVE",
"870 143 CURVE",
"783 198 LINE",
"757 141 OFFCURVE",
"712 74 OFFCURVE",
"636 74 CURVE SMOOTH",
"567 74 OFFCURVE",
"508 129 OFFCURVE",
"508 240 CURVE SMOOTH",
"508 388 OFFCURVE",
"572 529 OFFCURVE",
"691 529 CURVE SMOOTH",
"781 529 OFFCURVE",
"812 459 OFFCURVE",
"797 362 CURVE",
"483 362 LINE",
"471 284 LINE",
"889 284 LINE",
"894 314 LINE SMOOTH",
"927 509 OFFCURVE",
"849 615 OFFCURVE",
"700 615 CURVE SMOOTH",
"614.481 615 OFFCURVE",
"541 578 OFFCURVE",
"505 520 CURVE",
"481 520 LINE",
"455 582 OFFCURVE",
"386.103 613 OFFCURVE",
"309 613 CURVE SMOOTH",
"197 613 OFFCURVE",
"113 549 OFFCURVE",
"69 455 CURVE",
"158 410 LINE",
"181 472 OFFCURVE",
"232 526 OFFCURVE",
"304 526 CURVE SMOOTH",
"394 526 OFFCURVE",
"439 460 OFFCURVE",
"423 373 CURVE SMOOTH",
"421 362 LINE",
"282 362 LINE SMOOTH",
"133 362 OFFCURVE",
"12 292 OFFCURVE",
"12 155 CURVE SMOOTH",
"12 50 OFFCURVE",
"101 -14 OFFCURVE",
"209 -14 CURVE SMOOTH"
);
},
{
closed = 1;
nodes = (
"163 73 OFFCURVE",
"122 108 OFFCURVE",
"122 162 CURVE SMOOTH",
"122 231 OFFCURVE",
"171 284 OFFCURVE",
"274 284 CURVE SMOOTH",
"408 284 LINE",
"400 235 LINE SMOOTH",
"386 149 OFFCURVE",
"316 73 OFFCURVE",
"227 73 CURVE SMOOTH"
);
}
);
width = 960;
},
{
anchors = (
{
name = bottom;
position = "{440, 0}";
},
{
name = top;
position = "{540, 600}";
}
);
background = {
paths = (
{
closed = 0;
nodes = (
"466 80 LINE",
"490 80 LINE",
"525.409 17.674 OFFCURVE",
"589.908 -15 OFFCURVE",
"672 -15 CURVE SMOOTH",
"796 -15 OFFCURVE",
"871 45 OFFCURVE",
"918 124 CURVE",
"794 205 LINE",
"770 147 OFFCURVE",
"733 99 OFFCURVE",
"672 99 CURVE SMOOTH",
"614 99 OFFCURVE",
"577 141 OFFCURVE",
"577 235 CURVE SMOOTH",
"577 322 OFFCURVE",
"602 507 OFFCURVE",
"717 507 CURVE SMOOTH",
"771 507 OFFCURVE",
"816 464 OFFCURVE",
"799 364 CURVE",
"497 364 LINE",
"497 262 LINE",
"944 262 LINE",
"950 299 LINE SMOOTH",
"985 517 OFFCURVE",
"875 615 OFFCURVE",
"723 615 CURVE SMOOTH",
"643 615 OFFCURVE",
"578 576 OFFCURVE",
"544 520 CURVE",
"520 520 LINE",
"487.16 582.858 OFFCURVE",
"417.044 615 OFFCURVE",
"328 615 CURVE SMOOTH",
"104 615 OFFCURVE",
"27 408 OFFCURVE",
"27 251 CURVE SMOOTH",
"27 76 OFFCURVE",
"123 -15 OFFCURVE",
"273 -15 CURVE SMOOTH",
"361 -15 OFFCURVE",
"426 24 OFFCURVE",
"466 80 CURVE"
);
},
{
closed = 1;
nodes = (
"223 93 OFFCURVE",
"193 143 OFFCURVE",
"193 227 CURVE SMOOTH",
"193 304 OFFCURVE",
"218 507 OFFCURVE",
"346 507 CURVE SMOOTH",
"405 507 OFFCURVE",
"437 464 OFFCURVE",
"437 375 CURVE SMOOTH",
"437 296 OFFCURVE",
"412 93 OFFCURVE",
"285 93 CURVE SMOOTH"
);
}
);
};
guideLines = (
{
position = "{463, 540}";
},
{
position = "{648, 364}";
},
{
position = "{674, 99}";
},
{
position = "{721, 262}";
},
{
angle = 183.6412;
position = "{67, 159}";
},
{
angle = -26.822;
position = "{114, 443}";
},
{
position = "{687, 507}";
},
{
angle = 260.5377;
position = "{408, 262}";
}
);
layerId = "7BD6BBF9-E6B2-4B80-818C-1AB8B5401D18";
paths = (
{
closed = 1;
nodes = (
"335 -14 OFFCURVE",
"412 37 OFFCURVE",
"447 80 CURVE",
"471 80 LINE",
"519 16 OFFCURVE",
"589 -14 OFFCURVE",
"674 -14 CURVE SMOOTH",
"795 -14 OFFCURVE",
"871 45 OFFCURVE",
"918 124 CURVE",
"794 205 LINE",
"770 147 OFFCURVE",
"733 99 OFFCURVE",
"671 99 CURVE SMOOTH",
"614 99 OFFCURVE",
"574 140 OFFCURVE",
"574 239 CURVE SMOOTH",
"574 320 OFFCURVE",
"602 505 OFFCURVE",
"716 505 CURVE SMOOTH",
"771 505 OFFCURVE",
"816 464 OFFCURVE",
"799 364 CURVE",
"494 364 LINE",
"494 262 LINE",
"944 262 LINE",
"950 299 LINE SMOOTH",
"985 517 OFFCURVE",
"874 613 OFFCURVE",
"729 613 CURVE SMOOTH",
"642 613 OFFCURVE",
"578 579 OFFCURVE",
"541 530 CURVE",
"517 530 LINE",
"489 580 OFFCURVE",
"423 613 OFFCURVE",
"328 613 CURVE SMOOTH",
"211 613 OFFCURVE",
"126 563 OFFCURVE",
"70 465 CURVE",
"196 402 LINE",
"220 452 OFFCURVE",
"261 505 OFFCURVE",
"331 505 CURVE SMOOTH",
"401 505 OFFCURVE",
"437 452 OFFCURVE",
"424 376 CURVE SMOOTH",
"422 364 LINE",
"282 364 LINE SMOOTH",
"133 364 OFFCURVE",
"12 290 OFFCURVE",
"12 160 CURVE SMOOTH",
"12 47 OFFCURVE",
"103 -14 OFFCURVE",
"220 -14 CURVE SMOOTH"
);
},
{
closed = 1;
nodes = (
"215 99 OFFCURVE",
"174 121 OFFCURVE",
"174 171 CURVE SMOOTH",
"174 221 OFFCURVE",
"208 262 OFFCURVE",
"296 262 CURVE SMOOTH",
"405 262 LINE",
"399 224 LINE SMOOTH",
"389 158 OFFCURVE",
"337 99 OFFCURVE",
"261 99 CURVE SMOOTH"
);
}
);
width = 980;
}
);
leftKerningGroup = ae;
rightKerningGroup = ae;
unicode = 00E6;
},
{
glyphname = b;
lastChange = "2021-11-29 10:31:48 +0000";
layers = (
{
background = {
paths = (
{
closed = 1;
nodes = (
"471 -12 OFFCURVE",
"590 168 OFFCURVE",
"590 372 CURVE SMOOTH",
"590 526 OFFCURVE",
"526 612 OFFCURVE",
"410 612 CURVE SMOOTH",
"327 612 OFFCURVE",
"275 565 OFFCURVE",
"241 510 CURVE",
"216 510 LINE",
"227 552 OFFCURVE",
"233 576 OFFCURVE",
"238 600 CURVE SMOOTH",
"277 800 LINE",
"169 800 LINE",
"36 0 LINE",
"132 0 LINE",
"141 60 LINE",
"165 60 LINE",
"182 21 OFFCURVE",
"226 -12 OFFCURVE",
"300 -12 CURVE SMOOTH"
);
},
{
closed = 1;
nodes = (
"239 74 OFFCURVE",
"194 96 OFFCURVE",
"165 126 CURVE",
"182 229 LINE SMOOTH",
"208 384 OFFCURVE",
"260 526 OFFCURVE",
"376 526 CURVE SMOOTH",
"440 526 OFFCURVE",
"480 482 OFFCURVE",
"480 368 CURVE SMOOTH",
"480 207 OFFCURVE",
"401 74 OFFCURVE",
"286 74 CURVE SMOOTH"
);
}
);
};
guideLines = (
{
angle = 260.5377;
position = "{194, 300}";
},
{
angle = 260.5377;
position = "{86, 300}";
},
{
position = "{229, 522}";
}
);
hints = (
{
horizontal = 1;
place = "{-65, 40}";
type = Stem;
},
{
horizontal = 1;
place = "{565, 40}";
type = Stem;
},
{
horizontal = 1;
place = "{750, -20}";
target = down;
type = TopGhost;
},
{
horizontal = 1;
place = "{-50, 21}";
target = up;
type = BottomGhost;
},
{
place = "{38, 56}";
type = Stem;
},
{
place = "{453, 62}";
type = Stem;
}
);
layerId = "53F1C36F-0CF6-4FBE-93F4-60C790418F6C";
paths = (
{
closed = 1;
nodes = (
"471 -12 OFFCURVE",
"590 168 OFFCURVE",
"590 372 CURVE SMOOTH",
"590 526 OFFCURVE",
"526 612 OFFCURVE",
"410 612 CURVE SMOOTH",
"327 612 OFFCURVE",
"276 565 OFFCURVE",
"250 522 CURVE",
"225 522 LINE",
"277 800 LINE",
"169 800 LINE",
"36 0 LINE",
"132 0 LINE",
"141 60 LINE",
"165 60 LINE",
"182 21 OFFCURVE",
"226 -12 OFFCURVE",
"300 -12 CURVE SMOOTH"
);
},
{
closed = 1;
nodes = (
"239 74 OFFCURVE",
"194 96 OFFCURVE",
"165 126 CURVE",
"182 229 LINE SMOOTH",
"208 384 OFFCURVE",
"260 526 OFFCURVE",
"376 526 CURVE SMOOTH",
"440 526 OFFCURVE",
"480 482 OFFCURVE",
"480 368 CURVE SMOOTH",
"480 207 OFFCURVE",
"401 74 OFFCURVE",
"286 74 CURVE SMOOTH"
);
}
);
width = 630;
},
{
background = {
paths = (
{
closed = 1;
nodes = (
"534 -12 OFFCURVE",
"632 195 OFFCURVE",
"632 373 CURVE SMOOTH",
"632 526 OFFCURVE",
"556 610 OFFCURVE",
"443 610 CURVE SMOOTH",
"353 610 OFFCURVE",
"305 558 OFFCURVE",
"277 510 CURVE",
"253 510 LINE",
"264 552 OFFCURVE",
"270 576 OFFCURVE",
"275 600 CURVE SMOOTH",
"314 800 LINE",
"157 800 LINE",
"24 0 LINE",
"168 0 LINE",
"178 60 LINE",
"202 60 LINE",
"220 22 OFFCURVE",
"259 -12 OFFCURVE",
"340 -12 CURVE SMOOTH"
);
},
{
closed = 1;
nodes = (
"262 102 OFFCURVE",
"232 115 OFFCURVE",
"208 132 CURVE",
"227 246 LINE SMOOTH",
"247 366 OFFCURVE",
"302 490 OFFCURVE",
"385 490 CURVE SMOOTH",
"433 490 OFFCURVE",
"470 454 OFFCURVE",
"470 367 CURVE SMOOTH",
"470 225 OFFCURVE",
"404 102 OFFCURVE",
"300 102 CURVE SMOOTH"
);
}
);
};
guideLines = (
{
angle = 260.5377;
position = "{626, 300}";
},
{
angle = 260.5377;
position = "{314, 800}";
},
{
angle = 260.5377;
position = "{168, 0}";
},
{
angle = 260.5377;
position = "{74, 300}";
}
);
layerId = "7BD6BBF9-E6B2-4B80-818C-1AB8B5401D18";
paths = (
{
closed = 1;
nodes = (
"534 -12 OFFCURVE",
"632 195 OFFCURVE",
"632 373 CURVE SMOOTH",
"632 526 OFFCURVE",
"556 610 OFFCURVE",
"443 610 CURVE SMOOTH",
"353 610 OFFCURVE",
"305 558 OFFCURVE",
"287 522 CURVE",
"263 522 LINE",
"319 800 LINE",
"157 800 LINE",
"24 0 LINE",
"168 0 LINE",
"178 60 LINE",
"202 60 LINE",
"220 22 OFFCURVE",
"259 -12 OFFCURVE",
"340 -12 CURVE SMOOTH"
);
},
{
closed = 1;
nodes = (
"262 102 OFFCURVE",
"232 115 OFFCURVE",
"208 132 CURVE",
"227 246 LINE SMOOTH",
"247 366 OFFCURVE",
"302 490 OFFCURVE",
"385 490 CURVE SMOOTH",
"433 490 OFFCURVE",
"470 454 OFFCURVE",
"470 367 CURVE SMOOTH",
"470 225 OFFCURVE",
"404 102 OFFCURVE",
"300 102 CURVE SMOOTH"
);
}
);
width = 660;
}
);
leftKerningGroup = b;
rightKerningGroup = b;
unicode = 0062;
},
{
glyphname = c;
lastChange = "2021-11-29 10:31:48 +0000";
layers = (
{
anchors = (
{
name = bottom;
position = "{271, 0}";
},
{
name = top;
position = "{342, 600}";
}
);
background = {
paths = (
{
closed = 1;
nodes = (
"467 -15 OFFCURVE",
"566 165 OFFCURVE",
"566 370 CURVE SMOOTH",
"566 522 OFFCURVE",
"484 615 OFFCURVE",
"333 615 CURVE SMOOTH",
"144 615 OFFCURVE",
"46 435 OFFCURVE",
"46 230 CURVE SMOOTH",
"46 78 OFFCURVE",
"127 -15 OFFCURVE",
"279 -15 CURVE SMOOTH"
);
},
{
closed = 1;
nodes = (
"196 73 OFFCURVE",
"154 134 OFFCURVE",
"154 231 CURVE SMOOTH",
"154 370 OFFCURVE",
"211 527 OFFCURVE",
"332 527 CURVE SMOOTH",
"417 527 OFFCURVE",
"458 468 OFFCURVE",
"458 371 CURVE SMOOTH",
"458 231 OFFCURVE",
"403 73 OFFCURVE",
"281 73 CURVE SMOOTH"
);
}
);
};
guideLines = (
{
angle = 260.8238;
position = "{168, 390}";
},
{
angle = 193.4486;
position = "{393, 378}";
},
{
angle = 153.4349;
position = "{464, 193}";
}
);
hints = (
{
horizontal = 1;
place = "{-15, 88}";
type = Stem;
},
{
horizontal = 1;
place = "{615, 88}";
type = Stem;
},
{
place = "{37, 111}";
type = Stem;
},
{
horizontal = 1;
place = "{390, 21}";
target = up;
type = BottomGhost;
},
{
horizontal = 1;
place = "{210, -20}";
target = down;
type = TopGhost;
},
{
place = "{444, 106}";
type = Stem;
}
);
layerId = "53F1C36F-0CF6-4FBE-93F4-60C790418F6C";
paths = (
{
closed = 1;
nodes = (
"402 -14 OFFCURVE",
"472 88 OFFCURVE",
"510 170 CURVE",
"418 216 LINE",
"393 156 OFFCURVE",
"348 72 OFFCURVE",
"267 72 CURVE SMOOTH",
"198 72 OFFCURVE",
"148 132 OFFCURVE",
"148 246 CURVE SMOOTH",
"148 383 OFFCURVE",
"212 529 OFFCURVE",
"331 529 CURVE SMOOTH",
"400 529 OFFCURVE",
"440 480 OFFCURVE",
"445 390 CURVE",
"546 414 LINE",
"536 548 OFFCURVE",
"459 615 OFFCURVE",
"342 615 CURVE SMOOTH",
"147 615 OFFCURVE",
"40 431 OFFCURVE",
"40 242 CURVE SMOOTH",
"40 70 OFFCURVE",
"131 -14 OFFCURVE",
"259 -14 CURVE SMOOTH"
);
}
);
width = 560;
},
{
anchors = (
{
name = bottom;
position = "{281, 0}";
},
{
name = top;
position = "{340, 600}";
}
);
background = {
paths = (
{
closed = 1;
nodes = (
"524 -15 OFFCURVE",
"603 194 OFFCURVE",
"603 349 CURVE SMOOTH",
"603 525 OFFCURVE",
"502 615 OFFCURVE",
"345 615 CURVE SMOOTH",
"108 615 OFFCURVE",
"27 408 OFFCURVE",
"27 251 CURVE SMOOTH",
"27 76 OFFCURVE",
"128 -15 OFFCURVE",
"286 -15 CURVE SMOOTH"
);
},
{
closed = 1;
nodes = (
"223 93 OFFCURVE",
"193 143 OFFCURVE",
"193 227 CURVE SMOOTH",
"193 304 OFFCURVE",
"218 507 OFFCURVE",
"346 507 CURVE SMOOTH",
"405 507 OFFCURVE",
"437 464 OFFCURVE",
"437 375 CURVE SMOOTH",
"437 296 OFFCURVE",
"412 93 OFFCURVE",
"285 93 CURVE SMOOTH"
);
}
);
};
guideLines = (
{
angle = 260.8238;
position = "{203, 390}";
},
{
angle = 193.4486;
position = "{403, 378}";
},
{
angle = 153.4349;
position = "{474, 193}";
}
);
layerId = "7BD6BBF9-E6B2-4B80-818C-1AB8B5401D18";
paths = (
{
closed = 1;
nodes = (
"418 -15 OFFCURVE",
"501 62 OFFCURVE",
"545 157 CURVE",
"411 224 LINE",
"389 159 OFFCURVE",
"348 99 OFFCURVE",
"285 99 CURVE SMOOTH",
"228 99 OFFCURVE",
"193 143 OFFCURVE",
"193 231 CURVE SMOOTH",
"193 303 OFFCURVE",
"217 501 OFFCURVE",
"336 501 CURVE SMOOTH",
"386 501 OFFCURVE",
"417 466 OFFCURVE",
"429 384 CURVE",
"579 420 LINE",
"556 549 OFFCURVE",
"465 615 OFFCURVE",
"337 615 CURVE SMOOTH",
"111 615 OFFCURVE",
"27 409 OFFCURVE",
"27 249 CURVE SMOOTH",
"27 76 OFFCURVE",
"125 -15 OFFCURVE",
"277 -15 CURVE SMOOTH"
);
}
);
width = 580;
}
);
leftKerningGroup = c;
rightKerningGroup = c;
unicode = 0063;
},
{
glyphname = d;
lastChange = "2021-11-29 10:31:48 +0000";
layers = (
{
anchors = (
{
name = bottom;
position = "{281, 0}";
},
{
name = center;
position = "{525, 700}";
},
{
name = top;
position = "{409, 800}";
},
{
name = topright;
position = "{627, 800}";
}
);
background = {
paths = (
{
closed = 1;
nodes = (
"315 -12 OFFCURVE",
"368 40 OFFCURVE",
"398 100 CURVE",
"423 100 LINE",
"417 65 OFFCURVE",
"414 26 OFFCURVE",
"414 0 CURVE",
"510 0 LINE",
"510 31 OFFCURVE",
"513 113 OFFCURVE",
"521 161 CURVE SMOOTH",
"627 800 LINE",
"519 800 LINE",
"499 660 LINE SMOOTH",
"489 588 OFFCURVE",
"486 560 OFFCURVE",
"485 540 CURVE",
"461 540 LINE",
"445 579 OFFCURVE",
"401 612 OFFCURVE",
"327 612 CURVE SMOOTH",
"158 612 OFFCURVE",
"40 432 OFFCURVE",
"40 228 CURVE SMOOTH",
"40 74 OFFCURVE",
"106 -12 OFFCURVE",
"224 -12 CURVE SMOOTH"
);
},
{
closed = 1;
nodes = (
"190 74 OFFCURVE",
"150 118 OFFCURVE",
"150 232 CURVE SMOOTH",
"150 393 OFFCURVE",
"229 526 OFFCURVE",
"344 526 CURVE SMOOTH",
"391 526 OFFCURVE",
"435 501 OFFCURVE",
"464 468 CURVE",
"448 371 LINE SMOOTH",
"422 216 OFFCURVE",
"370 74 OFFCURVE",
"254 74 CURVE SMOOTH"
);
}
);
};
guideLines = (
{
position = "{571, 800}";
},
{
angle = 81.1057;
position = "{521, 481}";
},
{
angle = 260.5377;
position = "{436, 300}";
},
{
angle = 260.5377;
position = "{544, 300}";
},
{
position = "{464, 552}";
}
);
layerId = "53F1C36F-0CF6-4FBE-93F4-60C790418F6C";
paths = (
{
closed = 1;
nodes = (
"315 -12 OFFCURVE",
"368 40 OFFCURVE",
"398 100 CURVE",
"423 100 LINE",
"417 65 OFFCURVE",
"414 26 OFFCURVE",
"414 0 CURVE",
"510 0 LINE",
"510 31 OFFCURVE",
"513 113 OFFCURVE",
"521 161 CURVE SMOOTH",
"627 800 LINE",
"519 800 LINE",
"484 546 LINE",
"460 546 LINE",
"444 579 OFFCURVE",
"401 612 OFFCURVE",
"327 612 CURVE SMOOTH",
"158 612 OFFCURVE",
"40 432 OFFCURVE",
"40 228 CURVE SMOOTH",
"40 74 OFFCURVE",
"106 -12 OFFCURVE",
"224 -12 CURVE SMOOTH"
);
},
{
closed = 1;
nodes = (
"190 74 OFFCURVE",
"150 118 OFFCURVE",
"150 232 CURVE SMOOTH",
"150 393 OFFCURVE",
"229 526 OFFCURVE",
"344 526 CURVE SMOOTH",
"391 526 OFFCURVE",
"435 501 OFFCURVE",
"464 468 CURVE",
"448 371 LINE SMOOTH",
"422 216 OFFCURVE",
"370 74 OFFCURVE",
"254 74 CURVE SMOOTH"
);
}
);
width = 630;
},
{
anchors = (
{
name = bottom;
position = "{283, 0}";
},
{
name = center;
position = "{560, 700}";
},
{
name = top;
position = "{412, 800}";
},
{
name = topright;
position = "{669, 800}";
}
);
guideLines = (
{
angle = 260.5377;
position = "{32, 300}";
},
{
angle = 260.5377;
position = "{586, 300}";
},
{
angle = 260.5377;
position = "{507, 800}";
}
);
layerId = "7BD6BBF9-E6B2-4B80-818C-1AB8B5401D18";
paths = (
{
closed = 1;
nodes = (
"307 -10 OFFCURVE",
"355 42 OFFCURVE",
"381 90 CURVE",
"405 90 LINE",
"399 63 OFFCURVE",
"394 27 OFFCURVE",
"392 0 CURVE",
"548 0 LINE",
"548 53 OFFCURVE",
"553 102 OFFCURVE",
"562 156 CURVE SMOOTH",
"669 800 LINE",
"507 800 LINE",
"471 546 LINE",
"447 546 LINE",
"427 578 OFFCURVE",
"391 612 OFFCURVE",
"313 612 CURVE SMOOTH",
"126 612 OFFCURVE",
"28 405 OFFCURVE",
"28 227 CURVE SMOOTH",
"28 74 OFFCURVE",
"104 -10 OFFCURVE",
"217 -10 CURVE SMOOTH"
);
},
{
closed = 1;
nodes = (
"227 110 OFFCURVE",
"190 146 OFFCURVE",
"190 233 CURVE SMOOTH",
"190 375 OFFCURVE",
"256 498 OFFCURVE",
"360 498 CURVE SMOOTH",
"398 498 OFFCURVE",
"428 485 OFFCURVE",
"452 468 CURVE",
"433 354 LINE SMOOTH",
"413 234 OFFCURVE",
"358 110 OFFCURVE",
"275 110 CURVE SMOOTH"
);
}
);
width = 660;
}
);
leftKerningGroup = c;
rightKerningGroup = d;
unicode = 0064;
},
{
glyphname = eth;
lastChange = "2021-11-29 10:31:48 +0000";
layers = (
{
background = {
paths = (
{
closed = 1;
nodes = (
"465 -15 OFFCURVE",
"566 164 OFFCURVE",
"566 383 CURVE SMOOTH",
"566 576 OFFCURVE",
"488 700 OFFCURVE",
"375 800 CURVE",
"250 800 LINE",
"250 794 LINE",
"360 700 OFFCURVE",
"449 604 OFFCURVE",
"472 502 CURVE",
"446 502 LINE",
"426 545 OFFCURVE",
"382 576 OFFCURVE",
"310 576 CURVE SMOOTH",
"138 576 OFFCURVE",
"40 398 OFFCURVE",
"40 228 CURVE SMOOTH",
"40 74 OFFCURVE",
"121 -15 OFFCURVE",
"263 -15 CURVE SMOOTH"
);
},
{
closed = 1;
nodes = (
"190 69 OFFCURVE",
"148 129 OFFCURVE",
"148 228 CURVE SMOOTH",
"148 337 OFFCURVE",
"198 494 OFFCURVE",
"330 494 CURVE SMOOTH",
"411 494 OFFCURVE",
"452 436 OFFCURVE",
"452 337 CURVE SMOOTH",
"452 228 OFFCURVE",
"403 69 OFFCURVE",
"271 69 CURVE SMOOTH"
);
},
{
closed = 1;
nodes = (
"233 671 LINE",
"256 615 LINE",
"554 729 LINE",
"530 786 LINE"
);
}
);
};
guideLines = (
{
angle = 195.3501;
position = "{449, 708}";
},
{
angle = 80.647;
position = "{620, 715}";
},
{
angle = 195.3501;
position = "{449, 708}";
},
{
angle = 80.647;
position = "{620, 715}";
},
{
position = "{464, 540}";
},
{
position = "{187, 666}";
},
{
position = "{285, 570}";
}
);
hints = (
{
horizontal = 1;
place = "{-15, 90}";
type = Stem;
},
{
horizontal = 1;
place = "{423, 86}";
type = Stem;
},
{
horizontal = 1;
place = "{800, -20}";
target = down;
type = TopGhost;
},
{
horizontal = 1;
place = "{642, 58}";
type = Stem;
},
{
place = "{31, 107}";
type = Stem;
},
{
place = "{425, 144}";
type = Stem;
},
{
horizontal = 1;
place = "{-50, -50}";
type = Stem;
},
{
horizontal = 1;
place = "{560, 40}";
type = Stem;
},
{
place = "{67, 30}";
type = Stem;
},
{
place = "{456, 11}";
type = Stem;
}
);
layerId = "53F1C36F-0CF6-4FBE-93F4-60C790418F6C";
paths = (
{
closed = 1;
nodes = (
"465 -15 OFFCURVE",
"566 164 OFFCURVE",
"566 383 CURVE SMOOTH",
"566 515 OFFCURVE",
"529 615 OFFCURVE",
"464 697 CURVE",
"464 721 LINE",
"498 711 OFFCURVE",
"526 718 OFFCURVE",
"554 729 CURVE",
"530 786 LINE",
"424 745 LINE",
"407 764 OFFCURVE",
"388 782 OFFCURVE",
"369 800 CURVE",
"250 800 LINE",
"250 794 LINE",
"282 767 OFFCURVE",
"312 740 OFFCURVE",
"345 712 CURVE",
"345 688 LINE",
"304 698 OFFCURVE",
"266 682 OFFCURVE",
"231 668 CURVE",
"254 612 LINE",
"383 664 LINE",
"427 611 OFFCURVE",
"459 557 OFFCURVE",
"472 502 CURVE",
"446 502 LINE",
"426 545 OFFCURVE",
"382 576 OFFCURVE",
"310 576 CURVE SMOOTH",
"138 576 OFFCURVE",
"40 398 OFFCURVE",
"40 228 CURVE SMOOTH",
"40 74 OFFCURVE",
"121 -15 OFFCURVE",
"263 -15 CURVE SMOOTH"
);
},
{
closed = 1;
nodes = (
"190 69 OFFCURVE",
"148 129 OFFCURVE",
"148 228 CURVE SMOOTH",
"148 337 OFFCURVE",
"198 494 OFFCURVE",
"330 494 CURVE SMOOTH",
"411 494 OFFCURVE",
"452 436 OFFCURVE",
"452 337 CURVE SMOOTH",
"452 228 OFFCURVE",
"403 69 OFFCURVE",
"271 69 CURVE SMOOTH"
);
}
);
width = 600;
},
{
background = {
paths = (
{
closed = 1;
nodes = (
"530 -15 OFFCURVE",
"611 221 OFFCURVE",
"611 394 CURVE SMOOTH",
"611 562 OFFCURVE",
"534 694 OFFCURVE",
"431 800 CURVE",
"263 800 LINE",
"263 794 LINE",
"355 708 OFFCURVE",
"438 609 OFFCURVE",
"472 510 CURVE",
"449 510 LINE",
"429 545 OFFCURVE",
"391 576 OFFCURVE",
"312 576 CURVE SMOOTH",
"128 576 OFFCURVE",
"27 407 OFFCURVE",
"27 244 CURVE SMOOTH",
"27 80 OFFCURVE",
"128 -15 OFFCURVE",
"284 -15 CURVE SMOOTH"
);
},
{
closed = 1;
nodes = (
"223 93 OFFCURVE",
"193 139 OFFCURVE",
"193 215 CURVE SMOOTH",
"193 286 OFFCURVE",
"218 471 OFFCURVE",
"346 471 CURVE SMOOTH",
"405 471 OFFCURVE",
"437 432 OFFCURVE",
"437 350 CURVE SMOOTH",
"437 278 OFFCURVE",
"412 93 OFFCURVE",
"285 93 CURVE SMOOTH"
);
},
{
closed = 1;
nodes = (
"584 729 LINE",
"560 786 LINE",
"263 671 LINE",
"286 615 LINE"
);
}
);
};
guideLines = (
{
angle = 80.647;
position = "{602, 300}";
},
{
angle = 80.647;
position = "{447, 300}";
},
{
angle = 195.5999;
position = "{465, 708}";
},
{
angle = 80.647;
position = "{219, 300}";
},
{
angle = 80.647;
position = "{584, 300}";
},
{
angle = 112.8337;
position = "{572, 758}";
},
{
angle = -67.6713;
position = "{275, 643}";
},
{
angle = 20.8409;
position = "{377, 643}";
}
);
layerId = "7BD6BBF9-E6B2-4B80-818C-1AB8B5401D18";
paths = (
{
closed = 1;
nodes = (
"530 -15 OFFCURVE",
"611 211 OFFCURVE",
"611 384 CURVE SMOOTH",
"611 504 OFFCURVE",
"572 615 OFFCURVE",
"506 696 CURVE",
"506 720 LINE",
"536 711 OFFCURVE",
"560 720 OFFCURVE",
"584 729 CURVE",
"558 792 LINE",
"462 755 LINE",
"449 771 OFFCURVE",
"434 785 OFFCURVE",
"419 800 CURVE",
"263 800 LINE",
"263 794 LINE",
"293 766 OFFCURVE",
"323 736 OFFCURVE",
"356 711 CURVE",
"356 687 LINE",
"321 694 OFFCURVE",
"292 682 OFFCURVE",
"238 662 CURVE",
"264 600 LINE",
"395 650 LINE",
"428 604 OFFCURVE",
"456 557 OFFCURVE",
"472 510 CURVE",
"449 510 LINE",
"429 545 OFFCURVE",
"391 576 OFFCURVE",
"312 576 CURVE SMOOTH",
"128 576 OFFCURVE",
"27 407 OFFCURVE",
"27 244 CURVE SMOOTH",
"27 80 OFFCURVE",
"128 -15 OFFCURVE",
"284 -15 CURVE SMOOTH"
);
},
{
closed = 1;
nodes = (
"223 93 OFFCURVE",
"193 139 OFFCURVE",
"193 215 CURVE SMOOTH",
"193 286 OFFCURVE",
"218 471 OFFCURVE",
"346 471 CURVE SMOOTH",
"405 471 OFFCURVE",
"437 432 OFFCURVE",
"437 350 CURVE SMOOTH",
"437 278 OFFCURVE",
"412 93 OFFCURVE",
"285 93 CURVE SMOOTH"
);
}
);
width = 630;
}
);
leftKerningGroup = c;
rightKerningGroup = eth;
unicode = 00F0;
},
{
glyphname = e;
lastChange = "2021-11-29 10:31:48 +0000";
layers = (
{
anchors = (
{
name = bottom;
position = "{262, 0}";
},
{
name = ogonek;
position = "{432, 0}";
},
{
name = top;
position = "{321, 600}";
}
);
background = {
paths = (
{
closed = 1;
nodes = (
"461 -15 OFFCURVE",
"560 165 OFFCURVE",
"560 370 CURVE SMOOTH",
"560 522 OFFCURVE",
"478 615 OFFCURVE",
"327 615 CURVE SMOOTH",
"138 615 OFFCURVE",
"40 435 OFFCURVE",
"40 230 CURVE SMOOTH",
"40 78 OFFCURVE",
"121 -15 OFFCURVE",
"273 -15 CURVE SMOOTH"
);
},
{
closed = 1;
nodes = (
"190 73 OFFCURVE",
"148 134 OFFCURVE",
"148 231 CURVE SMOOTH",
"148 370 OFFCURVE",
"205 527 OFFCURVE",
"326 527 CURVE SMOOTH",
"411 527 OFFCURVE",
"452 468 OFFCURVE",
"452 371 CURVE SMOOTH",
"452 231 OFFCURVE",
"397 73 OFFCURVE",
"275 73 CURVE SMOOTH"
);
}
);
};
guideLines = (
{
angle = -32.7352;
position = "{456, 171}";
},
{
angle = 260.5377;
position = "{522, 300}";
},
{
angle = 260.5377;
position = "{45, 300}";
},
{
angle = 260.5377;
position = "{409, 300}";
},
{
angle = 260.5377;
position = "{155, 300}";
}
);
hints = (
{
horizontal = 1;
origin = "{0, 28}";
target = "{0, 6}";
type = Stem;
},
{
horizontal = 1;
origin = "{0, 17}";
target = "{0, 16}";
type = Stem;
},
{
horizontal = 1;
origin = "{0, 22}";
target = "{0, 12}";
type = Stem;
},
{
origin = "{0, 2}";
target = "{0, 16}";
type = Stem;
},
{
origin = "{0, 15}";
target = "{0, 18}";
type = Stem;
}
);
layerId = "53F1C36F-0CF6-4FBE-93F4-60C790418F6C";
paths = (
{
closed = 1;
nodes = (
"387 -14 OFFCURVE",
"459 67 OFFCURVE",
"500 143 CURVE",
"413 198 LINE",
"387 141 OFFCURVE",
"342 72 OFFCURVE",
"266 72 CURVE SMOOTH",
"197 72 OFFCURVE",
"144 129 OFFCURVE",
"144 240 CURVE SMOOTH",
"144 388 OFFCURVE",
"202 531 OFFCURVE",
"321 531 CURVE SMOOTH",
"411 531 OFFCURVE",
"442 459 OFFCURVE",
"427 362 CURVE",
"138 362 LINE",
"126 284 LINE",
"519 284 LINE",
"524 314 LINE SMOOTH",
"557 509 OFFCURVE",
"479 615 OFFCURVE",
"330 615 CURVE SMOOTH",
"141 615 OFFCURVE",
"40 435 OFFCURVE",
"40 229 CURVE SMOOTH",
"40 74 OFFCURVE",
"124 -14 OFFCURVE",
"256 -14 CURVE SMOOTH"
);
}
);
width = 570;
},
{
anchors = (
{
name = bottom;
position = "{272, 0}";
},
{
name = ogonek;
position = "{466, 0}";
},
{
name = top;
position = "{327, 600}";
}
);
background = {
paths = (
{
closed = 1;
nodes = (
"400 -12 OFFCURVE",
"473 69 OFFCURVE",
"512 149 CURVE",
"388 210 LINE",
"369 166 OFFCURVE",
"333 117 OFFCURVE",
"278 117 CURVE SMOOTH",
"220 117 OFFCURVE",
"176 165 OFFCURVE",
"185 262 CURVE",
"539 262 LINE",
"544 292 LINE SMOOTH",
"578 495 OFFCURVE",
"498 612 OFFCURVE",
"330 612 CURVE SMOOTH",
"122 612 OFFCURVE",
"27 431 OFFCURVE",
"27 249 CURVE SMOOTH",
"27 79 OFFCURVE",
"113 -12 OFFCURVE",
"260 -12 CURVE SMOOTH"
);
},
{
closed = 1;
nodes = (
"221 456 OFFCURVE",
"266 498 OFFCURVE",
"324 498 CURVE SMOOTH",
"387 498 OFFCURVE",
"411 451 OFFCURVE",
"398 360 CURVE",
"200 360 LINE"
);
}
);
};
guideLines = (
{
angle = 260.5377;
position = "{560, 300}";
},
{
angle = 260.5377;
position = "{398, 300}";
},
{
angle = -32.7352;
position = "{456, 171}";
}
);
layerId = "7BD6BBF9-E6B2-4B80-818C-1AB8B5401D18";
paths = (
{
closed = 1;
nodes = (
"401 -15 OFFCURVE",
"481 45 OFFCURVE",
"528 124 CURVE",
"404 205 LINE",
"380 147 OFFCURVE",
"343 99 OFFCURVE",
"282 99 CURVE SMOOTH",
"224 99 OFFCURVE",
"187 141 OFFCURVE",
"187 235 CURVE SMOOTH",
"187 322 OFFCURVE",
"212 507 OFFCURVE",
"327 507 CURVE SMOOTH",
"381 507 OFFCURVE",
"426 464 OFFCURVE",
"409 364 CURVE",
"145 364 LINE",
"145 262 LINE",
"554 262 LINE",
"560 299 LINE SMOOTH",
"595 517 OFFCURVE",
"485 615 OFFCURVE",
"333 615 CURVE SMOOTH",
"111 615 OFFCURVE",
"27 408 OFFCURVE",
"27 249 CURVE SMOOTH",
"27 76 OFFCURVE",
"125 -15 OFFCURVE",
"277 -15 CURVE SMOOTH"
);
}
);
width = 590;
}
);
leftKerningGroup = c;
rightKerningGroup = e;
unicode = 0065;
},
{
glyphname = schwa;
lastChange = "2021-09-02 10:56:02 +0000";
layers = (
{
hints = (
{
horizontal = 1;
origin = "{0, 5}";
target = "{0, 12}";
type = Stem;
},
{
horizontal = 1;
origin = "{0, 23}";
target = "{0, 22}";
type = Stem;
},
{
horizontal = 1;
origin = "{0, 28}";
target = "{0, 18}";
type = Stem;
},
{
origin = "{0, 8}";
target = "{0, 22}";
type = Stem;
},
{
origin = "{0, 21}";
target = "{0, 24}";
type = Stem;
}
);
layerId = "53F1C36F-0CF6-4FBE-93F4-60C790418F6C";
paths = (
{
closed = 1;
nodes = (
"429 -15 OFFCURVE",
"530 165 OFFCURVE",
"530 371 CURVE SMOOTH",
"530 526 OFFCURVE",
"446 614 OFFCURVE",
"314 614 CURVE SMOOTH",
"183 614 OFFCURVE",
"111 533 OFFCURVE",
"70 457 CURVE",
"157 402 LINE",
"183 459 OFFCURVE",
"228 526 OFFCURVE",
"304 526 CURVE SMOOTH",
"373 526 OFFCURVE",
"426 471 OFFCURVE",
"426 360 CURVE SMOOTH",
"426 212 OFFCURVE",
"368 71 OFFCURVE",
"249 71 CURVE SMOOTH",
"159 71 OFFCURVE",
"128 141 OFFCURVE",
"143 238 CURVE",
"432 238 LINE",
"444 316 LINE",
"51 316 LINE",
"46 286 LINE SMOOTH",
"13 91 OFFCURVE",
"91 -15 OFFCURVE",
"240 -15 CURVE SMOOTH"
);
}
);
width = 570;
},
{
layerId = "7BD6BBF9-E6B2-4B80-818C-1AB8B5401D18";
paths = (
{
closed = 1;
nodes = (
"479 -15 OFFCURVE",
"563 192 OFFCURVE",
"563 351 CURVE SMOOTH",
"563 524 OFFCURVE",
"465 615 OFFCURVE",
"313 615 CURVE SMOOTH",
"189 615 OFFCURVE",
"109 555 OFFCURVE",
"62 476 CURVE",
"186 395 LINE",
"210 453 OFFCURVE",
"247 501 OFFCURVE",
"308 501 CURVE SMOOTH",
"366 501 OFFCURVE",
"403 459 OFFCURVE",
"403 365 CURVE SMOOTH",
"403 278 OFFCURVE",
"378 93 OFFCURVE",
"263 93 CURVE SMOOTH",
"209 93 OFFCURVE",
"164 136 OFFCURVE",
"181 236 CURVE",
"445 236 LINE",
"445 338 LINE",
"36 338 LINE",
"30 301 LINE SMOOTH",
"-5 83 OFFCURVE",
"105 -15 OFFCURVE",
"257 -15 CURVE SMOOTH"
);
}
);
width = 590;
}
);
leftKerningGroup = c;
rightKerningGroup = b;
unicode = 0259;
},
{
glyphname = f;
lastChange = "2021-09-02 10:56:02 +0000";
layers = (
{
background = {
paths = (
{
closed = 1;
nodes = (
"216 0 LINE",
"216 9 LINE",
"203 49 OFFCURVE",
"193 109 OFFCURVE",
"207 196 CURVE SMOOTH",
"260 516 LINE",
"356 516 LINE",
"370 600 LINE",
"272 600 LINE",
"297 750 LINE",
"193 750 LINE",
"168 600 LINE",
"80 600 LINE",
"66 516 LINE",
"152 516 LINE",
"96 179 LINE SMOOTH",
"82 94 OFFCURVE",
"88 46 OFFCURVE",
"102 0 CURVE"
);
}
);
};
guideLines = (
{
angle = 260.5377;
position = "{116, 300}";
},
{
angle = 260.5377;
position = "{224, 300}";
},
{
angle = 260.5377;
position = "{320, 300}";
},
{
position = "{103, -100}";
}
);
hints = (
{
horizontal = 1;
origin = "{0, 23}";
target = up;
type = BottomGhost;
},
{
horizontal = 1;
origin = "{0, 20}";
target = "{0, 21}";
type = Stem;
},
{
horizontal = 1;
origin = "{0, 15}";
target = "{0, 8}";
type = Stem;
},
{
origin = "{0, 23}";
target = "{0, 0}";
type = Stem;
}
);
layerId = "53F1C36F-0CF6-4FBE-93F4-60C790418F6C";
paths = (
{
closed = 1;
nodes = (
"155 -100 LINE",
"258 516 LINE",
"356 516 LINE",
"370 600 LINE",
"272 600 LINE",
"279 642 LINE SMOOTH",
"288 697 OFFCURVE",
"315 720 OFFCURVE",
"352 720 CURVE SMOOTH",
"367 720 OFFCURVE",
"381 717 OFFCURVE",
"390 714 CURVE",
"404 800 LINE",
"393 803 OFFCURVE",
"375 806 OFFCURVE",
"356 806 CURVE SMOOTH",
"241 806 OFFCURVE",
"189 728 OFFCURVE",
"174 636 CURVE SMOOTH",
"168 600 LINE",
"80 600 LINE",
"66 516 LINE",
"152 516 LINE",
"51 -100 LINE"
);
}
);
width = 350;
},
{
background = {
paths = (
{
closed = 1;
nodes = (
"203 -100 LINE",
"301 486 LINE",
"381 486 LINE",
"400 600 LINE",
"316 600 LINE",
"320 624 LINE SMOOTH",
"326 661 OFFCURVE",
"332 696 OFFCURVE",
"378 696 CURVE SMOOTH",
"391 696 OFFCURVE",
"401 693 OFFCURVE",
"409 690 CURVE",
"427 798 LINE",
"414 802 OFFCURVE",
"397 806 OFFCURVE",
"365 806 CURVE SMOOTH",
"192 806 OFFCURVE",
"177 690 OFFCURVE",
"165 618 CURVE SMOOTH",
"162 600 LINE",
"80 600 LINE",
"61 486 LINE",
"139 486 LINE",
"41 -100 LINE"
);
}
);
};
guideLines = (
{
angle = 260.5377;
position = "{112, 300}";
},
{
angle = 260.5377;
position = "{266, 300}";
},
{
angle = 260.5377;
position = "{344, 300}";
}
);
layerId = "7BD6BBF9-E6B2-4B80-818C-1AB8B5401D18";
paths = (
{
closed = 1;
nodes = (
"201 -100 LINE",
"299 486 LINE",
"381 486 LINE",
"400 600 LINE",
"316 600 LINE",
"320 624 LINE SMOOTH",
"328 671 OFFCURVE",
"342 694 OFFCURVE",
"384 694 CURVE SMOOTH",
"397 694 OFFCURVE",
"401 693 OFFCURVE",
"409 692 CURVE",
"427 800 LINE",
"414 803 OFFCURVE",
"391 806 OFFCURVE",
"365 806 CURVE SMOOTH",
"222 806 OFFCURVE",
"183 726 OFFCURVE",
"168 636 CURVE SMOOTH",
"162 600 LINE",
"80 600 LINE",
"61 486 LINE",
"141 486 LINE",
"43 -100 LINE"
);
}
);
width = 380;
}
);
leftKerningGroup = f;
rightKerningGroup = f;
unicode = 0066;
},
{
glyphname = g;
lastChange = "2021-11-29 10:31:48 +0000";
layers = (
{
anchors = (
{
name = bottom;
position = "{223, -200}";
},
{
name = top;
position = "{351, 600}";
}
);
background = {
paths = (
{
closed = 1;
nodes = (
"461 -200 LINE",
"594 600 LINE",
"498 600 LINE",
"489 540 LINE",
"465 540 LINE",
"448 579 OFFCURVE",
"404 612 OFFCURVE",
"330 612 CURVE SMOOTH",
"159 612 OFFCURVE",
"40 432 OFFCURVE",
"40 228 CURVE SMOOTH",
"40 74 OFFCURVE",
"104 -12 OFFCURVE",
"220 -12 CURVE SMOOTH",
"303 -12 OFFCURVE",
"355 35 OFFCURVE",
"389 90 CURVE",
"414 90 LINE",
"403 48 OFFCURVE",
"397 24 OFFCURVE",
"392 0 CURVE SMOOTH",
"353 -200 LINE"
);
},
{
closed = 1;
nodes = (
"190 74 OFFCURVE",
"150 118 OFFCURVE",
"150 232 CURVE SMOOTH",
"150 393 OFFCURVE",
"229 526 OFFCURVE",
"344 526 CURVE SMOOTH",
"391 526 OFFCURVE",
"436 504 OFFCURVE",
"465 474 CURVE",
"448 371 LINE SMOOTH",
"422 216 OFFCURVE",
"370 74 OFFCURVE",
"254 74 CURVE SMOOTH"
);
}
);
};
guideLines = (
{
angle = 260.5377;
position = "{426, 300}";
},
{
angle = 260.5377;
position = "{534, 300}";
},
{
angle = 260.5377;
position = "{436, 300}";
},
{
position = "{225, -200}";
},
{
position = "{217, 30}";
},
{
angle = 260.5377;
position = "{45, 300}";
},
{
angle = 85.5526;
position = "{229, -170}";
}
);
hints = (
{
horizontal = 1;
place = "{-214, 84}";
type = Stem;
},
{
horizontal = 1;
place = "{33, 77}";
type = Stem;
},
{
horizontal = 1;
place = "{600, 90}";
type = Stem;
},
{
horizontal = 1;
place = "{600, -20}";
target = down;
type = TopGhost;
},
{
place = "{15, 108}";
type = Stem;
},
{
place = "{416, 85}";
type = Stem;
}
);
layerId = "53F1C36F-0CF6-4FBE-93F4-60C790418F6C";
paths = (
{
closed = 1;
nodes = (
"361 -215 OFFCURVE",
"460 -135 OFFCURVE",
"486 17 CURVE SMOOTH",
"584 600 LINE",
"492 600 LINE",
"482 540 LINE",
"458 540 LINE",
"441 579 OFFCURVE",
"397 612 OFFCURVE",
"323 612 CURVE SMOOTH",
"155 612 OFFCURVE",
"40 441 OFFCURVE",
"40 246 CURVE SMOOTH",
"40 100 OFFCURVE",
"105 18 OFFCURVE",
"217 18 CURVE SMOOTH",
"304 18 OFFCURVE",
"354 68 OFFCURVE",
"383 125 CURVE",
"407 125 LINE",
"388 31 LINE SMOOTH",
"369 -61 OFFCURVE",
"328 -125 OFFCURVE",
"232 -125 CURVE SMOOTH",
"156 -125 OFFCURVE",
"100 -87 OFFCURVE",
"54 -20 CURVE",
"-12 -98 LINE",
"34 -161 OFFCURVE",
"114 -215 OFFCURVE",
"225 -215 CURVE SMOOTH"
);
},
{
closed = 1;
nodes = (
"191 104 OFFCURVE",
"151 145 OFFCURVE",
"151 252 CURVE SMOOTH",
"151 402 OFFCURVE",
"227 526 OFFCURVE",
"335 526 CURVE SMOOTH",
"378 526 OFFCURVE",
"420 505 OFFCURVE",
"455 477 CURVE",
"439 381 LINE SMOOTH",
"415 237 OFFCURVE",
"359 104 OFFCURVE",
"251 104 CURVE SMOOTH"
);
}
);
width = 620;
},
{
anchors = (
{
name = bottom;
position = "{227, -200}";
},
{
name = top;
position = "{355, 600}";
}
);
guideLines = (
{
position = "{231, 30}";
},
{
angle = 49.7636;
position = "{-6, -107}";
},
{
angle = -8.1301;
position = "{452, 24}";
},
{
angle = 260.5377;
position = "{576, 300}";
},
{
angle = 258.8262;
position = "{397, 85}";
},
{
position = "{405, 111}";
},
{
angle = 3.0941;
position = "{96, 249}";
},
{
angle = 260.5377;
position = "{45, 300}";
},
{
angle = 85.5526;
position = "{244, -170}";
},
{
angle = 260.5377;
position = "{414, 300}";
}
);
layerId = "7BD6BBF9-E6B2-4B80-818C-1AB8B5401D18";
paths = (
{
closed = 1;
nodes = (
"396 -215 OFFCURVE",
"503 -140 OFFCURVE",
"529 18 CURVE SMOOTH",
"626 600 LINE",
"482 600 LINE",
"472 540 LINE",
"448 540 LINE",
"424 584 OFFCURVE",
"392 612 OFFCURVE",
"322 612 CURVE SMOOTH",
"143 612 OFFCURVE",
"39 419 OFFCURVE",
"39 247 CURVE",
"39 106 OFFCURVE",
"114 18 OFFCURVE",
"226 18 CURVE SMOOTH",
"301 18 OFFCURVE",
"350 54 OFFCURVE",
"381 110 CURVE",
"405 110 LINE",
"390 35 LINE SMOOTH",
"373 -49 OFFCURVE",
"333 -95 OFFCURVE",
"254 -95 CURVE SMOOTH",
"181 -95 OFFCURVE",
"119 -56 OFFCURVE",
"79 -6 CURVE",
"-10 -113 LINE",
"40 -164 OFFCURVE",
"117 -215 OFFCURVE",
"245 -215 CURVE SMOOTH"
);
},
{
closed = 1;
nodes = (
"230 132 OFFCURVE",
"198 172 OFFCURVE",
"198 255 CURVE",
"198 395 OFFCURVE",
"261 500 OFFCURVE",
"357 500 CURVE SMOOTH",
"384 500 OFFCURVE",
"419 491 OFFCURVE",
"442 468 CURVE",
"426 372 LINE SMOOTH",
"405 246 OFFCURVE",
"354 132 OFFCURVE",
"274 132 CURVE SMOOTH"
);
}
);
width = 650;
}
);
leftKerningGroup = g;
rightKerningGroup = g;
unicode = 0067;
},
{
glyphname = h;
lastChange = "2021-11-29 10:31:48 +0000";
layers = (
{
anchors = (
{
name = bottom;
position = "{271, 0}";
},
{
name = center;
position = "{239, 700}";
},
{
name = top;
position = "{218, 800}";
}
);
background = {
paths = (
{
closed = 1;
nodes = (
"144 0 LINE",
"192 288 LINE SMOOTH",
"214 420 OFFCURVE",
"280 520 OFFCURVE",
"373 520 CURVE SMOOTH",
"453 520 OFFCURVE",
"470 454 OFFCURVE",
"456 372 CURVE SMOOTH",
"394 0 LINE",
"502 0 LINE",
"566 386 LINE SMOOTH",
"586 507 OFFCURVE",
"544 610 OFFCURVE",
"408 610 CURVE SMOOTH",
"330 610 OFFCURVE",
"282 571 OFFCURVE",
"240 510 CURVE",
"216 510 LINE",
"222 544 OFFCURVE",
"226 574 OFFCURVE",
"226 600 CURVE",
"130 600 LINE",
"130 576 OFFCURVE",
"122 516 OFFCURVE",
"112 456 CURVE SMOOTH",
"36 0 LINE"
);
}
);
};
guideLines = (
{
position = "{92, 0}";
},
{
angle = 260.5609;
position = "{93, 0}";
},
{
angle = 260.5377;
position = "{194, 300}";
},
{
angle = 260.5377;
position = "{444, 300}";
},
{
angle = 260.5377;
position = "{552, 300}";
},
{
angle = 260.5377;
position = "{86, 300}";
},
{
position = "{228, 522}";
}
);
hints = (
{
horizontal = 1;
place = "{-50, 21}";
target = up;
type = BottomGhost;
},
{
horizontal = 1;
place = "{564, -155}";
type = Stem;
},
{
horizontal = 1;
place = "{800, -20}";
target = down;
type = TopGhost;
},
{
place = "{146, 84}";
type = Stem;
},
{
place = "{412, 58}";
type = Stem;
}
);
layerId = "53F1C36F-0CF6-4FBE-93F4-60C790418F6C";
paths = (
{
closed = 1;
nodes = (
"144 0 LINE",
"192 288 LINE SMOOTH",
"214 420 OFFCURVE",
"280 520 OFFCURVE",
"373 520 CURVE SMOOTH",
"453 520 OFFCURVE",
"470 454 OFFCURVE",
"456 372 CURVE SMOOTH",
"394 0 LINE",
"502 0 LINE",
"566 386 LINE SMOOTH",
"586 507 OFFCURVE",
"544 610 OFFCURVE",
"408 610 CURVE SMOOTH",
"330 610 OFFCURVE",
"282 571 OFFCURVE",
"249 522 CURVE",
"225 522 LINE",
"277 800 LINE",
"169 800 LINE",
"36 0 LINE"
);
}
);
width = 630;
},
{
anchors = (
{
name = bottom;
position = "{285, 0}";
},
{
name = center;
position = "{244, 700}";
},
{
name = top;
position = "{231, 800}";
}
);
background = {
paths = (
{
closed = 1;
nodes = (
"186 0 LINE",
"234 288 LINE SMOOTH",
"253 400 OFFCURVE",
"304 494 OFFCURVE",
"381 494 CURVE SMOOTH",
"436 494 OFFCURVE",
"457 448 OFFCURVE",
"443 366 CURVE SMOOTH",
"382 0 LINE",
"544 0 LINE",
"609 389 LINE SMOOTH",
"631 522 OFFCURVE",
"567 615 OFFCURVE",
"440 615 CURVE SMOOTH",
"352 615 OFFCURVE",
"307 570 OFFCURVE",
"277 510 CURVE",
"253 510 LINE",
"258 542 OFFCURVE",
"262 572 OFFCURVE",
"262 600 CURVE",
"118 600 LINE",
"118 576 OFFCURVE",
"110 516 OFFCURVE",
"100 456 CURVE SMOOTH",
"24 0 LINE"
);
}
);
};
guideLines = (
{
angle = 260.5377;
position = "{74, 300}";
},
{
angle = 260.5377;
position = "{594, 300}";
},
{
angle = 260.5377;
position = "{236, 300}";
},
{
position = "{265, 510}";
}
);
layerId = "7BD6BBF9-E6B2-4B80-818C-1AB8B5401D18";
paths = (
{
closed = 1;
nodes = (
"186 0 LINE",
"234 288 LINE SMOOTH",
"253 400 OFFCURVE",
"304 495 OFFCURVE",
"381 495 CURVE SMOOTH",
"436 495 OFFCURVE",
"457 448 OFFCURVE",
"443 366 CURVE SMOOTH",
"382 0 LINE",
"544 0 LINE",
"609 389 LINE SMOOTH",
"631 522 OFFCURVE",
"567 615 OFFCURVE",
"440 615 CURVE SMOOTH",
"352 615 OFFCURVE",
"318 570 OFFCURVE",
"292 528 CURVE",
"268 528 LINE",
"319 800 LINE",
"157 800 LINE",
"24 0 LINE"
);
}
);
width = 660;
}
);
leftKerningGroup = b;
rightKerningGroup = h;
unicode = 0068;
},
{
glyphname = idotless;
lastChange = "2021-09-02 10:56:02 +0000";
layers = (
{
anchors = (
{
name = bottom;
position = "{90, 0}";
},
{
name = ogonek;
position = "{144, 0}";
},
{
name = top;
position = "{190, 600}";
}
);
guideLines = (
{
angle = 260.5377;
position = "{86, 300}";
},
{
angle = 260.5377;
position = "{194, 300}";
}
);
hints = (
{
horizontal = 1;
origin = "{0, 3}";
target = up;
type = BottomGhost;
},
{
horizontal = 1;
origin = "{0, 2}";
target = down;
type = TopGhost;
},
{
origin = "{0, 3}";
target = "{0, 0}";
type = Stem;
}
);
layerId = "53F1C36F-0CF6-4FBE-93F4-60C790418F6C";
paths = (
{
closed = 1;
nodes = (
"144 0 LINE",
"244 600 LINE",
"136 600 LINE",
"36 0 LINE"
);
}
);
width = 280;
},
{
anchors = (
{
name = bottom;
position = "{105, 0}";
},
{
name = ogonek;
position = "{186, 0}";
},
{
name = top;
position = "{205, 600}";
}
);
guideLines = (
{
angle = 260.5377;
position = "{74, 300}";
},
{
angle = 260.5377;
position = "{236, 300}";
}
);
layerId = "7BD6BBF9-E6B2-4B80-818C-1AB8B5401D18";
paths = (
{
closed = 1;
nodes = (
"186 0 LINE",
"286 600 LINE",
"124 600 LINE",
"24 0 LINE"
);
}
);
width = 310;
}
);
leftKerningGroup = m;
rightKerningGroup = u;
unicode = 0131;
},
{
glyphname = jdotless;
lastChange = "2021-09-02 10:56:02 +0000";
layers = (
{
anchors = (
{
name = bottom;
position = "{10, -200}";
},
{
name = top;
position = "{192, 600}";
}
);
guideLines = (
{
angle = 260.5377;
position = "{86, 300}";
},
{
angle = 260.5377;
position = "{194, 300}";
}
);
hints = (
{
horizontal = 1;
origin = "{0, 10}";
target = up;
type = BottomGhost;
},
{
horizontal = 1;
origin = "{0, 5}";
target = down;
type = TopGhost;
},
{
origin = "{0, 6}";
target = "{0, 3}";
type = Stem;
}
);
layerId = "53F1C36F-0CF6-4FBE-93F4-60C790418F6C";
paths = (
{
closed = 1;
nodes = (
"66 -200 LINE",
"99 -159 OFFCURVE",
"125 -114 OFFCURVE",
"141 -18 CURVE SMOOTH",
"244 600 LINE",
"136 600 LINE",
"36 0 LINE SMOOTH",
"21 -93 OFFCURVE",
"-12 -153 OFFCURVE",
"-48 -194 CURVE",
"-48 -200 LINE"
);
}
);
width = 280;
},
{
anchors = (
{
name = bottom;
position = "{21, -200}";
},
{
name = top;
position = "{200, 600}";
}
);
guideLines = (
{
angle = 260.5377;
position = "{74, 300}";
},
{
angle = 260.5377;
position = "{236, 300}";
},
{
angle = -6.8144;
position = "{104, -10}";
}
);
layerId = "7BD6BBF9-E6B2-4B80-818C-1AB8B5401D18";
paths = (
{
closed = 1;
nodes = (
"110 -200 LINE",
"141 -160 OFFCURVE",
"168 -112 OFFCURVE",
"183 -19 CURVE SMOOTH",
"286 600 LINE",
"124 600 LINE",
"24 0 LINE SMOOTH",
"10 -82 OFFCURVE",
"-16 -141 OFFCURVE",
"-64 -194 CURVE",
"-64 -200 LINE"
);
}
);
width = 310;
}
);
leftKerningGroup = i;
rightKerningGroup = i;
unicode = 0237;
},
{
glyphname = k;
lastChange = "2021-09-02 10:56:02 +0000";
layers = (
{
anchors = (
{
name = bottom;
position = "{262, 0}";
},
{
name = top;
position = "{224, 800}";
}
);
guideLines = (
{
angle = 260.5377;
position = "{86, 300}";
},
{
angle = 260.5377;
position = "{194, 300}";
},
{
angle = 260.5377;
position = "{533, 300}";
}
);
hints = (
{
horizontal = 1;
origin = "{0, 14}";
target = up;
type = BottomGhost;
},
{
horizontal = 1;
origin = "{0, 1}";
target = "{0, 11}";
type = Stem;
},
{
horizontal = 1;
origin = "{0, 9}";
target = up;
type = BottomGhost;
},
{
horizontal = 1;
origin = "{0, 13}";
target = down;
type = TopGhost;
},
{
origin = "{0, 14}";
target = "{0, 0}";
type = Stem;
}
);
layerId = "53F1C36F-0CF6-4FBE-93F4-60C790418F6C";
paths = (
{
closed = 1;
nodes = (
"144 0 LINE",
"190 276 LINE",
"238 276 LINE",
"393 0 LINE",
"513 0 LINE",
"513 6 LINE",
"332 315 LINE",
"583 594 LINE",
"583 600 LINE",
"460 600 LINE",
"253 366 LINE",
"205 366 LINE",
"277 800 LINE",
"169 800 LINE",
"36 0 LINE"
);
}
);
width = 580;
},
{
anchors = (
{
name = bottom;
position = "{286, 0}";
},
{
name = top;
position = "{237, 800}";
}
);
background = {
paths = (
{
closed = 1;
nodes = (
"234 0 LINE",
"288 324 LINE SMOOTH",
"304 420 OFFCURVE",
"354 495 OFFCURVE",
"427 495 CURVE SMOOTH",
"485 495 OFFCURVE",
"510 448 OFFCURVE",
"496 366 CURVE SMOOTH",
"435 0 LINE",
"597 0 LINE",
"658 366 LINE SMOOTH",
"684 522 OFFCURVE",
"618 614 OFFCURVE",
"492 614 CURVE SMOOTH",
"401 614 OFFCURVE",
"350 570 OFFCURVE",
"326 512 CURVE",
"314 512 LINE",
"362 800 LINE",
"202 800 LINE",
"72 0 LINE"
);
}
);
};
guideLines = (
{
angle = 260.5377;
position = "{74, 300}";
},
{
angle = 260.5377;
position = "{236, 300}";
}
);
layerId = "7BD6BBF9-E6B2-4B80-818C-1AB8B5401D18";
paths = (
{
closed = 1;
nodes = (
"186 0 LINE",
"229 256 LINE",
"277 256 LINE",
"410 0 LINE",
"584 0 LINE",
"584 6 LINE",
"416 310 LINE",
"647 594 LINE",
"647 600 LINE",
"461 600 LINE",
"297 376 LINE",
"249 376 LINE",
"319 800 LINE",
"157 800 LINE",
"24 0 LINE"
);
}
);
width = 640;
}
);
leftKerningGroup = b;
rightKerningGroup = k;
unicode = 006B;
},
{
glyphname = kgreenlandic;
lastChange = "2021-09-02 10:56:02 +0000";
layers = (
{
layerId = "53F1C36F-0CF6-4FBE-93F4-60C790418F6C";
paths = (
{
closed = 1;
nodes = (
"144 0 LINE",
"190 276 LINE",
"238 276 LINE",
"393 0 LINE",
"513 0 LINE",
"513 1 LINE",
"332 315 LINE",
"583 599 LINE",
"583 600 LINE",
"460 600 LINE",
"253 366 LINE",
"205 366 LINE",
"244 600 LINE",
"136 600 LINE",
"36 0 LINE"
);
}
);
width = 580;
},
{
layerId = "7BD6BBF9-E6B2-4B80-818C-1AB8B5401D18";
paths = (
{
closed = 1;
nodes = (
"186 0 LINE",
"229 256 LINE",
"277 256 LINE",
"410 0 LINE",
"584 0 LINE",
"584 6 LINE",
"416.305 310.455 LINE",
"647 594 LINE",
"647 600 LINE",
"461 600 LINE",
"297 376 LINE",
"249 376 LINE",
"287 600 LINE",
"124 600 LINE",
"24 0 LINE"
);
}
);
width = 640;
}
);
leftKerningGroup = m;
rightKerningGroup = k;
unicode = 0138;
},
{
glyphname = l;
lastChange = "2021-09-02 10:56:02 +0000";
layers = (
{
anchors = (
{
name = bottom;
position = "{104, 0}";
},
{
name = center;
position = "{319, 330}";
},
{
name = slash;
position = "{150, 360}";
},
{
name = top;
position = "{221, 800}";
},
{
name = topright;
position = "{277, 800}";
}
);
guideLines = (
{
angle = 260.5377;
position = "{86, 300}";
},
{
angle = 260.5377;
position = "{194, 300}";
},
{
angle = 260.5377;
position = "{314, 300}";
}
);
hints = (
{
horizontal = 1;
origin = "{0, 10}";
target = up;
type = BottomGhost;
},
{
horizontal = 1;
origin = "{0, 6}";
target = down;
type = TopGhost;
},
{
origin = "{0, 7}";
target = "{0, 4}";
type = Stem;
}
);
layerId = "53F1C36F-0CF6-4FBE-93F4-60C790418F6C";
paths = (
{
closed = 1;
nodes = (
"186 0 LINE",
"186 6 LINE",
"173 49 OFFCURVE",
"163 109 OFFCURVE",
"177 196 CURVE SMOOTH",
"277 800 LINE",
"169 800 LINE",
"66 179 LINE SMOOTH",
"52 94 OFFCURVE",
"58 46 OFFCURVE",
"72 0 CURVE"
);
}
);
width = 280;
},
{
anchors = (
{
name = bottom;
position = "{138, 0}";
},
{
name = center;
position = "{354, 330}";
},
{
name = slash;
position = "{165, 360}";
},
{
name = top;
position = "{233, 800}";
},
{
name = topright;
position = "{319, 800}";
}
);
guideLines = (
{
angle = 260.5377;
position = "{74, 300}";
},
{
angle = 260.5377;
position = "{236, 300}";
},
{
angle = 260.5377;
position = "{350, 300}";
}
);
layerId = "7BD6BBF9-E6B2-4B80-818C-1AB8B5401D18";
paths = (
{
closed = 1;
nodes = (
"222 0 LINE",
"222 6 LINE",
"208 44 OFFCURVE",
"203 101 OFFCURVE",
"219 198 CURVE SMOOTH",
"319 800 LINE",
"157 800 LINE",
"54 179 LINE SMOOTH",
"41 102 OFFCURVE",
"42 51 OFFCURVE",
"54 0 CURVE"
);
}
);
width = 310;
}
);
leftKerningGroup = b;
rightKerningGroup = d;
unicode = 006C;
},
{
glyphname = m;
lastChange = "2021-11-29 10:31:48 +0000";
layers = (
{
background = {
paths = (
{
closed = 1;
nodes = (
"146 0 LINE",
"198 300 LINE SMOOTH",
"221 432 OFFCURVE",
"288 520 OFFCURVE",
"376 520 CURVE SMOOTH",
"433 520 OFFCURVE",
"462 480 OFFCURVE",
"447 396 CURVE SMOOTH",
"378 0 LINE",
"486 0 LINE",
"538 300 LINE SMOOTH",
"563 444 OFFCURVE",
"629 520 OFFCURVE",
"716 520 CURVE SMOOTH",
"773 520 OFFCURVE",
"802 480 OFFCURVE",
"787 396 CURVE SMOOTH",
"718 0 LINE",
"826 0 LINE",
"895 396 LINE SMOOTH",
"918 528 OFFCURVE",
"859 610 OFFCURVE",
"744 610 CURVE SMOOTH",
"656 610 OFFCURVE",
"606 562 OFFCURVE",
"576 510 CURVE",
"552 510 LINE",
"532 573 OFFCURVE",
"482 610 OFFCURVE",
"408 610 CURVE SMOOTH",
"314 610 OFFCURVE",
"273 558 OFFCURVE",
"248 510 CURVE",
"223 510 LINE",
"230 547 OFFCURVE",
"234 575 OFFCURVE",
"234 600 CURVE",
"136 600 LINE",
"136 576 OFFCURVE",
"127 513 OFFCURVE",
"117 456 CURVE SMOOTH",
"38 0 LINE"
);
}
);
};
guideLines = (
{
position = "{564, 510}";
},
{
angle = 260.5377;
position = "{194, 300}";
},
{
angle = 260.5377;
position = "{430, 300}";
},
{
angle = 260.5377;
position = "{538, 300}";
},
{
angle = 260.5377;
position = "{86, 300}";
},
{
angle = 260.5377;
position = "{774, 300}";
},
{
angle = 260.5377;
position = "{882, 300}";
}
);
hints = (
{
horizontal = 1;
place = "{-50, 21}";
target = up;
type = BottomGhost;
},
{
horizontal = 1;
place = "{564, 42}";
type = Stem;
},
{
horizontal = 1;
place = "{550, -20}";
target = down;
type = TopGhost;
},
{
place = "{38, 58}";
type = Stem;
},
{
place = "{390, 58}";
type = Stem;
},
{
place = "{742, 58}";
type = Stem;
}
);
layerId = "53F1C36F-0CF6-4FBE-93F4-60C790418F6C";
paths = (
{
closed = 1;
nodes = (
"144 0 LINE",
"192 288 LINE SMOOTH",
"214 420 OFFCURVE",
"280 520 OFFCURVE",
"368 520 CURVE SMOOTH",
"443 520 OFFCURVE",
"456 454 OFFCURVE",
"442 372 CURVE SMOOTH",
"380 0 LINE",
"488 0 LINE",
"536 288 LINE SMOOTH",
"558 420 OFFCURVE",
"610 520 OFFCURVE",
"703 520 CURVE SMOOTH",
"783 520 OFFCURVE",
"800 454 OFFCURVE",
"786 372 CURVE SMOOTH",
"724 0 LINE",
"832 0 LINE",
"896 386 LINE SMOOTH",
"916 507 OFFCURVE",
"874 610 OFFCURVE",
"738 610 CURVE SMOOTH",
"660 610 OFFCURVE",
"612 571 OFFCURVE",
"570 510 CURVE",
"546 510 LINE",
"530 570 OFFCURVE",
"485 610 OFFCURVE",
"403 610 CURVE SMOOTH",
"330 610 OFFCURVE",
"282 571 OFFCURVE",
"240 510 CURVE",
"216 510 LINE",
"222 544 OFFCURVE",
"226 574 OFFCURVE",
"226 600 CURVE",
"130 600 LINE",
"130 576 OFFCURVE",
"122 516 OFFCURVE",
"112 456 CURVE SMOOTH",
"36 0 LINE"
);
}
);
width = 960;
},
{
guideLines = (
{
angle = 260.5377;
position = "{74, 300}";
},
{
angle = 260.5377;
position = "{236, 300}";
},
{
angle = 260.5377;
position = "{418, 300}";
},
{
angle = 260.5377;
position = "{580, 300}";
},
{
angle = 260.5377;
position = "{762, 300}";
},
{
angle = 260.5377;
position = "{924, 300}";
}
);
layerId = "7BD6BBF9-E6B2-4B80-818C-1AB8B5401D18";
paths = (
{
closed = 1;
nodes = (
"186 0 LINE",
"234 288 LINE SMOOTH",
"253 400 OFFCURVE",
"304 495 OFFCURVE",
"374 495 CURVE SMOOTH",
"422 495 OFFCURVE",
"443 448 OFFCURVE",
"429 366 CURVE SMOOTH",
"368 0 LINE",
"530 0 LINE",
"578 288 LINE SMOOTH",
"597 400 OFFCURVE",
"649 495 OFFCURVE",
"719 495 CURVE SMOOTH",
"767 495 OFFCURVE",
"787 448 OFFCURVE",
"773 366 CURVE SMOOTH",
"712 0 LINE",
"874 0 LINE",
"939 389 LINE SMOOTH",
"961 522 OFFCURVE",
"897 615 OFFCURVE",
"770 615 CURVE SMOOTH",
"682 615 OFFCURVE",
"637 570 OFFCURVE",
"607 510 CURVE",
"583 510 LINE",
"566.964 574.562 OFFCURVE",
"514 615 OFFCURVE",
"440 615 CURVE SMOOTH",
"352 615 OFFCURVE",
"307 570 OFFCURVE",
"277 510 CURVE",
"253 510 LINE",
"258 542 OFFCURVE",
"262 572 OFFCURVE",
"262 600 CURVE",
"118 600 LINE",
"118 576 OFFCURVE",
"110 516 OFFCURVE",
"100 456 CURVE SMOOTH",
"24 0 LINE"
);
}
);
width = 990;
}
);
leftKerningGroup = m;
rightKerningGroup = h;
unicode = 006D;
},
{
glyphname = n;
lastChange = "2021-09-02 10:56:02 +0000";
layers = (
{
anchors = (
{
name = bottom;
position = "{269, 0}";
},
{
name = top;
position = "{365, 600}";
}
);
guideLines = (
{
angle = 260.5377;
position = "{194, 300}";
},
{
angle = 260.5377;
position = "{444, 300}";
},
{
angle = 260.5377;
position = "{552, 300}";
},
{
angle = 260.5377;
position = "{86, 300}";
},
{
position = "{228, 510}";
},
{
angle = 187.2532;
position = "{511, 379}";
}
);
hints = (
{
horizontal = 1;
origin = "{0, 25}";
target = up;
type = BottomGhost;
},
{
horizontal = 1;
origin = "{0, 13}";
target = "{0, 4}";
type = Stem;
},
{
horizontal = 1;
origin = "{0, 21}";
target = down;
type = TopGhost;
},
{
origin = "{0, 25}";
target = "{0, 0}";
type = Stem;
},
{
origin = "{0, 13}";
target = "{0, 7}";
type = Stem;
}
);
layerId = "53F1C36F-0CF6-4FBE-93F4-60C790418F6C";
paths = (
{
closed = 1;
nodes = (
"144 0 LINE",
"192 288 LINE SMOOTH",
"214 420 OFFCURVE",
"280 520 OFFCURVE",
"373 520 CURVE SMOOTH",
"453 520 OFFCURVE",
"470 454 OFFCURVE",
"456 372 CURVE SMOOTH",
"394 0 LINE",
"502 0 LINE",
"566 386 LINE SMOOTH",
"586 507 OFFCURVE",
"544 610 OFFCURVE",
"408 610 CURVE SMOOTH",
"330 610 OFFCURVE",
"282 571 OFFCURVE",
"240 510 CURVE",
"216 510 LINE",
"222 544 OFFCURVE",
"226 574 OFFCURVE",
"226 600 CURVE",
"130 600 LINE",
"130 576 OFFCURVE",
"122 516 OFFCURVE",
"112 456 CURVE SMOOTH",
"36 0 LINE"
);
}
);
width = 630;
},
{
anchors = (
{
name = bottom;
position = "{284, 0}";
},
{
name = top;
position = "{384, 600}";
}
);
guideLines = (
{
angle = 260.5377;
position = "{74, 300}";
},
{
angle = 260.5377;
position = "{594, 300}";
},
{
angle = 187.2532;
position = "{526, 379}";
},
{
angle = 260.5377;
position = "{432, 300}";
},
{
angle = 260.5377;
position = "{236, 300}";
},
{
angle = 68.7495;
position = "{406, 565}";
},
{
angle = 260.5377;
position = "{218, 300}";
}
);
layerId = "7BD6BBF9-E6B2-4B80-818C-1AB8B5401D18";
paths = (
{
closed = 1;
nodes = (
"186 0 LINE",
"234 288 LINE SMOOTH",
"253 400 OFFCURVE",
"304 494 OFFCURVE",
"381 494 CURVE SMOOTH",
"436 494 OFFCURVE",
"457 448 OFFCURVE",
"443 366 CURVE SMOOTH",
"382 0 LINE",
"544 0 LINE",
"609 389 LINE SMOOTH",
"631 522 OFFCURVE",
"567 615 OFFCURVE",
"440 615 CURVE SMOOTH",
"352 615 OFFCURVE",
"307 570 OFFCURVE",
"277 510 CURVE",
"253 510 LINE",
"258 542 OFFCURVE",
"262 572 OFFCURVE",
"262 600 CURVE",
"118 600 LINE",
"118 576 OFFCURVE",
"110 516 OFFCURVE",
"100 456 CURVE SMOOTH",
"24 0 LINE"
);
}
);
width = 660;
}
);
leftKerningGroup = m;
rightKerningGroup = h;
unicode = 006E;
},
{
glyphname = eng;
lastChange = "2021-09-02 10:56:02 +0000";
layers = (
{
anchors = (
{
name = bottom;
position = "{315, 0}";
},
{
name = top;
position = "{315, 600}";
}
);
guideLines = (
{
angle = 260.5377;
position = "{444, 300}";
}
);
layerId = "53F1C36F-0CF6-4FBE-93F4-60C790418F6C";
paths = (
{
closed = 1;
nodes = (
"424 -200 LINE",
"457 -159 OFFCURVE",
"483 -114 OFFCURVE",
"499 -18 CURVE SMOOTH",
"566 386 LINE SMOOTH",
"586 507 OFFCURVE",
"544 610 OFFCURVE",
"408 610 CURVE SMOOTH",
"330 610 OFFCURVE",
"282 571 OFFCURVE",
"240 510 CURVE",
"216 510 LINE",
"222 544 OFFCURVE",
"226 574 OFFCURVE",
"226 600 CURVE",
"130 600 LINE",
"130 576 OFFCURVE",
"122 516 OFFCURVE",
"112 456 CURVE SMOOTH",
"36 0 LINE",
"144 0 LINE",
"192 288 LINE SMOOTH",
"214 420 OFFCURVE",
"280 520 OFFCURVE",
"373 520 CURVE SMOOTH",
"453 520 OFFCURVE",
"470 454 OFFCURVE",
"456 372 CURVE SMOOTH",
"394 0 LINE SMOOTH",
"379 -90 OFFCURVE",
"346 -150 OFFCURVE",
"310 -191 CURVE",
"310 -200 LINE"
);
}
);
width = 630;
},
{
anchors = (
{
name = bottom;
position = "{330, 0}";
},
{
name = top;
position = "{330, 600}";
}
);
guideLines = (
{
angle = 260.5377;
position = "{594, 300}";
}
);
layerId = "7BD6BBF9-E6B2-4B80-818C-1AB8B5401D18";
paths = (
{
closed = 1;
nodes = (
"468 -200 LINE",
"499 -160 OFFCURVE",
"526 -112 OFFCURVE",
"541 -19 CURVE SMOOTH",
"609 389 LINE SMOOTH",
"631 522 OFFCURVE",
"567 614 OFFCURVE",
"440 614 CURVE SMOOTH",
"352 614 OFFCURVE",
"307 570 OFFCURVE",
"277 510 CURVE",
"253 510 LINE",
"258 542 OFFCURVE",
"262 572 OFFCURVE",
"262 600 CURVE",
"118 600 LINE",
"118 576 OFFCURVE",
"110 516 OFFCURVE",
"100 456 CURVE SMOOTH",
"24 0 LINE",
"186 0 LINE",
"234 288 LINE SMOOTH",
"253 400 OFFCURVE",
"304 494 OFFCURVE",
"381 494 CURVE SMOOTH",
"436 494 OFFCURVE",
"457 448 OFFCURVE",
"443 366 CURVE SMOOTH",
"382 0 LINE SMOOTH",
"368 -82 OFFCURVE",
"342 -141 OFFCURVE",
"294 -194 CURVE",
"294 -200 LINE"
);
}
);
width = 660;
}
);
leftKerningGroup = m;
rightKerningGroup = h;
unicode = 014B;
},
{
glyphname = o;
lastChange = "2021-11-29 10:31:48 +0000";
layers = (
{
anchors = (
{
name = bottom;
position = "{250, 0}";
},
{
name = center;
position = "{300, 300}";
},
{
name = ogonek;
position = "{340, 0}";
},
{
name = top;
position = "{350, 600}";
},
{
name = topright;
position = "{560, 600}";
}
);
background = {
paths = (
{
closed = 1;
nodes = (
"453 -15 OFFCURVE",
"563 171 OFFCURVE",
"563 391 CURVE SMOOTH",
"563 530 OFFCURVE",
"496 615 OFFCURVE",
"352 615 CURVE SMOOTH",
"147 615 OFFCURVE",
"37 429 OFFCURVE",
"37 209 CURVE SMOOTH",
"37 70 OFFCURVE",
"104 -15 OFFCURVE",
"248 -15 CURVE SMOOTH"
);
},
{
closed = 1;
nodes = (
"182 73 OFFCURVE",
"148 127 OFFCURVE",
"148 218 CURVE SMOOTH",
"148 367 OFFCURVE",
"207 527 OFFCURVE",
"338 527 CURVE SMOOTH",
"418 527 OFFCURVE",
"452 473 OFFCURVE",
"452 382 CURVE SMOOTH",
"452 233 OFFCURVE",
"393 73 OFFCURVE",
"262 73 CURVE SMOOTH"
);
}
);
};
guideLines = (
{
angle = 260.5377;
position = "{555, 300}";
},
{
angle = 260.5377;
position = "{45, 300}";
},
{
angle = 260.5377;
position = "{445, 300}";
},
{
angle = 260.5377;
position = "{155, 300}";
},
{
angle = 180.5305;
position = "{94, 231}";
},
{
angle = -0.5305;
position = "{506, 371}";
},
{
angle = 89.3489;
position = "{327, 571}";
}
);
hints = (
{
horizontal = 1;
place = "{-50, -50}";
type = Stem;
},
{
horizontal = 1;
place = "{560, 40}";
type = Stem;
},
{
place = "{67, 30}";
type = Stem;
},
{
place = "{456, 11}";
type = Stem;
}
);
layerId = "53F1C36F-0CF6-4FBE-93F4-60C790418F6C";
paths = (
{
closed = 1;
nodes = (
"461 -15 OFFCURVE",
"560 165 OFFCURVE",
"560 370 CURVE SMOOTH",
"560 522 OFFCURVE",
"478 615 OFFCURVE",
"327 615 CURVE SMOOTH",
"138 615 OFFCURVE",
"40 435 OFFCURVE",
"40 230 CURVE SMOOTH",
"40 78 OFFCURVE",
"121 -15 OFFCURVE",
"273 -15 CURVE SMOOTH"
);
},
{
closed = 1;
nodes = (
"190 71 OFFCURVE",
"148 134 OFFCURVE",
"148 231 CURVE SMOOTH",
"148 370 OFFCURVE",
"205 529 OFFCURVE",
"326 529 CURVE SMOOTH",
"411 529 OFFCURVE",
"452 468 OFFCURVE",
"452 371 CURVE SMOOTH",
"452 231 OFFCURVE",
"397 71 OFFCURVE",
"275 71 CURVE SMOOTH"
);
}
);
width = 600;
},
{
anchors = (
{
name = bottom;
position = "{286, 0}";
},
{
name = center;
position = "{315, 300}";
},
{
name = ogonek;
position = "{376, 0}";
},
{
name = top;
position = "{346, 600}";
},
{
name = topright;
position = "{620, 600}";
}
);
background = {
paths = (
{
closed = 1;
nodes = (
"505 -15 OFFCURVE",
"607 190 OFFCURVE",
"607 382 CURVE SMOOTH",
"607 526 OFFCURVE",
"530 615 OFFCURVE",
"367 615 CURVE SMOOTH",
"125 615 OFFCURVE",
"23 410 OFFCURVE",
"23 218 CURVE SMOOTH",
"23 74 OFFCURVE",
"100 -15 OFFCURVE",
"263 -15 CURVE SMOOTH"
);
},
{
closed = 1;
nodes = (
"219 93 OFFCURVE",
"190 133 OFFCURVE",
"190 214 CURVE SMOOTH",
"190 305 OFFCURVE",
"220 507 OFFCURVE",
"349 507 CURVE SMOOTH",
"411 507 OFFCURVE",
"440 467 OFFCURVE",
"440 386 CURVE SMOOTH",
"440 295 OFFCURVE",
"410 93 OFFCURVE",
"281 93 CURVE SMOOTH"
);
}
);
};
guideLines = (
{
angle = 260.5377;
position = "{600, 300}";
},
{
angle = 260.5377;
position = "{30, 300}";
},
{
angle = 260.5377;
position = "{432, 300}";
},
{
angle = 260.5377;
position = "{198, 300}";
},
{
angle = 89.3489;
position = "{342, 571}";
}
);
layerId = "7BD6BBF9-E6B2-4B80-818C-1AB8B5401D18";
paths = (
{
closed = 1;
nodes = (
"524 -15 OFFCURVE",
"603 194 OFFCURVE",
"603 349 CURVE SMOOTH",
"603 525 OFFCURVE",
"502 615 OFFCURVE",
"345 615 CURVE SMOOTH",
"108 615 OFFCURVE",
"27 408 OFFCURVE",
"27 251 CURVE SMOOTH",
"27 76 OFFCURVE",
"128 -15 OFFCURVE",
"286 -15 CURVE SMOOTH"
);
},
{
closed = 1;
nodes = (
"223 93 OFFCURVE",
"193 143 OFFCURVE",
"193 227 CURVE SMOOTH",
"193 304 OFFCURVE",
"218 507 OFFCURVE",
"346 507 CURVE SMOOTH",
"405 507 OFFCURVE",
"437 464 OFFCURVE",
"437 375 CURVE SMOOTH",
"437 296 OFFCURVE",
"412 93 OFFCURVE",
"285 93 CURVE SMOOTH"
);
}
);
width = 630;
}
);
leftKerningGroup = c;
rightKerningGroup = b;
unicode = 006F;
},
{
glyphname = ohorn;
lastChange = "2021-09-02 10:56:02 +0000";
layers = (
{
anchors = (
{
name = bottom;
position = "{250, 0}";
},
{
name = center;
position = "{300, 300}";
},
{
name = ogonek;
position = "{321, 0}";
},
{
name = top;
position = "{350, 600}";
}
);
background = {
paths = (
{
closed = 1;
nodes = (
"461 -15 OFFCURVE",
"560 165 OFFCURVE",
"560 370 CURVE SMOOTH",
"560 522 OFFCURVE",
"478 615 OFFCURVE",
"327 615 CURVE SMOOTH",
"138 615 OFFCURVE",
"40 435 OFFCURVE",
"40 230 CURVE SMOOTH",
"40 78 OFFCURVE",
"121 -15 OFFCURVE",
"273 -15 CURVE SMOOTH"
);
},
{
closed = 1;
nodes = (
"190 73 OFFCURVE",
"148 134 OFFCURVE",
"148 231 CURVE SMOOTH",
"148 370 OFFCURVE",
"205 527 OFFCURVE",
"326 527 CURVE SMOOTH",
"411 527 OFFCURVE",
"452 468 OFFCURVE",
"452 371 CURVE SMOOTH",
"452 231 OFFCURVE",
"397 73 OFFCURVE",
"275 73 CURVE SMOOTH"
);
},
{
closed = 1;
nodes = (
"459 451 LINE",
"490 453 LINE SMOOTH",
"599 460 OFFCURVE",
"658 551 OFFCURVE",
"676 660 CURVE",
"592 660 LINE",
"581 591 OFFCURVE",
"548 531 OFFCURVE",
"484 519 CURVE SMOOTH",
"435 510 LINE"
);
}
);
};
guideLines = (
{
position = "{228, 510}";
}
);
hints = (
{
horizontal = 1;
place = "{-50, -50}";
type = Stem;
},
{
horizontal = 1;
place = "{560, 40}";
type = Stem;
},
{
place = "{67, 30}";
type = Stem;
},
{
place = "{456, 11}";
type = Stem;
}
);
layerId = "53F1C36F-0CF6-4FBE-93F4-60C790418F6C";
paths = (
{
closed = 1;
nodes = (
"461 -15 OFFCURVE",
"560 165 OFFCURVE",
"560 370 CURVE SMOOTH",
"560 405 OFFCURVE",
"556 437 OFFCURVE",
"547 466 CURVE",
"631 495 OFFCURVE",
"685 572 OFFCURVE",
"702 660 CURVE",
"612 660 LINE",
"601 601 OFFCURVE",
"575 546 OFFCURVE",
"531 522 CURVE",
"507 522 LINE",
"468.496 585.084 OFFCURVE",
"407.72 615 OFFCURVE",
"327 615 CURVE SMOOTH",
"138 615 OFFCURVE",
"40 435 OFFCURVE",
"40 230 CURVE SMOOTH",
"40 78 OFFCURVE",
"121 -15 OFFCURVE",
"273 -15 CURVE SMOOTH"
);
},
{
closed = 1;
nodes = (
"190 71 OFFCURVE",
"148 134 OFFCURVE",
"148 231 CURVE SMOOTH",
"148 370 OFFCURVE",
"205 529 OFFCURVE",
"326 529 CURVE SMOOTH",
"411 529 OFFCURVE",
"452 468 OFFCURVE",
"452 371 CURVE SMOOTH",
"452 231 OFFCURVE",
"397 71 OFFCURVE",
"275 71 CURVE SMOOTH"
);
}
);
width = 620;
},
{
anchors = (
{
name = bottom;
position = "{286, 0}";
},
{
name = center;
position = "{315, 300}";
},
{
name = ogonek;
position = "{336, 0}";
},
{
name = top;
position = "{346, 600}";
}
);
layerId = "7BD6BBF9-E6B2-4B80-818C-1AB8B5401D18";
paths = (
{
closed = 1;
nodes = (
"524 -15 OFFCURVE",
"603 194 OFFCURVE",
"603 349 CURVE SMOOTH",
"603 389 OFFCURVE",
"598 425 OFFCURVE",
"588 456 CURVE",
"679 483 OFFCURVE",
"732 556 OFFCURVE",
"742 660 CURVE",
"621 660 LINE",
"611 606 OFFCURVE",
"600 565 OFFCURVE",
"549 540 CURVE",
"525 540 LINE",
"490 585 OFFCURVE",
"426 615 OFFCURVE",
"345 615 CURVE SMOOTH",
"108 615 OFFCURVE",
"27 408 OFFCURVE",
"27 251 CURVE SMOOTH",
"27 76 OFFCURVE",
"128 -15 OFFCURVE",
"286 -15 CURVE SMOOTH"
);
},
{
closed = 1;
nodes = (
"223 93 OFFCURVE",
"193 143 OFFCURVE",
"193 227 CURVE SMOOTH",
"193 304 OFFCURVE",
"218 507 OFFCURVE",
"346 507 CURVE SMOOTH",
"405 507 OFFCURVE",
"437 464 OFFCURVE",
"437 375 CURVE SMOOTH",
"437 296 OFFCURVE",
"412 93 OFFCURVE",
"285 93 CURVE SMOOTH"
);
}
);
width = 650;
}
);
leftKerningGroup = c;
rightKerningGroup = ohorn;
unicode = 01A1;
},
{
glyphname = oslash;
lastChange = "2021-09-02 10:56:02 +0000";
layers = (
{
anchors = (
{
name = _center;
position = "{300, 300}";
},
{
name = bottom;
position = "{250, 0}";
},
{
name = center;
position = "{300, 300}";
},
{
name = ogonek;
position = "{340, 0}";
},
{
name = top;
position = "{350, 600}";
},
{
name = topright;
position = "{560, 600}";
}
);
hints = (
{
horizontal = 1;
place = "{-50, -50}";
type = Stem;
},
{
horizontal = 1;
place = "{560, 40}";
type = Stem;
},
{
place = "{67, 30}";
type = Stem;
},
{
place = "{456, 11}";
type = Stem;
},
{
horizontal = 1;
place = "{-13, 89}";
type = Stem;
},
{
horizontal = 1;
place = "{633, 89}";
type = Stem;
},
{
origin = "{0, 18}";
target = "{0, 19}";
type = Stem;
},
{
origin = "{0, 7}";
target = "{0, 6}";
type = Stem;
}
);
layerId = "53F1C36F-0CF6-4FBE-93F4-60C790418F6C";
paths = (
{
closed = 1;
nodes = (
"461 -15 OFFCURVE",
"560 165 OFFCURVE",
"560 370 CURVE SMOOTH",
"560 418.559 OFFCURVE",
"551.631 461.097 OFFCURVE",
"535.317 496.505 CURVE",
"600 564 LINE",
"552 612 LINE",
"496.108 553.678 LINE",
"456.832 593.28 OFFCURVE",
"399.973 615 OFFCURVE",
"327 615 CURVE SMOOTH",
"138 615 OFFCURVE",
"40 435 OFFCURVE",
"40 230 CURVE SMOOTH",
"40 181.373 OFFCURVE",
"48.29 138.785 OFFCURVE",
"64.542 103.348 CURVE",
"0 36 LINE",
"48 -12 LINE",
"103.701 46.123 LINE",
"142.859 6.647 OFFCURVE",
"199.667 -15 OFFCURVE",
"273 -15 CURVE SMOOTH"
);
},
{
closed = 1;
nodes = (
"229 71 OFFCURVE",
"196 89 OFFCURVE",
"176 120 CURVE",
"406 360 LINE SMOOTH",
"421 376 OFFCURVE",
"431 391 OFFCURVE",
"439 407 CURVE",
"463 407 LINE",
"463 289 OFFCURVE",
"416 71 OFFCURVE",
"275 71 CURVE SMOOTH"
);
},
{
closed = 1;
nodes = (
"138 311 OFFCURVE",
"185 529 OFFCURVE",
"326 529 CURVE SMOOTH",
"371.723 529 OFFCURVE",
"404.715 511.349 OFFCURVE",
"425.441 479.939 CURVE",
"195 240 LINE SMOOTH",
"180 224 OFFCURVE",
"170 209 OFFCURVE",
"162 193 CURVE",
"138 193 LINE"
);
}
);
width = 600;
},
{
anchors = (
{
name = _center;
position = "{315, 300}";
},
{
name = bottom;
position = "{286, 0}";
},
{
name = center;
position = "{315, 300}";
},
{
name = ogonek;
position = "{376, 0}";
},
{
name = top;
position = "{346, 600}";
},
{
name = topright;
position = "{620, 600}";
}
);
layerId = "7BD6BBF9-E6B2-4B80-818C-1AB8B5401D18";
paths = (
{
closed = 1;
nodes = (
"524 -15 OFFCURVE",
"603 194 OFFCURVE",
"603 349 CURVE SMOOTH",
"603 409.975 OFFCURVE",
"590.877 460.627 OFFCURVE",
"568.503 500.791 CURVE",
"621 555 LINE",
"561 615 LINE",
"512.931 565.363 LINE",
"469.702 598.348 OFFCURVE",
"412.532 615 OFFCURVE",
"345 615 CURVE SMOOTH",
"108 615 OFFCURVE",
"27 408 OFFCURVE",
"27 251 CURVE SMOOTH",
"27 190.244 OFFCURVE",
"39.174 139.612 OFFCURVE",
"61.68 99.398 CURVE",
"9 45 LINE",
"69 -15 LINE",
"117.324 34.9 LINE",
"160.684 1.819 OFFCURVE",
"218.075 -15 OFFCURVE",
"286 -15 CURVE SMOOTH"
);
},
{
closed = 1;
nodes = (
"253 93 OFFCURVE",
"228 106 OFFCURVE",
"213 133 CURVE",
"375 300 LINE SMOOTH",
"396 321 OFFCURVE",
"413 341 OFFCURVE",
"426 365 CURVE",
"450 365 LINE",
"448 283 OFFCURVE",
"409 93 OFFCURVE",
"285 93 CURVE SMOOTH"
);
},
{
closed = 1;
nodes = (
"183 317 OFFCURVE",
"222.257 507 OFFCURVE",
"346 507 CURVE SMOOTH",
"378.482 507 OFFCURVE",
"402.78 493.967 OFFCURVE",
"418.061 467.4 CURVE",
"256 300 LINE SMOOTH",
"235 279 OFFCURVE",
"218 259 OFFCURVE",
"205 235 CURVE",
"181 235 LINE"
);
}
);
width = 630;
}
);
leftKerningGroup = c;
rightKerningGroup = b;
unicode = 00F8;
},
{
glyphname = oe;
lastChange = "2021-11-29 10:31:48 +0000";
layers = (
{
anchors = (
{
name = bottom;
position = "{455, 0}";
},
{
name = top;
position = "{535, 600}";
}
);
hints = (
{
horizontal = 1;
place = "{-50, -50}";
type = Stem;
},
{
horizontal = 1;
place = "{560, 40}";
type = Stem;
},
{
place = "{67, 30}";
type = Stem;
},
{
place = "{456, 11}";
type = Stem;
},
{
horizontal = 1;
place = "{-12, 98}";
type = Stem;
},
{
horizontal = 1;
place = "{272, 78}";
type = Stem;
},
{
horizontal = 1;
place = "{612, 86}";
type = Stem;
},
{
place = "{441, 115}";
type = Stem;
},
{
place = "{817, 94}";
type = Stem;
},
{
horizontal = 1;
place = "{-50, -50}";
type = Stem;
},
{
horizontal = 1;
place = "{560, 40}";
type = Stem;
},
{
place = "{67, 30}";
type = Stem;
},
{
place = "{456, 11}";
type = Stem;
},
{
horizontal = 1;
origin = "{0, 6}";
target = "{0, 13}";
type = Stem;
},
{
horizontal = 1;
origin = "{0, 24}";
target = "{0, 23}";
type = Stem;
},
{
horizontal = 1;
origin = "{0, 29}";
target = "{0, 19}";
type = Stem;
},
{
origin = "{0, 9}";
target = "{0, 23}";
type = Stem;
},
{
origin = "{0, 22}";
target = "{0, 25}";
type = Stem;
}
);
layerId = "53F1C36F-0CF6-4FBE-93F4-60C790418F6C";
paths = (
{
closed = 1;
nodes = (
"356 -15 OFFCURVE",
"412 23 OFFCURVE",
"456 80 CURVE",
"480 80 LINE",
"511 18 OFFCURVE",
"567 -14 OFFCURVE",
"646 -14 CURVE SMOOTH",
"777 -14 OFFCURVE",
"849 67 OFFCURVE",
"890 143 CURVE",
"803 198 LINE",
"777 141 OFFCURVE",
"732 74 OFFCURVE",
"654 74 CURVE SMOOTH",
"587 74 OFFCURVE",
"534 124 OFFCURVE",
"534 251 CURVE SMOOTH",
"534 380 OFFCURVE",
"589 529 OFFCURVE",
"714 529 CURVE SMOOTH",
"801 529 OFFCURVE",
"832 456 OFFCURVE",
"817 362 CURVE",
"489 362 LINE",
"477 284 LINE",
"909 284 LINE",
"914 314 LINE SMOOTH",
"947 514 OFFCURVE",
"865 615 OFFCURVE",
"721 615 CURVE SMOOTH",
"636 615 OFFCURVE",
"570 580 OFFCURVE",
"534 520 CURVE",
"510 520 LINE",
"480 578 OFFCURVE",
"419 615 OFFCURVE",
"331 615 CURVE SMOOTH",
"132 615 OFFCURVE",
"40 424 OFFCURVE",
"40 244 CURVE SMOOTH",
"40 75 OFFCURVE",
"121 -15 OFFCURVE",
"268 -15 CURVE SMOOTH"
);
},
{
closed = 1;
nodes = (
"190 73 OFFCURVE",
"148 134 OFFCURVE",
"148 240 CURVE SMOOTH",
"148 353 OFFCURVE",
"195 527 OFFCURVE",
"332 527 CURVE SMOOTH",
"411 527 OFFCURVE",
"452 468 OFFCURVE",
"452 361 CURVE SMOOTH",
"452 247 OFFCURVE",
"406 73 OFFCURVE",
"270 73 CURVE SMOOTH"
);
}
);
width = 960;
},
{
anchors = (
{
name = bottom;
position = "{465, 0}";
},
{
name = top;
position = "{545, 600}";
}
);
guideLines = (
{
position = "{509, 522}";
},
{
angle = 260.5377;
position = "{532, 520}";
}
);
layerId = "7BD6BBF9-E6B2-4B80-818C-1AB8B5401D18";
paths = (
{
closed = 1;
nodes = (
"361 -15 OFFCURVE",
"426 24 OFFCURVE",
"466 80 CURVE",
"490 80 LINE",
"525.409 17.674 OFFCURVE",
"589.908 -15 OFFCURVE",
"672 -15 CURVE SMOOTH",
"796 -15 OFFCURVE",
"871 45 OFFCURVE",
"918 124 CURVE",
"794 205 LINE",
"770 147 OFFCURVE",
"733 99 OFFCURVE",
"672 99 CURVE SMOOTH",
"614 99 OFFCURVE",
"577 141 OFFCURVE",
"577 235 CURVE SMOOTH",
"577 322 OFFCURVE",
"602 507 OFFCURVE",
"717 507 CURVE SMOOTH",
"771 507 OFFCURVE",
"816 464 OFFCURVE",
"799 364 CURVE",
"497 364 LINE",
"497 262 LINE",
"944 262 LINE",
"950 299 LINE SMOOTH",
"985 517 OFFCURVE",
"875 615 OFFCURVE",
"723 615 CURVE SMOOTH",
"643 615 OFFCURVE",
"578 576 OFFCURVE",
"544 520 CURVE",
"520 520 LINE",
"487.16 582.858 OFFCURVE",
"417.044 615 OFFCURVE",
"328 615 CURVE SMOOTH",
"104 615 OFFCURVE",
"27 408 OFFCURVE",
"27 251 CURVE SMOOTH",
"27 76 OFFCURVE",
"123 -15 OFFCURVE",
"273 -15 CURVE SMOOTH"
);
},
{
closed = 1;
nodes = (
"223 93 OFFCURVE",
"193 143 OFFCURVE",
"193 227 CURVE SMOOTH",
"193 304 OFFCURVE",
"218 507 OFFCURVE",
"346 507 CURVE SMOOTH",
"405 507 OFFCURVE",
"437 464 OFFCURVE",
"437 375 CURVE SMOOTH",
"437 296 OFFCURVE",
"412 93 OFFCURVE",
"285 93 CURVE SMOOTH"
);
}
);
width = 980;
}
);
leftKerningGroup = c;
rightKerningGroup = e;
unicode = 0153;
},
{
glyphname = p;
lastChange = "2021-11-29 10:31:48 +0000";
layers = (
{
guideLines = (
{
angle = 260.5377;
position = "{86, 300}";
},
{
position = "{57, -200}";
}
);
hints = (
{
horizontal = 1;
place = "{565, 40}";
type = Stem;
},
{
horizontal = 1;
place = "{-65, 40}";
type = Stem;
},
{
horizontal = 1;
place = "{-250, 21}";
target = up;
type = BottomGhost;
},
{
horizontal = 1;
place = "{550, -20}";
target = down;
type = TopGhost;
},
{
place = "{38, 56}";
type = Stem;
},
{
place = "{453, 62}";
type = Stem;
}
);
layerId = "53F1C36F-0CF6-4FBE-93F4-60C790418F6C";
paths = (
{
closed = 1;
nodes = (
"111 -200 LINE",
"131 -60 LINE SMOOTH",
"141 12 OFFCURVE",
"144 40 OFFCURVE",
"145 60 CURVE",
"169 60 LINE",
"185 21 OFFCURVE",
"229 -12 OFFCURVE",
"303 -12 CURVE SMOOTH",
"472 -12 OFFCURVE",
"590 168 OFFCURVE",
"590 372 CURVE SMOOTH",
"590 526 OFFCURVE",
"524 612 OFFCURVE",
"406 612 CURVE SMOOTH",
"315 612 OFFCURVE",
"265 560 OFFCURVE",
"240 510 CURVE",
"216 510 LINE",
"222 544 OFFCURVE",
"226 574 OFFCURVE",
"226 600 CURVE",
"130 600 LINE",
"130 577 OFFCURVE",
"122 516 OFFCURVE",
"112 456 CURVE SMOOTH",
"3 -200 LINE"
);
},
{
closed = 1;
nodes = (
"239 74 OFFCURVE",
"195 99 OFFCURVE",
"166 132 CURVE",
"182 229 LINE SMOOTH",
"208 384 OFFCURVE",
"259 526 OFFCURVE",
"376 526 CURVE SMOOTH",
"440 526 OFFCURVE",
"480 482 OFFCURVE",
"480 368 CURVE SMOOTH",
"480 207 OFFCURVE",
"401 74 OFFCURVE",
"286 74 CURVE SMOOTH"
);
}
);
width = 630;
},
{
guideLines = (
{
angle = 260.5377;
position = "{74, 300}";
},
{
angle = 260.5377;
position = "{236, 300}";
}
);
layerId = "7BD6BBF9-E6B2-4B80-818C-1AB8B5401D18";
paths = (
{
closed = 1;
nodes = (
"153 -200 LINE",
"173 -60 LINE SMOOTH",
"183 12 OFFCURVE",
"186 40 OFFCURVE",
"187 60 CURVE",
"211 60 LINE",
"231 22 OFFCURVE",
"269 -12 OFFCURVE",
"347 -12 CURVE SMOOTH",
"534 -12 OFFCURVE",
"632 195 OFFCURVE",
"632 373 CURVE SMOOTH",
"632 526 OFFCURVE",
"556 610 OFFCURVE",
"443 610 CURVE SMOOTH",
"353 610 OFFCURVE",
"303 558 OFFCURVE",
"277 510 CURVE",
"253 510 LINE",
"258 542 OFFCURVE",
"262 572 OFFCURVE",
"262 600 CURVE",
"118 600 LINE",
"118 576 OFFCURVE",
"110 516 OFFCURVE",
"100 456 CURVE SMOOTH",
"-9 -200 LINE"
);
},
{
closed = 1;
nodes = (
"262 102 OFFCURVE",
"232 115 OFFCURVE",
"208 132 CURVE",
"227 246 LINE SMOOTH",
"247 366 OFFCURVE",
"302 490 OFFCURVE",
"385 490 CURVE SMOOTH",
"433 490 OFFCURVE",
"470 454 OFFCURVE",
"470 367 CURVE SMOOTH",
"470 225 OFFCURVE",
"404 102 OFFCURVE",
"300 102 CURVE SMOOTH"
);
}
);
width = 660;
}
);
leftKerningGroup = p;
rightKerningGroup = b;
unicode = 0070;
},
{
glyphname = thorn;
lastChange = "2021-09-02 10:56:02 +0000";
layers = (
{
guideLines = (
{
position = "{229, 522}";
}
);
hints = (
{
horizontal = 1;
place = "{-200, 21}";
target = up;
type = BottomGhost;
},
{
horizontal = 1;
place = "{-15, 90}";
type = Stem;
},
{
horizontal = 1;
place = "{615, 90}";
type = Stem;
},
{
horizontal = 1;
place = "{800, -20}";
target = down;
type = TopGhost;
},
{
place = "{5, 106}";
type = Stem;
},
{
place = "{490, 114}";
type = Stem;
}
);
layerId = "53F1C36F-0CF6-4FBE-93F4-60C790418F6C";
paths = (
{
closed = 1;
nodes = (
"111 -200 LINE",
"149 54 LINE",
"173 54 LINE",
"188 21 OFFCURVE",
"229 -12 OFFCURVE",
"303 -12 CURVE SMOOTH",
"472 -12 OFFCURVE",
"590 168 OFFCURVE",
"590 372 CURVE SMOOTH",
"590 526 OFFCURVE",
"524 612 OFFCURVE",
"410 612 CURVE SMOOTH",
"327 612 OFFCURVE",
"275 565 OFFCURVE",
"247 522 CURVE",
"222 522 LINE",
"277 800 LINE",
"169 800 LINE",
"3 -200 LINE"
);
},
{
closed = 1;
nodes = (
"239 74 OFFCURVE",
"195 99 OFFCURVE",
"166 132 CURVE",
"182 229 LINE SMOOTH",
"208 384 OFFCURVE",
"258 526 OFFCURVE",
"375 526 CURVE SMOOTH",
"440 526 OFFCURVE",
"480 482 OFFCURVE",
"480 368 CURVE SMOOTH",
"480 207 OFFCURVE",
"401 74 OFFCURVE",
"286 74 CURVE SMOOTH"
);
}
);
width = 640;
},
{
layerId = "7BD6BBF9-E6B2-4B80-818C-1AB8B5401D18";
paths = (
{
closed = 1;
nodes = (
"153 -200 LINE",
"187 60 LINE",
"211 60 LINE",
"231 22 OFFCURVE",
"269 -12 OFFCURVE",
"347 -12 CURVE SMOOTH",
"534 -12 OFFCURVE",
"632 195 OFFCURVE",
"632 373 CURVE SMOOTH",
"632 526 OFFCURVE",
"556 610 OFFCURVE",
"443 610 CURVE SMOOTH",
"353 610 OFFCURVE",
"305 558 OFFCURVE",
"287 522 CURVE",
"263 522 LINE",
"319 800 LINE",
"157 800 LINE",
"-9 -200 LINE"
);
},
{
closed = 1;
nodes = (
"262 102 OFFCURVE",
"232 115 OFFCURVE",
"208 132 CURVE",
"227 246 LINE SMOOTH",
"247 366 OFFCURVE",
"302 490 OFFCURVE",
"385 490 CURVE SMOOTH",
"433 490 OFFCURVE",
"470 454 OFFCURVE",
"470 367 CURVE SMOOTH",
"470 225 OFFCURVE",
"404 102 OFFCURVE",
"300 102 CURVE SMOOTH"
);
}
);
width = 660;
}
);
leftKerningGroup = b;
rightKerningGroup = b;
unicode = 00FE;
},
{
glyphname = q;
lastChange = "2021-11-29 10:31:48 +0000";
layers = (
{
background = {
paths = (
{
closed = 1;
nodes = (
"465 540 LINE",
"448 579 OFFCURVE",
"404 612 OFFCURVE",
"330 612 CURVE SMOOTH",
"159 612 OFFCURVE",
"40 432 OFFCURVE",
"40 228 CURVE SMOOTH",
"40 74 OFFCURVE",
"104 -12 OFFCURVE",
"220 -12 CURVE SMOOTH",
"294 -12 OFFCURVE",
"343 25 OFFCURVE",
"374 72 CURVE",
"398 72 LINE",
"353 -200 LINE",
"461 -200 LINE",
"594 600 LINE",
"498 600 LINE",
"489 540 LINE"
);
},
{
closed = 1;
nodes = (
"422 216 OFFCURVE",
"370 74 OFFCURVE",
"254 74 CURVE SMOOTH",
"190 74 OFFCURVE",
"150 118 OFFCURVE",
"150 232 CURVE SMOOTH",
"150 393 OFFCURVE",
"229 526 OFFCURVE",
"344 526 CURVE SMOOTH",
"391 526 OFFCURVE",
"436 504 OFFCURVE",
"465 474 CURVE",
"448 371 LINE SMOOTH"
);
}
);
};
guideLines = (
{
angle = 260.5377;
position = "{436, 300}";
},
{
angle = 260.5377;
position = "{544, 300}";
},
{
angle = 260.5377;
position = "{45, 300}";
}
);
hints = (
{
horizontal = 1;
place = "{550, -50}";
type = Stem;
},
{
horizontal = 1;
place = "{-65, 40}";
type = Stem;
},
{
horizontal = 1;
place = "{-200, 21}";
target = up;
type = BottomGhost;
},
{
horizontal = 1;
place = "{550, -20}";
target = down;
type = TopGhost;
},
{
place = "{489, 73}";
type = Stem;
},
{
place = "{107, 62}";
type = Stem;
}
);
layerId = "53F1C36F-0CF6-4FBE-93F4-60C790418F6C";
paths = (
{
closed = 1;
nodes = (
"461 -200 LINE",
"594 600 LINE",
"498 600 LINE",
"489 540 LINE",
"465 540 LINE",
"448 579 OFFCURVE",
"404 612 OFFCURVE",
"330 612 CURVE SMOOTH",
"159 612 OFFCURVE",
"40 432 OFFCURVE",
"40 228 CURVE SMOOTH",
"40 74 OFFCURVE",
"104 -12 OFFCURVE",
"220 -12 CURVE SMOOTH",
"303 -12 OFFCURVE",
"355 35 OFFCURVE",
"389 90 CURVE",
"414 90 LINE",
"403 48 OFFCURVE",
"397 24 OFFCURVE",
"392 0 CURVE SMOOTH",
"353 -200 LINE"
);
},
{
closed = 1;
nodes = (
"190 74 OFFCURVE",
"150 118 OFFCURVE",
"150 232 CURVE SMOOTH",
"150 393 OFFCURVE",
"229 526 OFFCURVE",
"344 526 CURVE SMOOTH",
"391 526 OFFCURVE",
"436 504 OFFCURVE",
"465 474 CURVE",
"448 371 LINE SMOOTH",
"422 216 OFFCURVE",
"370 74 OFFCURVE",
"254 74 CURVE SMOOTH"
);
}
);
width = 630;
},
{
guideLines = (
{
angle = 260.5377;
position = "{34, 300}";
},
{
angle = 260.5377;
position = "{586, 300}";
},
{
angle = 260.5377;
position = "{424, 300}";
},
{
angle = 260.5377;
position = "{492, 600}";
}
);
layerId = "7BD6BBF9-E6B2-4B80-818C-1AB8B5401D18";
paths = (
{
closed = 1;
nodes = (
"503 -200 LINE",
"636 600 LINE",
"492 600 LINE",
"482 540 LINE",
"458 540 LINE",
"440 578 OFFCURVE",
"401 612 OFFCURVE",
"320 612 CURVE SMOOTH",
"126 612 OFFCURVE",
"28 405 OFFCURVE",
"28 227 CURVE SMOOTH",
"28 74 OFFCURVE",
"104 -10 OFFCURVE",
"217 -10 CURVE SMOOTH",
"307 -10 OFFCURVE",
"355 42 OFFCURVE",
"383 90 CURVE",
"407 90 LINE",
"396 48 OFFCURVE",
"390 24 OFFCURVE",
"385 0 CURVE SMOOTH",
"346 -200 LINE"
);
},
{
closed = 1;
nodes = (
"227 110 OFFCURVE",
"190 146 OFFCURVE",
"190 233 CURVE SMOOTH",
"190 375 OFFCURVE",
"256 498 OFFCURVE",
"360 498 CURVE SMOOTH",
"398 498 OFFCURVE",
"428 485 OFFCURVE",
"452 468 CURVE",
"433 354 LINE SMOOTH",
"413 234 OFFCURVE",
"358 110 OFFCURVE",
"275 110 CURVE SMOOTH"
);
}
);
width = 660;
}
);
leftKerningGroup = c;
rightKerningGroup = q;
unicode = 0071;
},
{
glyphname = r;
lastChange = "2021-12-06 19:26:31 +0000";
layers = (
{
anchors = (
{
name = bottom;
position = "{92, 0}";
},
{
name = top;
position = "{277, 600}";
}
);
background = {
paths = (
{
closed = 1;
nodes = (
"144 0 LINE",
"190 276 LINE SMOOTH",
"218 444 OFFCURVE",
"283 504 OFFCURVE",
"376 504 CURVE SMOOTH",
"404 504 LINE",
"421 606 LINE",
"398 606 LINE SMOOTH",
"284 606 OFFCURVE",
"256 546 OFFCURVE",
"238 498 CURVE",
"214 498 LINE",
"222 540 OFFCURVE",
"224 574 OFFCURVE",
"224 600 CURVE",
"130 600 LINE",
"130 576 OFFCURVE",
"122 516 OFFCURVE",
"112 456 CURVE SMOOTH",
"36 0 LINE"
);
}
);
};
guideLines = (
{
angle = 260.5377;
position = "{194, 300}";
},
{
angle = 260.5377;
position = "{86, 300}";
}
);
hints = (
{
horizontal = 1;
place = "{-50, 21}";
target = up;
type = BottomGhost;
},
{
horizontal = 1;
origin = "{0, 7}";
target = "{0, 4}";
type = Stem;
},
{
horizontal = 1;
origin = "{0, 7}";
target = down;
type = TopGhost;
},
{
place = "{42, 102}";
type = Stem;
}
);
layerId = "53F1C36F-0CF6-4FBE-93F4-60C790418F6C";
paths = (
{
closed = 1;
nodes = (
"144 0 LINE",
"190 276 LINE SMOOTH",
"218 444 OFFCURVE",
"283 504 OFFCURVE",
"376 504 CURVE SMOOTH",
"404 504 LINE",
"421 606 LINE",
"398 606 LINE SMOOTH",
"304 606 OFFCURVE",
"265 564 OFFCURVE",
"238 498 CURVE",
"214 498 LINE",
"222 540 OFFCURVE",
"224 574 OFFCURVE",
"224 600 CURVE",
"130 600 LINE",
"130 576 OFFCURVE",
"122 516 OFFCURVE",
"112 456 CURVE SMOOTH",
"36 0 LINE"
);
}
);
width = 400;
},
{
anchors = (
{
name = bottom;
position = "{104, 0}";
},
{
name = top;
position = "{307, 600}";
}
);
guideLines = (
{
angle = 260.5377;
position = "{74, 300}";
},
{
angle = 260.5377;
position = "{236, 300}";
}
);
layerId = "7BD6BBF9-E6B2-4B80-818C-1AB8B5401D18";
paths = (
{
closed = 1;
nodes = (
"186 0 LINE",
"236 300 LINE SMOOTH",
"256 420 OFFCURVE",
"292 460 OFFCURVE",
"404 460 CURVE SMOOTH",
"454 460 LINE",
"478 606 LINE",
"440 606 LINE SMOOTH",
"338 606 OFFCURVE",
"294 550 OFFCURVE",
"275 498 CURVE",
"251 498 LINE",
"257 530 OFFCURVE",
"262 572 OFFCURVE",
"262 600 CURVE",
"118 600 LINE",
"118 576 OFFCURVE",
"110 516 OFFCURVE",
"100 456 CURVE SMOOTH",
"24 0 LINE"
);
}
);
width = 450;
}
);
leftKerningGroup = m;
rightKerningGroup = r;
unicode = 0072;
},
{
glyphname = s;
lastChange = "2021-11-29 10:31:48 +0000";
layers = (
{
anchors = (
{
name = bottom;
position = "{237, 0}";
},
{
name = top;
position = "{289, 594}";
}
);
background = {
paths = (
{
closed = 1;
nodes = (
"342 -15 OFFCURVE",
"440 68 OFFCURVE",
"440 192 CURVE SMOOTH",
"440 361 OFFCURVE",
"183 323 OFFCURVE",
"183 440 CURVE SMOOTH",
"183 491 OFFCURVE",
"218 531 OFFCURVE",
"279 531 CURVE SMOOTH",
"347 531 OFFCURVE",
"365 482 OFFCURVE",
"362 432 CURVE",
"464 432 LINE",
"474 545 OFFCURVE",
"418 615 OFFCURVE",
"299 615 CURVE SMOOTH",
"173 615 OFFCURVE",
"79 534 OFFCURVE",
"79 414 CURVE SMOOTH",
"79 247 OFFCURVE",
"334 280 OFFCURVE",
"334 166 CURVE SMOOTH",
"334 109 OFFCURVE",
"291 69 OFFCURVE",
"224 69 CURVE SMOOTH",
"140 69 OFFCURVE",
"113 132 OFFCURVE",
"118 192 CURVE",
"16 192 LINE",
"1 67 OFFCURVE",
"74 -15 OFFCURVE",
"209 -15 CURVE SMOOTH"
);
}
);
};
guideLines = (
{
angle = 13.7608;
position = "{421, 432}";
},
{
angle = 13.4957;
position = "{50, 186}";
},
{
angle = 260.5377;
position = "{460, 300}";
},
{
angle = 260.5377;
position = "{34, 300}";
},
{
angle = 156.1112;
position = "{314, 331}";
},
{
angle = 260.5377;
position = "{210, 300}";
},
{
angle = 260.5377;
position = "{309, 300}";
},
{
angle = 156.1112;
position = "{206, 275}";
},
{
angle = 207.4076;
position = "{260, 303}";
},
{
angle = 66.1112;
position = "{260, 303}";
},
{
angle = 66.1112;
position = "{220, 303}";
},
{
angle = 66.1112;
position = "{280, 303}";
}
);
hints = (
{
horizontal = 1;
place = "{-15, 86}";
type = Stem;
},
{
horizontal = 1;
place = "{615, 86}";
type = Stem;
},
{
place = "{61, 102}";
type = Stem;
},
{
place = "{398, 102}";
type = Stem;
}
);
layerId = "53F1C36F-0CF6-4FBE-93F4-60C790418F6C";
paths = (
{
closed = 1;
nodes = (
"370 -15 OFFCURVE",
"449 69 OFFCURVE",
"449 171 CURVE SMOOTH",
"449 271 OFFCURVE",
"371 308 OFFCURVE",
"298 339 CURVE",
"245 361 LINE",
"201 379 OFFCURVE",
"174 407 OFFCURVE",
"174 448 CURVE SMOOTH",
"174 493 OFFCURVE",
"211 531 OFFCURVE",
"275 531 CURVE SMOOTH",
"348 531 OFFCURVE",
"383 483 OFFCURVE",
"383 420 CURVE",
"479 443 LINE",
"473 549 OFFCURVE",
"403 615 OFFCURVE",
"284 615 CURVE SMOOTH",
"150 615 OFFCURVE",
"72 533 OFFCURVE",
"72 435 CURVE SMOOTH",
"72 342 OFFCURVE",
"139 303 OFFCURVE",
"207 274 CURVE",
"259 252 LINE",
"316 229 OFFCURVE",
"347 198 OFFCURVE",
"347 156 CURVE SMOOTH",
"347 111 OFFCURVE",
"314 69 OFFCURVE",
"237 69 CURVE SMOOTH",
"148 69 OFFCURVE",
"99 129 OFFCURVE",
"99 200 CURVE",
"3 177 LINE",
"9 64 OFFCURVE",
"98 -15 OFFCURVE",
"232 -15 CURVE SMOOTH"
);
}
);
width = 500;
},
{
anchors = (
{
name = bottom;
position = "{242, 0}";
},
{
name = top;
position = "{297, 600}";
}
);
background = {
paths = (
{
closed = 1;
nodes = (
"378 -12 OFFCURVE",
"475 65 OFFCURVE",
"475 177 CURVE SMOOTH",
"475 357 OFFCURVE",
"229 358 OFFCURVE",
"229 450 CURVE SMOOTH",
"229 478 OFFCURVE",
"252 497 OFFCURVE",
"288 497 CURVE SMOOTH",
"333 497 OFFCURVE",
"360 463 OFFCURVE",
"373 413 CURVE",
"507 445 LINE",
"488 543 OFFCURVE",
"418 612 OFFCURVE",
"290 612 CURVE SMOOTH",
"152 612 OFFCURVE",
"81 532 OFFCURVE",
"81 438 CURVE SMOOTH",
"81 262 OFFCURVE",
"327 262 OFFCURVE",
"327 161 CURVE SMOOTH",
"327 125 OFFCURVE",
"296 103 OFFCURVE",
"252 103 CURVE SMOOTH",
"183 103 OFFCURVE",
"152 158 OFFCURVE",
"142 206 CURVE",
"4 173 LINE",
"22 93 OFFCURVE",
"86 -12 OFFCURVE",
"244 -12 CURVE SMOOTH"
);
}
);
};
guideLines = (
{
angle = 156.2505;
position = "{234, 241}";
},
{
angle = -23.7495;
position = "{291, 372}";
},
{
angle = 13.7608;
position = "{431, 432}";
},
{
angle = 13.4957;
position = "{60, 186}";
},
{
angle = 90;
position = "{320, 148}";
},
{
angle = 90;
position = "{470, 171}";
},
{
angle = 90;
position = "{220, 454}";
},
{
angle = 90;
position = "{70, 435}";
},
{
position = "{244, 93}";
},
{
angle = 90;
position = "{10, 177}";
},
{
angle = 90;
position = "{154, 212}";
},
{
angle = 90;
position = "{10, 174}";
},
{
angle = 90;
position = "{492, 443}";
},
{
angle = 90;
position = "{348, 408}";
},
{
position = "{282, 507}";
}
);
layerId = "7BD6BBF9-E6B2-4B80-818C-1AB8B5401D18";
paths = (
{
closed = 1;
nodes = (
"388 -15 OFFCURVE",
"477 75 OFFCURVE",
"477 184 CURVE SMOOTH",
"477 289 OFFCURVE",
"394 330 OFFCURVE",
"314 363 CURVE SMOOTH",
"266 383 LINE SMOOTH",
"237 395 OFFCURVE",
"214 415 OFFCURVE",
"214 447 CURVE SMOOTH",
"214 479 OFFCURVE",
"237 507 OFFCURVE",
"281 507 CURVE SMOOTH",
"331 507 OFFCURVE",
"357 472 OFFCURVE",
"357 412 CURVE",
"501 447 LINE",
"495 549 OFFCURVE",
"418 615 OFFCURVE",
"293 615 CURVE SMOOTH",
"148 615 OFFCURVE",
"64 528 OFFCURVE",
"64 423 CURVE SMOOTH",
"64 315 OFFCURVE",
"155 275 OFFCURVE",
"211 251 CURVE SMOOTH",
"262 229 LINE SMOOTH",
"299 213 OFFCURVE",
"327 192 OFFCURVE",
"327 158 CURVE SMOOTH",
"327 124 OFFCURVE",
"297 99 OFFCURVE",
"253 99 CURVE SMOOTH",
"194 99 OFFCURVE",
"151 138 OFFCURVE",
"145 209 CURVE",
"1 174 LINE",
"7 64 OFFCURVE",
"98 -15 OFFCURVE",
"238 -15 CURVE SMOOTH"
);
}
);
width = 520;
}
);
leftKerningGroup = s;
rightKerningGroup = s;
unicode = 0073;
},
{
glyphname = germandbls;
lastChange = "2021-11-29 10:31:48 +0000";
layers = (
{
background = {
paths = (
{
closed = 1;
nodes = (
"547 -12 OFFCURVE",
"652 80 OFFCURVE",
"652 218 CURVE SMOOTH",
"652 334 OFFCURVE",
"554 389 OFFCURVE",
"444 416 CURVE",
"447 432 LINE",
"572 472 OFFCURVE",
"675 537 OFFCURVE",
"675 659 CURVE SMOOTH",
"675 738 OFFCURVE",
"617 806 OFFCURVE",
"442 806 CURVE SMOOTH",
"168 806 OFFCURVE",
"140 640 OFFCURVE",
"129 570 CURVE SMOOTH",
"38 0 LINE",
"146 0 LINE",
"238 576 LINE SMOOTH",
"246 628 OFFCURVE",
"260 718 OFFCURVE",
"431 718 CURVE SMOOTH",
"522 718 OFFCURVE",
"564 692 OFFCURVE",
"564 644 CURVE SMOOTH",
"564 553 OFFCURVE",
"467 510 OFFCURVE",
"346 482 CURVE",
"326 356 LINE",
"434 337 OFFCURVE",
"543 297 OFFCURVE",
"543 201 CURVE SMOOTH",
"543 124 OFFCURVE",
"490 79 OFFCURVE",
"402 79 CURVE SMOOTH",
"348 79 OFFCURVE",
"298 95 OFFCURVE",
"263 112 CURVE",
"262 112 LINE",
"246 14 LINE",
"283 0 OFFCURVE",
"337 -12 OFFCURVE",
"393 -12 CURVE SMOOTH"
);
}
);
};
guideLines = (
{
angle = 260.5377;
position = "{86, 300}";
},
{
angle = 260.5377;
position = "{194, 300}";
},
{
angle = 260.5377;
position = "{160, 112}";
},
{
angle = 260.5377;
position = "{590, 300}";
},
{
position = "{103, -100}";
},
{
position = "{350, 456}";
},
{
position = "{335, 366}";
}
);
hints = (
{
horizontal = 1;
origin = "{0, 24}";
target = "{0, 17}";
type = Stem;
},
{
horizontal = 1;
origin = "{0, 37}";
target = "{0, 4}";
type = Stem;
},
{
horizontal = 1;
origin = "{0, 41}";
target = up;
type = BottomGhost;
},
{
origin = "{0, 41}";
target = "{0, 0}";
type = Stem;
},
{
origin = "{0, 14}";
target = "{0, 27}";
type = Stem;
}
);
layerId = "53F1C36F-0CF6-4FBE-93F4-60C790418F6C";
paths = (
{
closed = 1;
nodes = (
"127 -100 LINE",
"233 534 LINE SMOOTH",
"244 602 OFFCURVE",
"286 718 OFFCURVE",
"415 718 CURVE SMOOTH",
"481 718 OFFCURVE",
"534 687 OFFCURVE",
"534 618 CURVE SMOOTH",
"534 527 OFFCURVE",
"431 478 OFFCURVE",
"350 456 CURVE",
"335 366 LINE",
"406 347 OFFCURVE",
"512 309 OFFCURVE",
"512 202 CURVE SMOOTH",
"512 127 OFFCURVE",
"460 79 OFFCURVE",
"371 79 CURVE SMOOTH",
"318 79 OFFCURVE",
"268 95 OFFCURVE",
"232 112 CURVE",
"216 14 LINE",
"253 0 OFFCURVE",
"307 -12 OFFCURVE",
"362 -12 CURVE SMOOTH",
"517 -12 OFFCURVE",
"621 85 OFFCURVE",
"621 218 CURVE SMOOTH",
"621 329 OFFCURVE",
"548 379 OFFCURVE",
"457 414 CURVE",
"461 438 LINE",
"555 462 OFFCURVE",
"645 530 OFFCURVE",
"645 635 CURVE SMOOTH",
"645 741 OFFCURVE",
"559 806 OFFCURVE",
"424 806 CURVE SMOOTH",
"207 806 OFFCURVE",
"143 640 OFFCURVE",
"126 540 CURVE SMOOTH",
"19 -100 LINE"
);
}
);
width = 660;
},
{
guideLines = (
{
angle = 260.5377;
position = "{74, 300}";
},
{
angle = 260.5377;
position = "{236, 300}";
},
{
angle = 260.5377;
position = "{276, 129}";
},
{
angle = 260.5377;
position = "{636, 300}";
}
);
layerId = "7BD6BBF9-E6B2-4B80-818C-1AB8B5401D18";
paths = (
{
closed = 1;
nodes = (
"170 -100 LINE",
"271 512 LINE SMOOTH",
"289 621 OFFCURVE",
"323 686 OFFCURVE",
"419 686 CURVE SMOOTH",
"499 686 OFFCURVE",
"525 642 OFFCURVE",
"525 599 CURVE SMOOTH",
"525 536 OFFCURVE",
"471 494 OFFCURVE",
"369 460 CURVE",
"348 334 LINE",
"432 314 OFFCURVE",
"501 270 OFFCURVE",
"501 196 CURVE SMOOTH",
"501 140 OFFCURVE",
"462 103 OFFCURVE",
"394 103 CURVE SMOOTH",
"356 103 OFFCURVE",
"313 114 OFFCURVE",
"276 129 CURVE",
"257 11 LINE",
"290 -2 OFFCURVE",
"339 -13 OFFCURVE",
"395 -13 CURVE SMOOTH",
"558 -13 OFFCURVE",
"663 81 OFFCURVE",
"663 215 CURVE SMOOTH",
"663 332 OFFCURVE",
"583 382 OFFCURVE",
"485 416 CURVE",
"489 440 LINE",
"604 469 OFFCURVE",
"687 519 OFFCURVE",
"687 625 CURVE SMOOTH",
"687 720 OFFCURVE",
"621 806 OFFCURVE",
"441 806 CURVE SMOOTH",
"178 806 OFFCURVE",
"127 625 OFFCURVE",
"109 516 CURVE SMOOTH",
"8 -100 LINE"
);
}
);
width = 700;
}
);
leftKerningGroup = b;
rightKerningGroup = s;
unicode = 00DF;
},
{
glyphname = t;
lastChange = "2021-09-02 10:56:02 +0000";
layers = (
{
anchors = (
{
name = bottom;
position = "{152, 0}";
},
{
name = center;
position = "{174, 300}";
},
{
name = top;
position = "{225, 600}";
},
{
name = topright;
position = "{325, 900}";
}
);
guideLines = (
{
angle = 260.5377;
position = "{116, 300}";
},
{
angle = 260.5377;
position = "{224, 300}";
}
);
hints = (
{
horizontal = 1;
place = "{0, 21}";
target = up;
type = BottomGhost;
},
{
horizontal = 1;
origin = "{0, 12}";
target = "{0, 13}";
type = Stem;
},
{
origin = "{0, 15}";
target = "{0, 0}";
type = Stem;
},
{
horizontal = 1;
origin = "{0, 10}";
target = down;
type = TopGhost;
}
);
layerId = "53F1C36F-0CF6-4FBE-93F4-60C790418F6C";
paths = (
{
closed = 1;
nodes = (
"216 0 LINE",
"216 6 LINE",
"203 49 OFFCURVE",
"193 109 OFFCURVE",
"207 196 CURVE SMOOTH",
"260 516 LINE",
"356 516 LINE",
"370 600 LINE",
"272 600 LINE",
"297 750 LINE",
"193 750 LINE",
"168 600 LINE",
"80 600 LINE",
"66 516 LINE",
"152 516 LINE",
"96 179 LINE SMOOTH",
"82 94 OFFCURVE",
"88 46 OFFCURVE",
"102 0 CURVE"
);
}
);
width = 350;
},
{
anchors = (
{
name = bottom;
position = "{160, 0}";
},
{
name = center;
position = "{196, 300}";
},
{
name = top;
position = "{241, 600}";
},
{
name = topright;
position = "{362, 900}";
}
);
guideLines = (
{
angle = 260.5377;
position = "{100, 300}";
},
{
angle = 260.5377;
position = "{262, 300}";
}
);
layerId = "7BD6BBF9-E6B2-4B80-818C-1AB8B5401D18";
paths = (
{
closed = 1;
nodes = (
"272 0 LINE",
"272 6 LINE",
"242 49 OFFCURVE",
"228 99 OFFCURVE",
"244 196 CURVE SMOOTH",
"293 486 LINE",
"381 486 LINE",
"400 600 LINE",
"308 600 LINE",
"333 750 LINE",
"179 750 LINE",
"154 600 LINE",
"80 600 LINE",
"61 486 LINE",
"131 486 LINE",
"80 179 LINE SMOOTH",
"64 80 OFFCURVE",
"75 39 OFFCURVE",
"98 0 CURVE"
);
}
);
width = 380;
}
);
leftKerningGroup = t;
rightKerningGroup = t;
unicode = 0074;
},
{
glyphname = u;
lastChange = "2021-11-29 10:31:48 +0000";
layers = (
{
anchors = (
{
name = bottom;
position = "{269, 0}";
},
{
name = ogonek;
position = "{498, 0}";
},
{
name = top;
position = "{364, 600}";
},
{
name = topright;
position = "{650, 600}";
}
);
background = {
paths = (
{
closed = 1;
nodes = (
"322 -10 OFFCURVE",
"364 48 OFFCURVE",
"386 90 CURVE",
"410 90 LINE",
"404 56 OFFCURVE",
"400 26 OFFCURVE",
"400 0 CURVE",
"498 0 LINE",
"498 24 OFFCURVE",
"506 84 OFFCURVE",
"516 144 CURVE SMOOTH",
"592 600 LINE",
"484 600 LINE",
"436 312 LINE SMOOTH",
"414 180 OFFCURVE",
"344 80 OFFCURVE",
"254 80 CURVE SMOOTH",
"194 80 OFFCURVE",
"155 120 OFFCURVE",
"173 228 CURVE SMOOTH",
"235 600 LINE",
"127 600 LINE",
"66 234 LINE SMOOTH",
"39 72 OFFCURVE",
"110 -10 OFFCURVE",
"224 -10 CURVE SMOOTH"
);
}
);
};
guideLines = (
{
angle = 2.1409;
position = "{117, 206}";
}
);
hints = (
{
horizontal = 1;
place = "{550, -20}";
target = down;
type = TopGhost;
},
{
horizontal = 1;
place = "{-64, 42}";
type = Stem;
},
{
horizontal = 1;
place = "{-50, 21}";
target = up;
type = BottomGhost;
},
{
place = "{512, 58}";
type = Stem;
},
{
place = "{138, 58}";
type = Stem;
}
);
layerId = "53F1C36F-0CF6-4FBE-93F4-60C790418F6C";
paths = (
{
closed = 1;
nodes = (
"300 -10 OFFCURVE",
"348 29 OFFCURVE",
"390 90 CURVE",
"414 90 LINE",
"408 56 OFFCURVE",
"404 26 OFFCURVE",
"404 0 CURVE",
"500 0 LINE",
"500 24 OFFCURVE",
"508 84 OFFCURVE",
"518 144 CURVE SMOOTH",
"594 600 LINE",
"486 600 LINE",
"438 312 LINE SMOOTH",
"416 180 OFFCURVE",
"353 80 OFFCURVE",
"250 80 CURVE SMOOTH",
"180 80 OFFCURVE",
"156 126 OFFCURVE",
"170 208 CURVE SMOOTH",
"236 600 LINE",
"128 600 LINE",
"63 204 LINE SMOOTH",
"42 78 OFFCURVE",
"88 -10 OFFCURVE",
"213 -10 CURVE SMOOTH"
);
}
);
width = 630;
},
{
anchors = (
{
name = bottom;
position = "{285, 0}";
},
{
name = ogonek;
position = "{549, 0}";
},
{
name = top;
position = "{379, 600}";
},
{
name = topright;
position = "{637, 600}";
}
);
background = {
paths = (
{
closed = 1;
nodes = (
"474 600 LINE",
"426 312 LINE SMOOTH",
"407 200 OFFCURVE",
"356 105 OFFCURVE",
"279 105 CURVE SMOOTH",
"224 105 OFFCURVE",
"203 152 OFFCURVE",
"217 234 CURVE SMOOTH",
"278 600 LINE",
"116 600 LINE",
"51 211 LINE SMOOTH",
"29 78 OFFCURVE",
"93 -14 OFFCURVE",
"220 -14 CURVE SMOOTH",
"308 -14 OFFCURVE",
"353 30 OFFCURVE",
"383 90 CURVE",
"407 90 LINE",
"402 58 OFFCURVE",
"398 28 OFFCURVE",
"398 0 CURVE",
"542 0 LINE",
"542 24 OFFCURVE",
"550 84 OFFCURVE",
"560 144 CURVE SMOOTH",
"636 600 LINE"
);
}
);
};
guideLines = (
{
angle = 260.5377;
position = "{66, 300}";
},
{
angle = 260.5377;
position = "{586, 300}";
},
{
angle = 260.5377;
position = "{426, 300}";
},
{
angle = 260.5377;
position = "{228, 300}";
},
{
angle = 2.1409;
position = "{117, 206}";
}
);
layerId = "7BD6BBF9-E6B2-4B80-818C-1AB8B5401D18";
paths = (
{
closed = 1;
nodes = (
"299 -15 OFFCURVE",
"342 30 OFFCURVE",
"381 90 CURVE",
"405 90 LINE",
"399 63 OFFCURVE",
"394 27 OFFCURVE",
"392 0 CURVE",
"548 0 LINE",
"548 53 OFFCURVE",
"553 102 OFFCURVE",
"562 156 CURVE SMOOTH",
"636 600 LINE",
"474 600 LINE",
"426 312 LINE SMOOTH",
"407 200 OFFCURVE",
"357 105 OFFCURVE",
"278 105 CURVE SMOOTH",
"224 105 OFFCURVE",
"203 150 OFFCURVE",
"213 210 CURVE SMOOTH",
"278 600 LINE",
"116 600 LINE",
"50 204 LINE SMOOTH",
"26 62 OFFCURVE",
"93 -15 OFFCURVE",
"211 -15 CURVE SMOOTH"
);
}
);
width = 660;
}
);
leftKerningGroup = u;
rightKerningGroup = u;
unicode = 0075;
},
{
glyphname = uhorn;
lastChange = "2021-09-02 10:56:02 +0000";
layers = (
{
anchors = (
{
name = bottom;
position = "{269, 0}";
},
{
name = ogonek;
position = "{498, 0}";
},
{
name = top;
position = "{364, 600}";
}
);
guideLines = (
{
position = "{228, 510}";
},
{
angle = 80.6279;
position = "{712, 299}";
}
);
hints = (
{
horizontal = 1;
place = "{550, -20}";
target = down;
type = TopGhost;
},
{
horizontal = 1;
place = "{-64, 42}";
type = Stem;
},
{
horizontal = 1;
place = "{-50, 21}";
target = up;
type = BottomGhost;
},
{
place = "{512, 58}";
type = Stem;
},
{
place = "{138, 58}";
type = Stem;
}
);
layerId = "53F1C36F-0CF6-4FBE-93F4-60C790418F6C";
paths = (
{
closed = 1;
nodes = (
"300 -10 OFFCURVE",
"348 29 OFFCURVE",
"390 90 CURVE",
"414 90 LINE",
"408 56 OFFCURVE",
"404 26 OFFCURVE",
"404 0 CURVE",
"500 0 LINE",
"500 24 OFFCURVE",
"508 84 OFFCURVE",
"518 144 CURVE SMOOTH",
"569 450 LINE",
"580 450 LINE SMOOTH",
"689 450 OFFCURVE",
"754 551 OFFCURVE",
"772 660 CURVE",
"682 660 LINE",
"668 574 OFFCURVE",
"638 523 OFFCURVE",
"597 510 CURVE",
"573 510 LINE",
"588 600 LINE",
"486 600 LINE",
"438 312 LINE SMOOTH",
"416 180 OFFCURVE",
"353 80 OFFCURVE",
"250 80 CURVE SMOOTH",
"180 80 OFFCURVE",
"156 126 OFFCURVE",
"170 208 CURVE SMOOTH",
"236 600 LINE",
"128 600 LINE",
"63 204 LINE SMOOTH",
"42 78 OFFCURVE",
"88 -10 OFFCURVE",
"213 -10 CURVE SMOOTH"
);
}
);
width = 690;
},
{
anchors = (
{
name = bottom;
position = "{285, 0}";
},
{
name = ogonek;
position = "{549, 0}";
},
{
name = top;
position = "{379, 600}";
}
);
guideLines = (
{
angle = 80.6279;
position = "{592, 444}";
}
);
layerId = "7BD6BBF9-E6B2-4B80-818C-1AB8B5401D18";
paths = (
{
closed = 1;
nodes = (
"299 -14 OFFCURVE",
"342 30 OFFCURVE",
"381 90 CURVE",
"405 90 LINE",
"399 63 OFFCURVE",
"394 27 OFFCURVE",
"392 0 CURVE",
"548 0 LINE",
"548 53 OFFCURVE",
"553 102 OFFCURVE",
"562 156 CURVE SMOOTH",
"610 444 LINE",
"616 444 LINE SMOOTH",
"731 444 OFFCURVE",
"801.235 529.847 OFFCURVE",
"812 660 CURVE",
"691 660 LINE",
"684.217 605.736 OFFCURVE",
"667 556 OFFCURVE",
"633 544 CURVE",
"609 544 LINE",
"618 600 LINE",
"474 600 LINE",
"426 312 LINE SMOOTH",
"407 200 OFFCURVE",
"357 105 OFFCURVE",
"278 105 CURVE SMOOTH",
"224 105 OFFCURVE",
"203 150 OFFCURVE",
"213 210 CURVE SMOOTH",
"278 600 LINE",
"116 600 LINE",
"50 204 LINE SMOOTH",
"26 62 OFFCURVE",
"93 -14 OFFCURVE",
"211 -14 CURVE SMOOTH"
);
}
);
width = 720;
}
);
leftKerningGroup = u;
rightKerningGroup = uhorn;
unicode = 01B0;
},
{
glyphname = v;
lastChange = "2021-11-29 10:31:48 +0000";
layers = (
{
background = {
paths = (
{
closed = 1;
nodes = (
"310 0 LINE",
"582 599 LINE",
"582 600 LINE",
"478 600 LINE",
"252 90 LINE",
"228 90 LINE",
"172 600 LINE",
"68 600 LINE",
"68 599 LINE",
"140 0 LINE"
);
}
);
};
hints = (
{
horizontal = 1;
place = "{0, 90}";
type = Stem;
},
{
horizontal = 1;
place = "{600, -20}";
target = down;
type = TopGhost;
}
);
layerId = "53F1C36F-0CF6-4FBE-93F4-60C790418F6C";
paths = (
{
closed = 1;
nodes = (
"310 0 LINE",
"582 594 LINE",
"582 600 LINE",
"478 600 LINE",
"252 90 LINE",
"228 90 LINE",
"172 600 LINE",
"68 600 LINE",
"68 594 LINE",
"140 0 LINE"
);
}
);
width = 550;
},
{
layerId = "7BD6BBF9-E6B2-4B80-818C-1AB8B5401D18";
paths = (
{
closed = 1;
nodes = (
"380 0 LINE",
"638 599 LINE",
"638 600 LINE",
"481 600 LINE",
"287 132 LINE",
"263 132 LINE",
"216 600 LINE",
"62 600 LINE",
"62 599 LINE",
"130 0 LINE"
);
}
);
width = 600;
}
);
leftKerningGroup = v;
rightKerningGroup = v;
unicode = 0076;
},
{
glyphname = w;
lastChange = "2021-11-29 10:31:48 +0000";
layers = (
{
anchors = (
{
name = bottom;
position = "{393, 0}";
},
{
name = top;
position = "{488, 600}";
}
);
background = {
paths = (
{
closed = 1;
nodes = (
"276 0 LINE",
"465 514 LINE",
"489 514 LINE",
"510 0 LINE",
"685 0 LINE",
"888 599 LINE",
"888 600 LINE",
"792 600 LINE",
"623 90 LINE",
"599 90 LINE",
"580 600 LINE",
"402 600 LINE",
"220 90 LINE",
"196 90 LINE",
"190 600 LINE",
"92 600 LINE",
"92 599 LINE",
"101 0 LINE"
);
}
);
};
hints = (
{
horizontal = 1;
place = "{0, 90}";
type = Stem;
},
{
horizontal = 1;
place = "{600, 86}";
type = Stem;
}
);
layerId = "53F1C36F-0CF6-4FBE-93F4-60C790418F6C";
paths = (
{
closed = 1;
nodes = (
"273 1 LINE",
"464 515 LINE",
"488 515 LINE",
"509 1 LINE",
"683 1 LINE",
"888 600 LINE",
"888 601 LINE",
"788 601 LINE",
"616 91 LINE",
"592 91 LINE",
"576 601 LINE",
"402 601 LINE",
"217 91 LINE",
"193 91 LINE",
"190 601 LINE",
"92 601 LINE",
"92 600 LINE",
"99 1 LINE"
);
}
);
width = 880;
},
{
anchors = (
{
name = bottom;
position = "{434, 0}";
},
{
name = top;
position = "{534, 600}";
}
);
layerId = "7BD6BBF9-E6B2-4B80-818C-1AB8B5401D18";
paths = (
{
closed = 1;
nodes = (
"340 0 LINE",
"495 483 LINE",
"519 483 LINE",
"524 0 LINE",
"788 0 LINE",
"972 599 LINE",
"972 600 LINE",
"830 600 LINE",
"685 120 LINE",
"661 120 LINE",
"658 600 LINE",
"404 600 LINE",
"245 120 LINE",
"221 120 LINE",
"232 600 LINE",
"90 600 LINE",
"90 599 LINE",
"79 0 LINE"
);
}
);
width = 960;
}
);
leftKerningGroup = w;
rightKerningGroup = w;
unicode = 0077;
},
{
glyphname = x;
lastChange = "2021-11-29 10:31:48 +0000";
layers = (
{
guideLines = (
{
angle = 53.5946;
position = "{446, 460}";
}
);
hints = (
{
horizontal = 1;
origin = "{0, 17}";
target = up;
type = BottomGhost;
},
{
horizontal = 1;
origin = "{0, 13}";
target = down;
type = TopGhost;
}
);
layerId = "53F1C36F-0CF6-4FBE-93F4-60C790418F6C";
paths = (
{
closed = 1;
nodes = (
"81 0 LINE",
"248 244 LINE",
"272 244 LINE",
"367 0 LINE",
"478 0 LINE",
"478 6 LINE",
"345 316 LINE",
"548 594 LINE",
"548 600 LINE",
"437 600 LINE",
"297 394 LINE",
"273 394 LINE",
"189 600 LINE",
"84 600 LINE",
"84 594 LINE",
"199 323 LINE",
"-35 6 LINE",
"-35 0 LINE"
);
}
);
width = 540;
},
{
layerId = "7BD6BBF9-E6B2-4B80-818C-1AB8B5401D18";
paths = (
{
closed = 1;
nodes = (
"132 0 LINE",
"273 210 LINE",
"297 210 LINE",
"372 0 LINE",
"538 0 LINE",
"538 6 LINE",
"415.814 312.281 LINE",
"614 594 LINE",
"614 600 LINE",
"450 600 LINE",
"332 420 LINE",
"307 420 LINE",
"245 600 LINE",
"80 600 LINE",
"80 594 LINE",
"191.241 322.165 LINE",
"-38 6 LINE",
"-38 0 LINE"
);
}
);
width = 600;
}
);
leftKerningGroup = x;
rightKerningGroup = x;
unicode = 0078;
},
{
glyphname = y;
lastChange = "2021-09-02 10:56:02 +0000";
layers = (
{
anchors = (
{
name = bottom;
position = "{365, 0}";
},
{
name = top;
position = "{323, 600}";
}
);
guideLines = (
{
angle = 242.9829;
position = "{371, 398}";
},
{
angle = 62.8919;
position = "{453, 348}";
},
{
angle = -78.8835;
position = "{122, 315}";
},
{
angle = 100.9276;
position = "{211, 398}";
}
);
hints = (
{
horizontal = 1;
origin = "{0, 20}";
target = up;
type = BottomGhost;
},
{
horizontal = 1;
origin = "{0, 16}";
target = "{0, 10}";
type = Stem;
},
{
horizontal = 1;
origin = "{0, 15}";
target = down;
type = TopGhost;
}
);
layerId = "53F1C36F-0CF6-4FBE-93F4-60C790418F6C";
paths = (
{
closed = 1;
nodes = (
"150 -200 LINE",
"191 -145 OFFCURVE",
"250 -49 OFFCURVE",
"324 96 CURVE SMOOTH",
"582 600 LINE",
"474 600 LINE",
"328 301 LINE SMOOTH",
"311 266 OFFCURVE",
"292 227 OFFCURVE",
"274 176 CURVE",
"250 176 LINE",
"245 217 OFFCURVE",
"238 259 OFFCURVE",
"230 300 CURVE SMOOTH",
"172 600 LINE",
"66 600 LINE",
"178 30 LINE",
"134 -54 OFFCURVE",
"78 -140 OFFCURVE",
"30 -194 CURVE",
"30 -200 LINE"
);
}
);
width = 550;
},
{
anchors = (
{
name = bottom;
position = "{412, 0}";
},
{
name = top;
position = "{337, 600}";
}
);
guideLines = (
{
angle = 244.7519;
position = "{379, 424}";
},
{
angle = 99.3567;
position = "{243, 424}";
},
{
angle = -80.5377;
position = "{108, 300}";
},
{
angle = 64.0989;
position = "{502, 357}";
}
);
layerId = "7BD6BBF9-E6B2-4B80-818C-1AB8B5401D18";
paths = (
{
closed = 1;
nodes = (
"204 -200 LINE",
"243 -147 OFFCURVE",
"312 -34 OFFCURVE",
"384 114 CURVE SMOOTH",
"620 600 LINE",
"462 600 LINE",
"351 360 LINE SMOOTH",
"335 325 OFFCURVE",
"315 276 OFFCURVE",
"294 204 CURVE",
"270 204 LINE",
"268 276 OFFCURVE",
"260 318 OFFCURVE",
"253 359 CURVE SMOOTH",
"214 600 LINE",
"58 600 LINE",
"165.473 14.963 LINE",
"131.145 -55.025 OFFCURVE",
"78.619 -133.89 OFFCURVE",
"30 -194 CURVE",
"30 -200 LINE"
);
}
);
width = 580;
}
);
leftKerningGroup = y;
rightKerningGroup = y;
unicode = 0079;
},
{
glyphname = z;
lastChange = "2021-09-03 08:30:35 +0000";
layers = (
{
anchors = (
{
name = bottom;
position = "{216, 0}";
},
{
name = top;
position = "{318, 600}";
}
);
guideLines = (
{
angle = 260.5377;
position = "{48, 300}";
},
{
angle = 260.5377;
position = "{482, 300}";
},
{
angle = 260.5377;
position = "{372, 516}";
},
{
angle = 260.5377;
position = "{78, 300}";
},
{
angle = 260.5377;
position = "{467, 300}";
}
);
hints = (
{
horizontal = 1;
origin = "{0, 17}";
target = "{0, 2}";
type = Stem;
},
{
horizontal = 1;
origin = "{0, 9}";
target = "{0, 10}";
type = Stem;
},
{
origin = "{0, 17}";
target = "{0, 2}";
type = Stem;
},
{
origin = "{0, 10}";
target = "{0, 8}";
type = Stem;
}
);
layerId = "53F1C36F-0CF6-4FBE-93F4-60C790418F6C";
paths = (
{
closed = 1;
nodes = (
"432 0 LINE",
"446 84 LINE",
"131 84 LINE",
"135 108 LINE",
"160 124 OFFCURVE",
"179 144 OFFCURVE",
"216 184 CURVE SMOOTH",
"500 498 LINE",
"517 600 LINE",
"113 600 LINE",
"99 516 LINE",
"384 516 LINE",
"380 492 LINE",
"355 476 OFFCURVE",
"336 456 OFFCURVE",
"299 416 CURVE SMOOTH",
"15 102 LINE",
"-2 0 LINE"
);
}
);
width = 530;
},
{
anchors = (
{
name = bottom;
position = "{226, 0}";
},
{
name = top;
position = "{329, 600}";
}
);
guideLines = (
{
angle = 260.5377;
position = "{514, 300}";
},
{
angle = 260.5377;
position = "{36, 300}";
},
{
position = "{-3, 129}";
},
{
position = "{537, 471}";
}
);
layerId = "7BD6BBF9-E6B2-4B80-818C-1AB8B5401D18";
paths = (
{
closed = 1;
nodes = (
"464 0 LINE",
"483 114 LINE",
"194 114 LINE",
"198 138 LINE",
"223 154 OFFCURVE",
"241 175 OFFCURVE",
"279 214 CURVE SMOOTH",
"530 471 LINE",
"552 600 LINE",
"101 600 LINE",
"82 486 LINE",
"344 486 LINE",
"340 462 LINE",
"315 446 OFFCURVE",
"297 425 OFFCURVE",
"259 386 CURVE SMOOTH",
"8 129 LINE",
"-14 0 LINE"
);
}
);
width = 550;
}
);
leftKerningGroup = z;
rightKerningGroup = z;
unicode = 007A;
},
{
export = 0;
glyphname = d.croat;
lastChange = "2021-11-29 10:31:48 +0000";
layers = (
{
anchors = (
{
name = bottom;
position = "{281, 0}";
},
{
name = center;
position = "{525, 700}";
},
{
name = top;
position = "{409, 800}";
},
{
name = topright;
position = "{627, 800}";
}
);
background = {
paths = (
{
closed = 1;
nodes = (
"315 -12 OFFCURVE",
"368 40 OFFCURVE",
"398 100 CURVE",
"423 100 LINE",
"417 65 OFFCURVE",
"414 26 OFFCURVE",
"414 0 CURVE",
"510 0 LINE",
"510 31 OFFCURVE",
"513 113 OFFCURVE",
"521 161 CURVE SMOOTH",
"594 600 LINE",
"498 600 LINE",
"489 540 LINE",
"465 540 LINE",
"448 579 OFFCURVE",
"404 612 OFFCURVE",
"330 612 CURVE SMOOTH",
"159 612 OFFCURVE",
"40 432 OFFCURVE",
"40 228 CURVE SMOOTH",
"40 74 OFFCURVE",
"106 -12 OFFCURVE",
"224 -12 CURVE SMOOTH"
);
},
{
closed = 1;
nodes = (
"190 74 OFFCURVE",
"150 118 OFFCURVE",
"150 232 CURVE SMOOTH",
"150 393 OFFCURVE",
"229 526 OFFCURVE",
"344 526 CURVE SMOOTH",
"391 526 OFFCURVE",
"436 504 OFFCURVE",
"465 474 CURVE",
"448 371 LINE SMOOTH",
"422 216 OFFCURVE",
"370 74 OFFCURVE",
"254 74 CURVE SMOOTH"
);
}
);
};
guideLines = (
{
position = "{571, 800}";
},
{
angle = 81.1057;
position = "{521, 481}";
},
{
angle = 260.5377;
position = "{436, 300}";
},
{
angle = 260.5377;
position = "{544, 300}";
},
{
position = "{464, 540}";
}
);
layerId = "53F1C36F-0CF6-4FBE-93F4-60C790418F6C";
paths = (
{
closed = 1;
nodes = (
"315 -12 OFFCURVE",
"368 40 OFFCURVE",
"398 100 CURVE",
"423 100 LINE",
"417 65 OFFCURVE",
"414 26 OFFCURVE",
"414 0 CURVE",
"510 0 LINE",
"510 31 OFFCURVE",
"513 113 OFFCURVE",
"521 161 CURVE SMOOTH",
"627 800 LINE",
"531 800 LINE",
"497 540 LINE",
"473 540 LINE",
"457 579 OFFCURVE",
"411 612 OFFCURVE",
"335 612 CURVE SMOOTH",
"161 612 OFFCURVE",
"40 432 OFFCURVE",
"40 228 CURVE SMOOTH",
"40 74 OFFCURVE",
"106 -12 OFFCURVE",
"224 -12 CURVE SMOOTH"
);
},
{
closed = 1;
nodes = (
"190 74 OFFCURVE",
"150 118 OFFCURVE",
"150 232 CURVE SMOOTH",
"150 393 OFFCURVE",
"229 526 OFFCURVE",
"344 526 CURVE SMOOTH",
"391 526 OFFCURVE",
"435 501 OFFCURVE",
"464 468 CURVE",
"448 371 LINE SMOOTH",
"422 216 OFFCURVE",
"370 74 OFFCURVE",
"254 74 CURVE SMOOTH"
);
}
);
width = 630;
},
{
anchors = (
{
name = bottom;
position = "{283, 0}";
},
{
name = center;
position = "{536, 700}";
},
{
name = top;
position = "{412, 800}";
},
{
name = topright;
position = "{669, 800}";
}
);
guideLines = (
{
angle = 260.5377;
position = "{32, 300}";
},
{
angle = 260.5377;
position = "{586, 300}";
},
{
angle = 260.5377;
position = "{492, 300}";
}
);
layerId = "7BD6BBF9-E6B2-4B80-818C-1AB8B5401D18";
paths = (
{
closed = 1;
nodes = (
"307 -10 OFFCURVE",
"355 42 OFFCURVE",
"381 90 CURVE",
"405 90 LINE",
"399 63 OFFCURVE",
"394 27 OFFCURVE",
"392 0 CURVE",
"548 0 LINE",
"548 53 OFFCURVE",
"553 102 OFFCURVE",
"562 156 CURVE SMOOTH",
"669 800 LINE",
"519 800 LINE",
"485 540 LINE",
"461 540 LINE",
"440 578 OFFCURVE",
"401 612 OFFCURVE",
"321 612 CURVE SMOOTH",
"129 612 OFFCURVE",
"28 405 OFFCURVE",
"28 227 CURVE SMOOTH",
"28 74 OFFCURVE",
"104 -10 OFFCURVE",
"217 -10 CURVE SMOOTH"
);
},
{
closed = 1;
nodes = (
"227 110 OFFCURVE",
"190 146 OFFCURVE",
"190 233 CURVE SMOOTH",
"190 375 OFFCURVE",
"256 498 OFFCURVE",
"360 498 CURVE SMOOTH",
"398 498 OFFCURVE",
"428 485 OFFCURVE",
"452 468 CURVE",
"433 354 LINE SMOOTH",
"413 234 OFFCURVE",
"358 110 OFFCURVE",
"275 110 CURVE SMOOTH"
);
}
);
width = 660;
}
);
leftKerningGroup = c;
rightKerningGroup = d;
},
{
glyphname = ordfeminine;
lastChange = "2021-09-02 10:56:02 +0000";
layers = (
{
guideLines = (
{
angle = 80.7274;
position = "{355, 756}";
}
);
layerId = "53F1C36F-0CF6-4FBE-93F4-60C790418F6C";
paths = (
{
closed = 1;
nodes = (
"239 411 OFFCURVE",
"267 431 OFFCURVE",
"285 469 CURVE",
"309 469 LINE",
"306 455 OFFCURVE",
"303 434 OFFCURVE",
"303 420 CURVE",
"399 420 LINE",
"399 461 OFFCURVE",
"403 507 OFFCURVE",
"410 548 CURVE SMOOTH",
"449 780 LINE",
"359 780 LINE",
"353 743 LINE",
"329 743 LINE",
"322 768 OFFCURVE",
"299 789 OFFCURVE",
"252 789 CURVE SMOOTH",
"139 789 OFFCURVE",
"76 669 OFFCURVE",
"76 557 CURVE SMOOTH",
"76 465 OFFCURVE",
"118 411 OFFCURVE",
"193 411 CURVE SMOOTH"
);
},
{
closed = 1;
nodes = (
"184 477 OFFCURVE",
"163 504 OFFCURVE",
"163 564 CURVE SMOOTH",
"163 651 OFFCURVE",
"208 723 OFFCURVE",
"277 723 CURVE SMOOTH",
"303 723 OFFCURVE",
"328 712 OFFCURVE",
"344 690 CURVE",
"336 637 LINE SMOOTH",
"323 553 OFFCURVE",
"290 477 OFFCURVE",
"224 477 CURVE SMOOTH"
);
}
);
width = 440;
},
{
layerId = "7BD6BBF9-E6B2-4B80-818C-1AB8B5401D18";
paths = (
{
closed = 1;
nodes = (
"224 411 OFFCURVE",
"254 429 OFFCURVE",
"270 463 CURVE",
"294 463 LINE",
"291 449 OFFCURVE",
"290 434 OFFCURVE",
"290 420 CURVE",
"413 420 LINE",
"413 463 OFFCURVE",
"417 507 OFFCURVE",
"424 548 CURVE SMOOTH",
"463 780 LINE",
"347 780 LINE",
"340 737 LINE",
"316 737 LINE",
"309 768 OFFCURVE",
"283 789 OFFCURVE",
"244 789 CURVE SMOOTH",
"131 789 OFFCURVE",
"66 668 OFFCURVE",
"66 546 CURVE SMOOTH",
"66 465 OFFCURVE",
"102 411 OFFCURVE",
"182 411 CURVE SMOOTH"
);
},
{
closed = 1;
nodes = (
"206 505 OFFCURVE",
"187 523 OFFCURVE",
"187 571 CURVE SMOOTH",
"187 636 OFFCURVE",
"221 695 OFFCURVE",
"278 695 CURVE SMOOTH",
"293 695 OFFCURVE",
"314 691 OFFCURVE",
"328 680 CURVE",
"318 627 LINE SMOOTH",
"307 567 OFFCURVE",
"279 505 OFFCURVE",
"232 505 CURVE SMOOTH"
);
}
);
width = 440;
}
);
unicode = 00AA;
},
{
glyphname = ordmasculine;
lastChange = "2021-09-02 10:56:02 +0000";
layers = (
{
layerId = "53F1C36F-0CF6-4FBE-93F4-60C790418F6C";
paths = (
{
closed = 1;
nodes = (
"367 411 OFFCURVE",
"424 521 OFFCURVE",
"424 625 CURVE SMOOTH",
"424 728 OFFCURVE",
"369 789 OFFCURVE",
"268 789 CURVE SMOOTH",
"134 789 OFFCURVE",
"76 680 OFFCURVE",
"76 575 CURVE SMOOTH",
"76 472 OFFCURVE",
"132 411 OFFCURVE",
"232 411 CURVE SMOOTH"
);
},
{
closed = 1;
nodes = (
"187 477 OFFCURVE",
"161 508 OFFCURVE",
"161 569 CURVE SMOOTH",
"161 614 OFFCURVE",
"175 723 OFFCURVE",
"266 723 CURVE SMOOTH",
"313 723 OFFCURVE",
"339 693 OFFCURVE",
"339 630 CURVE SMOOTH",
"339 586 OFFCURVE",
"326 477 OFFCURVE",
"235 477 CURVE SMOOTH"
);
}
);
width = 400;
},
{
layerId = "7BD6BBF9-E6B2-4B80-818C-1AB8B5401D18";
paths = (
{
closed = 1;
nodes = (
"383 411 OFFCURVE",
"446 510 OFFCURVE",
"446 622 CURVE SMOOTH",
"446 735 OFFCURVE",
"381 789 OFFCURVE",
"277 789 CURVE SMOOTH",
"133 789 OFFCURVE",
"74 686 OFFCURVE",
"74 579 CURVE SMOOTH",
"74 466 OFFCURVE",
"139 411 OFFCURVE",
"243 411 CURVE SMOOTH"
);
},
{
closed = 1;
nodes = (
"218 498 OFFCURVE",
"191 513 OFFCURVE",
"191 570 CURVE SMOOTH",
"191 604 OFFCURVE",
"201 702 OFFCURVE",
"274 702 CURVE SMOOTH",
"302 702 OFFCURVE",
"329 688 OFFCURVE",
"329 631 CURVE SMOOTH",
"329 596 OFFCURVE",
"319 498 OFFCURVE",
"247 498 CURVE SMOOTH"
);
}
);
width = 420;
}
);
unicode = 00BA;
},
{
glyphname = one;
lastChange = "2021-09-02 10:56:02 +0000";
layers = (
{
guideLines = (
{
angle = 260.5377;
position = "{292, 300}";
},
{
angle = 260.5377;
position = "{400, 300}";
},
{
angle = 260.5377;
position = "{120, 300}";
},
{
angle = 260.5377;
position = "{574, 300}";
}
);
hints = (
{
horizontal = 1;
origin = "{0, 13}";
target = "{0, 12}";
type = Stem;
},
{
horizontal = 1;
place = "{500, 29}";
type = Stem;
},
{
horizontal = 1;
origin = "{0, 4}";
target = down;
type = TopGhost;
},
{
origin = "{0, 11}";
target = "{0, 2}";
type = Stem;
}
);
layerId = "53F1C36F-0CF6-4FBE-93F4-60C790418F6C";
paths = (
{
closed = 1;
nodes = (
"524 0 LINE",
"538 86 LINE",
"364 86 LINE",
"480 780 LINE",
"398 780 LINE",
"354 647 OFFCURVE",
"304 633 OFFCURVE",
"227 630 CURVE SMOOTH",
"175 628 LINE",
"162 550 LINE",
"334 550 LINE",
"256 86 LINE",
"70 86 LINE",
"56 0 LINE"
);
}
);
width = 680;
},
{
guideLines = (
{
angle = 260.5377;
position = "{429, 300}";
},
{
angle = 260.5377;
position = "{267, 300}";
},
{
angle = 260.5377;
position = "{82, 300}";
},
{
angle = 260.5377;
position = "{598, 300}";
}
);
layerId = "7BD6BBF9-E6B2-4B80-818C-1AB8B5401D18";
paths = (
{
closed = 1;
nodes = (
"548 0 LINE",
"568 122 LINE",
"399 122 LINE",
"509 780 LINE",
"375 780 LINE",
"338 669 OFFCURVE",
"293 651 OFFCURVE",
"204 644 CURVE SMOOTH",
"156 640 LINE",
"139 532 LINE",
"306 532 LINE",
"237 122 LINE",
"53 122 LINE",
"33 0 LINE"
);
}
);
width = 680;
}
);
unicode = 0031;
},
